<?xml version="1.0" standalone="no"?>
<!DOCTYPE svg PUBLIC "-//W3C//DTD SVG 1.1//EN" "http://www.w3.org/Graphics/SVG/1.1/DTD/svg11.dtd" >
<svg xmlns="http://www.w3.org/2000/svg" xmlns:xlink="http://www.w3.org/1999/xlink" version="1.1">
<metadata>
Created by FontForge 20170731 at Tue Oct  4 20:45:34 2005
 By Aleksey,,,
(c) Copyright 2005 by Tong Duc Thinh. All Rights Reserved
</metadata>
<defs>
<font id="SFUFuturaHeavyOblique" horiz-adv-x="578" >
  <font-face 
    font-family="SFU Futura"
    font-weight="900"
    font-style="oblique"
    font-stretch="normal"
    units-per-em="1000"
    panose-1="0 0 9 0 0 0 0 0 0 0"
    ascent="800"
    descent="-200"
    x-height="491"
    cap-height="754"
    bbox="-147 -264 1206 1195"
    underline-thickness="75"
    underline-position="-261"
    slope="-11"
    unicode-range="U+0020-F002"
  />
<missing-glyph horiz-adv-x="500" 
d="M63 0v1157h375v-1157h-375zM125 63h250v1032h-250v-1032z" />
    <glyph glyph-name=".notdef" horiz-adv-x="500" 
d="M63 0v1157h375v-1157h-375zM125 63h250v1032h-250v-1032z" />
    <glyph glyph-name=".null" horiz-adv-x="0" 
 />
    <glyph glyph-name="nonmarkingreturn" horiz-adv-x="289" 
 />
    <glyph glyph-name="space" unicode=" " horiz-adv-x="289" 
 />
    <glyph glyph-name="exclam" unicode="!" horiz-adv-x="325" 
d="M187 158q33 0 54.5 -20.5t21.5 -53.5q0 -41 -31.5 -72.5t-72.5 -31.5q-33 0 -54.5 21.5t-21.5 54.5q0 41 31.5 71.5t72.5 30.5zM125 217l85 537h142l-85 -537h-142z" />
    <glyph glyph-name="quotedbl" unicode="&#x22;" horiz-adv-x="488" 
d="M207 754h120l-70 -328h-84zM399 754h120l-70 -328h-84z" />
    <glyph glyph-name="numbersign" unicode="#" 
d="M326 726h106l-71 -203h101l71 203h105l-71 -203h80l-18 -113h-98l-44 -124h94l-18 -113h-118l-60 -173h-106l60 173h-101l-60 -173h-106l60 173h-91l18 113h113l44 124h-96l18 113h117zM322 410l-44 -124h102l46 124h-104z" />
    <glyph glyph-name="dollar" unicode="$" 
d="M252 -100l15 95q-75 9 -119 43t-71 105l102 86q38 -107 123 -107q46 0 80.5 35t34.5 81t-62 80q-38 21 -115 63q-61 47 -61 123q0 19 3 38q13 84 68 141t138 72l14 93h73l-15 -94q97 -12 146 -86l-82 -95q-38 61 -102 61q-35 0 -63.5 -22.5t-33.5 -56.5q-6 -39 34 -68
q6 -4 90 -49q115 -61 115 -163q0 -16 -4 -40q-15 -89 -72 -153q-60 -65 -147 -82l-16 -100h-73z" />
    <glyph glyph-name="percent" unicode="%" horiz-adv-x="772" 
d="M307 774q67 0 110 -40.5t43 -107.5q0 -12 -3 -31q-12 -77 -70.5 -127.5t-136.5 -50.5q-67 0 -110 40t-43 107q0 18 2 31q12 77 71 128t137 51zM294 693q-40 0 -68.5 -36.5t-28.5 -78.5q0 -33 16 -55q18 -25 50 -25q40 0 70 38q27 36 27 77q0 32 -16 55q-19 25 -50 25z
M677 780l62 -34l-527 -777l-63 35zM640 337q68 0 111 -40t43 -108q0 -12 -3 -31q-12 -77 -70.5 -127.5t-136.5 -50.5q-68 0 -111 40t-43 107q0 12 3 31q12 77 70.5 128t136.5 51zM628 256q-40 0 -68.5 -36.5t-28.5 -78.5q0 -33 16 -55q18 -25 50 -25q41 0 69 38q27 35 27 77
q0 32 -17 56t-48 24z" />
    <glyph glyph-name="ampersand" unicode="&#x26;" horiz-adv-x="702" 
d="M411 177l-92 157q-105 -71 -105 -135q0 -35 20.5 -61t54.5 -26q45 0 122 65zM369 543l28 -51l28 21q56 42 56 97q0 59 -48 59q-29 0 -49 -20t-24 -50q-5 -31 9 -56zM531 0l-49 76q-125 -96 -231 -96q-84 0 -136.5 49.5t-52.5 132.5q0 19 3 38q19 121 140 196l50 31
q-39 69 -39 127q0 14 3 33q13 83 75.5 135t146.5 52q73 0 119.5 -40.5t46.5 -112.5q0 -123 -156 -215l84 -135l91 97l80 -87l-99 -109l103 -172h-179z" />
    <glyph glyph-name="quotesingle" unicode="'" horiz-adv-x="296" 
d="M207 754h120l-70 -328h-84z" />
    <glyph glyph-name="parenleft" unicode="(" horiz-adv-x="271" 
d="M307 832l77 -58q-113 -187 -154 -450q-17 -108 -17 -219q0 -134 28 -230l-95 -59q-39 112 -39 275q0 118 19 239q46 296 181 502z" />
    <glyph glyph-name="parenright" unicode=")" horiz-adv-x="271" 
d="M133 774l95 58q39 -117 39 -281q0 -108 -18 -221q-50 -315 -182 -514l-77 59q111 178 153 449q18 115 18 217q0 132 -28 233z" />
    <glyph glyph-name="asterisk" unicode="*" horiz-adv-x="417" 
d="M285 754h86l-18 -101l86 52l25 -67l-89 -50l73 -50l-46 -67l-69 52l-14 -99h-86l19 99l-86 -52l-26 67l87 50l-72 50l46 67l71 -52z" />
    <glyph glyph-name="plus" unicode="+" 
d="M311 512h118l-31 -197h197l-19 -118h-197l-31 -197h-118l31 197h-197l19 118h197z" />
    <glyph glyph-name="comma" unicode="," horiz-adv-x="289" 
d="M160 156l125 -14l-191 -301l-91 11z" />
    <glyph glyph-name="hyphen" unicode="-" horiz-adv-x="330" 
d="M103 378h244l-18 -115h-244z" />
    <glyph glyph-name="hyphen" unicode="&#x2010;" horiz-adv-x="330" 
d="M103 378h244l-18 -115h-244z" />
    <glyph glyph-name="period" unicode="." horiz-adv-x="289" 
d="M170 158q33 0 54.5 -20.5t21.5 -53.5q0 -41 -31.5 -72.5t-72.5 -31.5q-33 0 -54.5 21.5t-21.5 54.5q0 41 31.5 71.5t72.5 30.5z" />
    <glyph glyph-name="slash" unicode="/" horiz-adv-x="539" 
d="M539 848l92 -35l-523 -975l-91 35z" />
    <glyph glyph-name="zero" unicode="0" 
d="M412 774q114 0 170 -98q44 -78 44 -201q0 -202 -108 -357q-96 -138 -232 -138q-115 0 -170 98q-45 79 -45 202q0 45 8 96q24 150 100 260q96 138 233 138zM391 646q-68 0 -118 -105q-57 -119 -57 -255q0 -178 90 -178q68 0 119 107q57 121 57 256q0 175 -91 175z" />
    <glyph glyph-name="one" unicode="1" 
d="M343 626h-99l20 128h246l-119 -754h-147z" />
    <glyph glyph-name="two" unicode="2" 
d="M309 128h247l-20 -128h-508l230 242q93 98 123 134q77 92 86 148q2 12 2 21q0 40 -19 69q-23 32 -61 32q-46 0 -79 -43q-29 -37 -34 -86h-156q26 115 98 183q78 74 191 74q91 0 150 -56t59 -147q0 -94 -66 -189q-36 -52 -111 -125z" />
    <glyph glyph-name="three" unicode="3" 
d="M287 557h-140q26 99 94 157q72 60 172 60q83 0 133 -43q53 -46 53 -128q0 -60 -25 -113q-27 -57 -75 -86q71 -33 71 -142q0 -122 -84.5 -202t-207.5 -80q-95 0 -154.5 58.5t-59.5 152.5q0 13 2 27h148q-6 -46 18.5 -78t71.5 -32q52 0 88 47q34 43 34 96q0 43 -22 71
q-25 30 -67 27l-27 -2l17 105h16q51 0 82.5 35.5t31.5 87.5q0 34 -19.5 55.5t-53.5 21.5q-36 0 -62.5 -28.5t-34.5 -66.5z" />
    <glyph glyph-name="four" unicode="4" 
d="M513 251h80l-19 -118h-80l-21 -133h-138l21 133h-332l11 66l426 569h134zM375 251l47 300h-2l-206 -300h161z" />
    <glyph glyph-name="five" unicode="5" 
d="M598 626h-224l-44 -115l38 2q95 5 152 -58q54 -60 54 -156q0 -23 -4 -48q-19 -121 -107 -196t-210 -75q-136 0 -208 100l64 126q52 -98 154 -98q66 0 113.5 53t47.5 120q0 55 -35.5 90.5t-90.5 35.5q-68 0 -128 -49h-23l143 396h328z" />
    <glyph glyph-name="six" unicode="6" 
d="M437 785l96 -78l-190 -219l2 -2q26 10 61 10q87 0 139 -59q49 -57 49 -145q0 -21 -4 -46q-18 -116 -104.5 -191t-203.5 -75q-99 0 -163 57t-64 155q0 134 135 296zM300 100q59 0 102 54q41 50 41 111q0 48 -25 80q-28 36 -74 36q-59 0 -101.5 -52.5t-42.5 -112.5
q0 -48 27 -82t73 -34z" />
    <glyph glyph-name="seven" unicode="7" 
d="M458 626h-316l20 128h539l-535 -774l-110 69z" />
    <glyph glyph-name="eight" unicode="8" 
d="M342 333q-49 0 -84 -45q-32 -41 -32 -92q0 -40 19 -65q22 -29 60 -29q50 0 84 45q32 41 32 92q0 39 -19 65q-22 29 -60 29zM229 393q-75 41 -75 136q0 103 77 174t181 71q83 0 136.5 -47.5t53.5 -129.5q0 -65 -35 -121t-94 -83q95 -38 95 -151q0 -22 -3 -41
q-16 -98 -96.5 -159.5t-182.5 -61.5q-88 0 -147 48q-65 52 -65 138q0 16 3 35q23 146 152 192zM394 664q-44 0 -74.5 -39.5t-30.5 -84.5q0 -36 18 -60q20 -27 54 -27q44 0 76 41q29 39 29 84q0 35 -19 60.5t-53 25.5z" />
    <glyph glyph-name="nine" unicode="9" 
d="M259 -32l-96 79l190 219l-2 2q-28 -11 -60 -11q-88 0 -139 59q-49 56 -49 145q0 144 109 238q86 75 203 75q98 0 161 -56q66 -59 66 -156q0 -133 -136 -297zM397 654q-60 0 -102 -52.5t-42 -113.5q0 -48 25 -80q28 -36 74 -36q60 0 103 54q41 50 41 112q0 48 -25 80
q-28 36 -74 36z" />
    <glyph glyph-name="colon" unicode=":" horiz-adv-x="289" 
d="M170 158q33 0 54.5 -20.5t21.5 -53.5q0 -41 -31.5 -72.5t-72.5 -31.5q-33 0 -54.5 21.5t-21.5 54.5q0 41 31.5 71.5t72.5 30.5zM227 518q33 0 54.5 -20.5t21.5 -53.5q0 -41 -31.5 -72.5t-72.5 -31.5q-33 0 -54.5 21.5t-21.5 54.5q0 41 31.5 71.5t72.5 30.5z" />
    <glyph glyph-name="semicolon" unicode=";" horiz-adv-x="289" 
d="M150 156l125 -14l-191 -301l-91 11zM267 518q33 0 54.5 -20.5t21.5 -53.5q0 -41 -31.5 -72.5t-72.5 -31.5q-33 0 -54.5 21.5t-21.5 54.5q0 41 31.5 71.5t72.5 30.5z" />
    <glyph glyph-name="less" unicode="&#x3c;" 
d="M64 196l19 120l541 182l-20 -126l-344 -117l307 -115l-20 -126z" />
    <glyph glyph-name="equal" unicode="=" 
d="M83 315l19 118h512l-19 -118h-512zM46 79l18 118h512l-18 -118h-512z" />
    <glyph glyph-name="greater" unicode="&#x3e;" 
d="M595 316l-19 -120l-541 -182l20 126l344 117l-307 115l20 126z" />
    <glyph glyph-name="question" unicode="?" horiz-adv-x="487" 
d="M189 257l31 199q16 -4 36 -4q59 0 101 35q46 37 46 94q0 71 -57 71q-32 0 -53 -24.5t-27 -57.5l-2 -12h-146q10 91 82.5 153.5t164.5 62.5q81 0 132.5 -48.5t51.5 -129.5q0 -86 -56.5 -155t-140.5 -88l-23 -96h-140zM245 158q33 0 54.5 -20.5t21.5 -53.5
q0 -41 -31.5 -72.5t-72.5 -31.5q-33 0 -54.5 21.5t-21.5 54.5q0 41 31.5 71.5t72.5 30.5z" />
    <glyph glyph-name="at" unicode="@" horiz-adv-x="975" 
d="M649 372q7 25 7 44q0 77 -90 77q-64 0 -106.5 -53.5t-42.5 -118.5q0 -83 77 -83q117 0 155 134zM695 507l24 63h71l-91 -260q-18 -51 -18 -66q0 -20 18 -20q46 0 89 76q35 62 44 118q5 32 5 55q0 101 -62 158t-164 57q-129 0 -227 -92q-94 -89 -115 -219q-5 -31 -5 -53
q0 -116 77 -187t194 -71q122 0 187 43l66 -60q-68 -35 -120 -49q-72 -20 -160 -20q-146 0 -238.5 91.5t-92.5 237.5q0 30 6 68q26 166 152.5 281.5t292.5 115.5q122 0 209 -76q91 -79 90 -199q0 -27 -3 -45q-17 -109 -84 -199q-79 -107 -180 -103q-44 2 -44 62
q-72 -62 -146 -62q-63 0 -102 46t-39 110q0 100 73.5 185.5t171.5 85.5q78 0 121 -72z" />
    <glyph glyph-name="A" unicode="A" horiz-adv-x="676" 
d="M495 159h-262l-87 -159h-155l417 774h114l163 -774h-157zM473 279l-50 274h-2l-127 -274h179z" />
    <glyph glyph-name="B" unicode="B" horiz-adv-x="553" 
d="M253 328l-33 -210h31q73 0 108 18q45 24 56 90q2 12 2 23q0 51 -45 68q-29 11 -95 11h-24zM54 0l119 754h183q198 0 198 -155q0 -24 -4 -50q-16 -104 -89 -146q102 -20 102 -149q0 -132 -98 -203q-71 -51 -180 -51h-231zM302 636l-31 -196h18q57 0 85 22t37 77q3 18 3 25
q0 72 -93 72h-19z" />
    <glyph glyph-name="C" unicode="C" horiz-adv-x="601" 
d="M674 730l-28 -176q-53 80 -154 80q-113 0 -192 -98q-74 -92 -74 -208q0 -88 47 -146q51 -62 137 -62q97 0 180 80l-28 -175q-102 -45 -178 -45q-139 0 -227 95q-85 92 -85 232q0 32 5 64q26 165 147 281q125 122 289 122q87 0 161 -44z" />
    <glyph glyph-name="D" unicode="D" horiz-adv-x="646" 
d="M54 0l119 754h210q140 0 225 -83.5t85 -223.5q0 -39 -5 -71q-25 -159 -145.5 -267.5t-279.5 -108.5h-209zM300 626l-79 -498h24q251 0 291 249q5 31 5 62q0 187 -217 187h-24z" />
    <glyph glyph-name="E" unicode="E" horiz-adv-x="488" 
d="M543 626h-243l-26 -166h234l-20 -128h-234l-33 -204h243l-20 -128h-390l119 754h390z" />
    <glyph glyph-name="F" unicode="F" horiz-adv-x="463" 
d="M527 626h-227l-26 -166h213l-20 -128h-213l-53 -332h-147l119 754h374z" />
    <glyph glyph-name="G" unicode="G" horiz-adv-x="739" 
d="M459 401h325l-3 -19q-27 -172 -129 -281q-112 -121 -278 -121q-139 0 -222 93q-81 89 -81 229q0 35 6 72q27 168 143 281q123 119 289 119q95 0 165 -45q74 -48 104 -135l-141 -70q-16 55 -56 87.5t-97 32.5q-112 0 -189 -108q-70 -98 -70 -215q0 -89 42 -146
q47 -65 133 -65q70 0 128 51t72 120h-160z" />
    <glyph glyph-name="H" unicode="H" horiz-adv-x="674" 
d="M273 457h272l47 297h147l-119 -754h-147l53 337h-272l-53 -337h-147l119 754h147z" />
    <glyph glyph-name="I" unicode="I" horiz-adv-x="254" 
d="M320 754l-119 -754h-147l119 754h147z" />
    <glyph glyph-name="J" unicode="J" horiz-adv-x="389" 
d="M458 754l-78 -498q-10 -64 -22 -99q-17 -49 -53 -92q-72 -85 -182 -85q-81 0 -137 71l111 108q3 -18 17.5 -33.5t31.5 -15.5q47 0 70 67q9 26 21 104l74 473h147z" />
    <glyph glyph-name="K" unicode="K" horiz-adv-x="620" 
d="M272 436l283 318h181l-341 -348l238 -406h-189l-187 339h-2l-54 -339h-147l119 754h147l-50 -318h2z" />
    <glyph glyph-name="L" unicode="L" horiz-adv-x="402" 
d="M320 754l-99 -626h208l-20 -128h-355l119 754h147z" />
    <glyph glyph-name="M" unicode="M" horiz-adv-x="836" 
d="M677 0l14 468h-2l-247 -478h-51l-89 478h-2l-141 -468h-148l250 774h104l107 -497l257 497h106l-10 -774h-148z" />
    <glyph glyph-name="N" unicode="N" horiz-adv-x="759" 
d="M54 0l123 774h106l313 -527h2l80 507h147l-121 -769h-106l-314 527h-2l-81 -512h-147z" />
    <glyph glyph-name="O" unicode="O" horiz-adv-x="782" 
d="M388 -20q-142 0 -229 92.5t-87 235.5q0 33 6 70q26 163 149.5 279.5t286.5 116.5q142 0 230 -94q85 -91 85 -234q0 -36 -5 -68q-26 -165 -147 -279q-125 -119 -289 -119zM491 629q-104 0 -183.5 -87.5t-79.5 -192.5q0 -85 48 -151q53 -73 135 -73q99 0 184 100
q81 96 81 198q0 85 -49 144q-52 62 -136 62z" />
    <glyph glyph-name="P" unicode="P" horiz-adv-x="528" 
d="M246 282l-45 -282h-147l119 754h200q229 0 229 -179q0 -23 -5 -55q-37 -238 -278 -238h-73zM301 632l-36 -228h30q71 0 104 23q39 27 49 94q2 13 2 30q0 51 -39 69q-25 12 -84 12h-26z" />
    <glyph glyph-name="Q" unicode="Q" horiz-adv-x="782" 
d="M775 -17l-150 -15l-42 63q-85 -51 -195 -51q-142 0 -229 92.5t-87 235.5q0 33 6 70q26 163 149.5 279.5t286.5 116.5q142 0 230 -94q85 -91 85 -234q0 -92 -36.5 -182t-100.5 -159zM546 302l55 -76q75 78 75 197q0 87 -48 147q-52 64 -137 64q-113 0 -192 -101
q-74 -95 -74 -211q0 -89 47 -143q50 -57 138 -57q41 0 83 25l-101 143z" />
    <glyph glyph-name="R" unicode="R" horiz-adv-x="558" 
d="M401 318l163 -318h-178l-135 304h-2l-48 -304h-147l119 754h199q221 0 221 -177q0 -20 -5 -50q-13 -78 -61 -135q-52 -62 -126 -74zM301 634l-36 -227h19q138 0 157 116q2 12 2 28q0 83 -122 83h-20z" />
    <glyph glyph-name="S" unicode="S" horiz-adv-x="526" 
d="M587 690l-85 -102q-36 62 -103 62q-37 0 -68.5 -24.5t-37.5 -60.5q-7 -48 57 -81l125 -65q69 -51 69 -138q0 -24 -3 -43q-18 -115 -95 -185q-80 -73 -194 -73q-144 0 -209 147l110 93q8 -46 40.5 -78t77.5 -32q49 0 82.5 38.5t33.5 88.5q0 41 -37 68q-15 11 -76 37
q-66 28 -98 62q-40 42 -40 105q0 20 3 39q15 95 87.5 160.5t168.5 65.5q51 0 105 -22q59 -24 87 -62z" />
    <glyph glyph-name="T" unicode="T" horiz-adv-x="451" 
d="M398 626l-99 -626h-147l99 626h-152l20 128h451l-20 -128h-152z" />
    <glyph glyph-name="U" unicode="U" horiz-adv-x="660" 
d="M98 303l71 451h147l-66 -422q-10 -64 -10 -94q0 -130 107 -130q84 0 126 77q28 51 43 147l66 422h147l-71 -451q-23 -147 -101 -231q-87 -92 -230 -92q-236 0 -236 238q0 41 7 85z" />
    <glyph glyph-name="V" unicode="V" horiz-adv-x="639" 
d="M263 754l101 -508h2l248 508h158l-415 -774h-86l-166 774h158z" />
    <glyph glyph-name="W" unicode="W" horiz-adv-x="977" 
d="M259 754l71 -514h2l233 524h87l73 -524h2l229 514h154l-376 -769h-108l-72 493h-2l-220 -493h-108l-119 769h154z" />
    <glyph glyph-name="X" unicode="X" horiz-adv-x="623" 
d="M296 399l-147 355h174l83 -234l147 234h174l-265 -355l169 -399h-171l-108 276l-188 -276h-172z" />
    <glyph glyph-name="Y" unicode="Y" horiz-adv-x="587" 
d="M273 346l-170 408h171l91 -262l185 262h172l-302 -408l-55 -346h-147z" />
    <glyph glyph-name="Z" unicode="Z" horiz-adv-x="575" 
d="M259 128h313l-20 -128h-547l431 626h-281l20 128h514z" />
    <glyph glyph-name="bracketleft" unicode="[" horiz-adv-x="288" 
d="M270 754l-119 -754h92l-14 -91h-198l148 936h198l-15 -91h-92z" />
    <glyph glyph-name="backslash" unicode="\" horiz-adv-x="539" 
d="M164 848h112l234 -848h-112z" />
    <glyph glyph-name="bracketright" unicode="]" horiz-adv-x="288" 
d="M137 0l119 754h-92l15 91h198l-148 -936h-198l14 91h92z" />
    <glyph glyph-name="asciicircum" unicode="^" 
d="M85 329l260 425h124l128 -425h-129l-82 283l-172 -283h-129z" />
    <glyph glyph-name="underscore" unicode="_" horiz-adv-x="500" 
d="M482 -113l-12 -75h-500l12 75h500z" />
    <glyph glyph-name="grave" unicode="`" horiz-adv-x="380" 
d="M192 712l112 62l93 -168l-78 -44z" />
    <glyph glyph-name="a" unicode="a" horiz-adv-x="565" 
d="M592 491l-78 -491h-138l7 45h-2q-56 -61 -143 -61q-89 0 -141 63q-47 59 -47 150q0 117 75 211q79 99 194 99q85 0 127 -62l8 46h138zM290 108q58 0 101 53q40 50 40 109q0 46 -26 79.5t-71 33.5q-58 0 -99 -51t-41 -110q0 -47 24 -79q26 -35 72 -35z" />
    <glyph glyph-name="b" unicode="b" horiz-adv-x="565" 
d="M50 0l134 848h140l-63 -402q61 61 145 61q87 0 139 -64q48 -59 48 -148q0 -119 -76 -212q-81 -99 -197 -99q-87 0 -121 62h-2l-7 -46h-140zM309 108q58 0 100 53q40 49 40 109q0 46 -26 79.5t-70 33.5q-58 0 -99 -51t-41 -110q0 -47 24 -79q26 -35 72 -35z" />
    <glyph glyph-name="c" unicode="c" horiz-adv-x="421" 
d="M459 476l-21 -135q-40 48 -95 48q-64 0 -108 -56q-42 -52 -42 -117q0 -51 29 -82.5t80 -31.5q56 0 106 47l-22 -135q-59 -30 -126 -30q-94 0 -152 60.5t-58 154.5q0 19 4 45q17 111 101 187t195 76q64 0 109 -31z" />
    <glyph glyph-name="d" unicode="d" horiz-adv-x="565" 
d="M375 0l7 46h-2q-54 -62 -142 -62q-89 0 -141 63q-47 59 -47 150q0 117 75 211q79 99 194 99q86 0 125 -61h2l63 402h140l-134 -848h-140zM290 108q58 0 100 53q40 49 40 109q0 46 -26 79.5t-70 33.5q-58 0 -99 -51t-41 -110q0 -47 24 -79q26 -35 72 -35z" />
    <glyph glyph-name="e" unicode="e" horiz-adv-x="501" 
d="M521 223h-323q-3 -18 -3 -35q0 -97 79 -97q62 0 105 67l126 -21q-36 -72 -101.5 -112.5t-146.5 -40.5q-96 0 -152 54.5t-56 150.5q0 27 4 52q19 118 89 189q75 77 191 77q96 0 146 -53.5t50 -149.5q0 -36 -5 -64zM216 310h187q1 40 -19 69.5t-58 29.5q-40 0 -71 -30
q-27 -27 -39 -69z" />
    <glyph glyph-name="f" unicode="f" horiz-adv-x="303" 
d="M254 373l-59 -373h-140l59 373h-47l19 118h47l23 144q16 100 66 158q58 67 154 67q37 0 65 -16l-20 -125q-31 17 -54 17q-40 0 -58 -45q-9 -22 -17 -76l-19 -124h112l-19 -118h-112z" />
    <glyph glyph-name="g" unicode="g" horiz-adv-x="562" 
d="M590 491l-73 -461q-46 -292 -284 -292q-89 0 -150 46q-67 50 -67 136q0 11 1 22h148q-1 -39 21.5 -62.5t61.5 -23.5q65 0 96 53q19 34 31 108l5 32h-2q-59 -65 -145 -65q-89 0 -138 60q-46 55 -46 146q0 122 75 216q80 101 199 101q81 0 117 -63h2l8 47h140zM290 108
q58 0 99 51t41 110q0 47 -24 79q-27 35 -72 35q-58 0 -101 -53q-39 -49 -39 -109q0 -47 24 -78q27 -35 72 -35z" />
    <glyph glyph-name="h" unicode="h" horiz-adv-x="540" 
d="M184 848h140l-63 -398h2q51 57 137 57q143 0 143 -145q0 -31 -5 -62l-48 -300h-140l41 260q8 51 8 67q0 68 -62 68q-55 0 -82 -54q-17 -33 -27 -98l-38 -243h-140z" />
    <glyph glyph-name="i" unicode="i" horiz-adv-x="253" 
d="M275 491l-78 -491h-140l78 491h140zM251 780q30 0 50 -20t20 -50q0 -38 -29.5 -67t-67.5 -29q-31 0 -51 19.5t-20 50.5q0 38 30 67t68 29z" />
    <glyph glyph-name="j" unicode="j" horiz-adv-x="253" 
d="M275 491l-119 -753h-140l119 753h140zM251 780q30 0 50 -20t20 -50q0 -38 -29.5 -67t-67.5 -29q-31 0 -51 19.5t-20 50.5q0 38 30 67t68 29z" />
    <glyph glyph-name="k" unicode="k" horiz-adv-x="526" 
d="M324 848l-85 -537h2l176 180h182l-241 -216l179 -275h-184l-128 209h-2l-33 -209h-140l134 848h140z" />
    <glyph glyph-name="l" unicode="l" horiz-adv-x="239" 
d="M324 848l-134 -848h-140l134 848h140z" />
    <glyph glyph-name="m" unicode="m" horiz-adv-x="802" 
d="M268 491l-7 -44h2q51 60 129 60q94 0 129 -77q60 77 155 77q130 0 130 -137q0 -26 -6 -64l-48 -306h-140l41 258q7 44 7 69q0 68 -51 68q-50 0 -76 -58q-14 -30 -24 -96l-38 -241h-140l39 249q9 57 9 76q0 70 -52 70q-51 0 -76 -58q-12 -29 -23 -96l-38 -241h-140l78 491
h140z" />
    <glyph glyph-name="n" unicode="n" horiz-adv-x="540" 
d="M268 491l-7 -45h2q50 61 137 61q143 0 143 -145q0 -31 -5 -62l-48 -300h-140l41 260q8 51 8 67q0 68 -62 68q-55 0 -82 -54q-17 -33 -27 -98l-38 -243h-140l78 491h140z" />
    <glyph glyph-name="o" unicode="o" horiz-adv-x="548" 
d="M354 507q99 0 160 -57.5t61 -155.5q0 -24 -4 -49q-18 -115 -101 -188t-199 -73q-99 0 -159.5 57t-60.5 155q0 24 4 49q18 115 101 188.5t198 73.5zM335 383q-59 0 -99.5 -50.5t-40.5 -111.5q0 -47 24 -78q27 -35 72 -35q58 0 100 53q40 50 40 109q0 47 -24 78
q-26 35 -72 35z" />
    <glyph glyph-name="p" unicode="p" horiz-adv-x="565" 
d="M268 491l-7 -45q61 61 145 61q87 0 139 -64q48 -59 48 -148q0 -119 -76 -212q-81 -99 -197 -99q-87 0 -121 62h-2l-48 -308h-140l119 753h140zM309 108q58 0 100 53q40 49 40 109q0 46 -26 79.5t-70 33.5q-58 0 -99 -51t-41 -110q0 -47 24 -79q26 -35 72 -35z" />
    <glyph glyph-name="q" unicode="q" horiz-adv-x="565" 
d="M290 108q58 0 100 53q40 49 40 109q0 46 -26 79.5t-70 33.5q-58 0 -99 -51t-41 -110q0 -47 24 -79q26 -35 72 -35zM593 491l-119 -753h-140l48 308h-2q-54 -62 -142 -62q-89 0 -141 63q-47 59 -47 150q0 117 75 211q79 99 194 99q86 0 125 -61h2l7 45h140z" />
    <glyph glyph-name="r" unicode="r" horiz-adv-x="367" 
d="M268 491l-8 -51h2q54 67 132 67q27 0 56 -12l-37 -130q-23 18 -55 18q-65 0 -98 -52q-23 -36 -35 -110l-35 -221h-140l78 491h140z" />
    <glyph glyph-name="s" unicode="s" horiz-adv-x="410" 
d="M434 456l-73 -81q-30 34 -68 34q-19 0 -34.5 -12t-18.5 -30q-4 -22 34 -43q28 -12 56 -25q81 -37 81 -112q0 -16 -2 -29q-13 -79 -75 -126.5t-144 -47.5q-105 0 -160 82l78 83q42 -57 95 -57q24 0 42 15t22 38q5 29 -45 58q-37 17 -75 34q-46 31 -46 85q0 13 2 26
q11 69 61.5 114t119.5 45q100 0 150 -51z" />
    <glyph glyph-name="t" unicode="t" horiz-adv-x="274" 
d="M266 373l-59 -373h-140l59 373h-48l19 118h48l26 166h140l-26 -166h86l-19 -118h-86z" />
    <glyph glyph-name="u" unicode="u" horiz-adv-x="535" 
d="M125 491h140l-42 -266q-5 -32 -5 -47q0 -76 65 -76q81 0 100 123l42 266h140l-46 -289q-35 -218 -255 -218q-190 0 -190 164q0 23 5 54z" />
    <glyph glyph-name="v" unicode="v" horiz-adv-x="488" 
d="M214 491l71 -277l145 277h153l-306 -501h-72l-145 501h154z" />
    <glyph glyph-name="w" unicode="w" horiz-adv-x="783" 
d="M213 491l57 -283l167 299h67l73 -303l150 287h152l-308 -501h-71l-57 299l-165 -299h-72l-146 501h153z" />
    <glyph glyph-name="x" unicode="x" horiz-adv-x="549" 
d="M234 267l-133 224h170l71 -127l98 127h172l-210 -224l165 -267h-172l-99 171l-140 -171h-174z" />
    <glyph glyph-name="y" unicode="y" horiz-adv-x="520" 
d="M203 75l-143 416h159l73 -279l170 279h156l-476 -753h-154z" />
    <glyph glyph-name="z" unicode="z" horiz-adv-x="481" 
d="M251 118h233l-19 -118h-466l310 373h-212l19 118h443z" />
    <glyph glyph-name="braceleft" unicode="{" horiz-adv-x="389" 
d="M116 300l11 73q80 33 99 151l29 182q7 41 35 83q34 49 71 49h92l-15 -91h-40q-21 0 -30 -19q-6 -12 -11 -43l-28 -177q-19 -120 -103 -172q53 -36 53 -127q0 -19 -4 -44l-28 -177q-4 -25 -4 -34q0 -28 25 -28h40l-14 -91h-92q-31 0 -50 40q-16 32 -16 66q0 13 2 26
l29 182q3 19 3 44q0 81 -54 107z" />
    <glyph glyph-name="bar" unicode="|" horiz-adv-x="538" 
d="M462 848l-134 -848h-118l134 848h118z" />
    <glyph glyph-name="braceright" unicode="}" horiz-adv-x="389" 
d="M380 373l-11 -73q-80 -33 -99 -151l-29 -182q-6 -40 -36 -82q-34 -50 -70 -50h-92l14 91h40q21 0 30 19q6 12 11 43l28 177q12 73 53 126q24 30 50 45q-52 41 -52 128q0 25 3 44l28 177q4 25 4 34q0 28 -25 28h-40l15 91h92q31 0 50 -40q16 -32 16 -66q0 -13 -2 -26
l-29 -182q-4 -25 -4 -44q0 -81 55 -107z" />
    <glyph glyph-name="asciitilde" unicode="~" 
d="M503 363v0l85 -90q-46 -64 -75 -92q-52 -51 -99 -51q-28 0 -56 15q-12 7 -44 29q-22 16 -43 32q-31 21 -47 21q-24 0 -68 -77l-85 88q25 31 78 91q50 54 98 54q49 0 104 -51q50 -47 86 -47q26 0 66 78z" />
    <glyph glyph-name="euro" horiz-adv-x="498" 
d="M522 633l-23 -156l-48 6q0 157 -94 157q-103 0 -161 -211h172l-21 -48h-164q-6 -24 -16 -73h147l-21 -47h-134q-6 -41 -6 -74q0 -56 21 -91q26 -43 78 -43q58 0 101 68q24 38 51 119l55 -10l-54 -188q-77 -53 -159 -53q-111 0 -166 84q-47 71 -47 188h-74l21 47h56
q3 25 12 73h-66l21 48h59q41 112 108 183q83 88 187 88q94 0 165 -67z" />
    <glyph glyph-name="exclamdown" unicode="&#xa1;" horiz-adv-x="325" 
d="M243 514q33 0 55 -20.5t22 -53.5q0 -41 -32 -72.5t-73 -31.5q-33 0 -54.5 21.5t-21.5 54.5q0 41 31.5 71.5t72.5 30.5zM49 -264l85 537h142l-85 -537h-142z" />
    <glyph glyph-name="cent" unicode="&#xa2;" 
d="M504 724l-14 -87q55 -10 79 -25l-22 -141q-38 50 -93 50q-64 0 -107 -53t-43 -118q0 -50 28.5 -81.5t77.5 -31.5q64 0 105 50h2l-22 -141q-41 -20 -87 -25l-15 -93h-73l15 91q-83 7 -130 70q-44 58 -44 143q0 115 72 204t184 104l14 84h73z" />
    <glyph glyph-name="sterling" unicode="&#xa3;" 
d="M119 0l-106 19q69 142 169 146q15 29 20 59q7 44 -8 84h-131l10 66h93q-19 57 -19 115q0 119 87.5 202t207.5 83q200 0 200 -203q0 -26 -3 -55l-150 -17l7 34q3 15 3 23q0 38 -22 66.5t-59 28.5q-58 0 -94 -52q-33 -47 -33 -107q0 -31 23 -108l3 -10h136l-10 -66h-112
q0 -30 -25 -154l63 -27q37 -16 61 -16q38 0 64 59l100 -22q-63 -156 -178 -156q-39 0 -112.5 29t-109.5 29q-51 0 -75 -50z" />
    <glyph glyph-name="currency" unicode="&#xa4;" 
d="M376 550q87 0 134 -44l71 57l62 -74l-68 -55q20 -40 20 -90q0 -25 -3 -44q-12 -76 -60 -134l52 -55l-86 -74l-53 57q-62 -44 -148 -44q-87 0 -134 44l-71 -57l-62 74l68 55q-20 40 -20 90q0 19 4 44q12 77 59 134l-52 55l86 74l53 -57q62 44 148 44zM312 146q67 0 120 44
t64 110q2 12 2 27q0 59 -38.5 93t-98.5 34q-76 0 -130.5 -51.5t-54.5 -127.5q0 -58 39 -93.5t97 -35.5z" />
    <glyph glyph-name="yen" unicode="&#xa5;" 
d="M366 492l180 262h171l-222 -305h134l-10 -66h-175l-27 -37l-6 -36h196l-10 -66h-196l-39 -244h-147l39 244h-196l10 66h196l6 36l-18 37h-172l10 66h134l-126 305h171z" />
    <glyph glyph-name="brokenbar" unicode="&#xa6;" horiz-adv-x="538" 
d="M382 339l-54 -339h-118l54 339h118zM462 848l-53 -339h-118l53 339h118z" />
    <glyph glyph-name="section" unicode="&#xa7;" horiz-adv-x="577" 
d="M290 342l126 -85q50 37 50 91q0 24 -17 42q-7 7 -37 28l-127 87q-53 -35 -53 -91q0 -25 18 -43q6 -6 40 -29zM590 684h-125q1 32 -16 52.5t-48 20.5t-53 -27.5t-22 -59.5q0 -28 22 -49q13 -13 46 -33l98 -60q53 -32 74 -57q30 -35 30 -83q0 -52 -27.5 -103.5t-70.5 -86.5
q24 -34 24 -89q0 -104 -76.5 -172.5t-181.5 -68.5q-88 0 -143 45q-60 48 -60 134q0 25 6 52h138q-2 -12 -2 -24q0 -40 21 -67t60 -27t67.5 31t28.5 71q0 29 -22 50q-13 12 -48 33l-121 72q-88 52 -88 129q0 19 2 32q14 90 100 163q-18 34 -18 81q0 94 70 156q67 61 162 61
q76 0 123 -38q52 -41 52 -115q0 -11 -2 -23z" />
    <glyph glyph-name="dieresis" unicode="&#xa8;" horiz-adv-x="400" 
d="M216 762q29 0 48.5 -19t19.5 -48q0 -37 -28.5 -65t-65.5 -28q-29 0 -48.5 19t-19.5 48q0 37 28.5 65t65.5 28zM427 762q29 0 48.5 -19t19.5 -48q0 -37 -28.5 -65t-65.5 -28q-29 0 -48.5 19t-19.5 48q0 37 28.5 65t65.5 28z" />
    <glyph glyph-name="copyright" unicode="&#xa9;" horiz-adv-x="800" 
d="M397 -20q-146 0 -241 93t-95 239q0 33 5 65q26 166 158 281.5t299 115.5q146 0 241 -93t95 -239q0 -34 -5 -65q-27 -166 -158.5 -281.5t-298.5 -115.5zM509 688q-146 0 -253.5 -108.5t-107.5 -254.5q0 -114 74 -186.5t188 -72.5q146 0 254 108.5t108 254.5
q0 114 -74 186.5t-189 72.5zM675 459h-88q-3 37 -35 58q-28 19 -67 19q-68 0 -116 -57t-48 -126q0 -53 31 -91t83 -38q41 0 76.5 20.5t50.5 56.5h88q-27 -75 -88 -119t-140 -44q-85 0 -136.5 57t-51.5 143q0 111 78 197.5t187 86.5q78 0 125.5 -43t50.5 -120z" />
    <glyph glyph-name="ordfeminine" unicode="&#xaa;" horiz-adv-x="339" 
d="M396 406l-11 -74h-324l11 74h324zM453 764l-47 -294h-89l5 27h-2q-35 -37 -92 -37t-90.5 36t-33.5 94q0 73 50.5 128.5t122.5 55.5q55 0 83 -37l4 27h89zM261 534q36 0 63 30t27 66q0 30 -17.5 50t-46.5 20q-36 0 -63 -29.5t-27 -66.5q0 -29 17.5 -49.5t46.5 -20.5z" />
    <glyph glyph-name="guillemotleft" unicode="&#xab;" horiz-adv-x="514" 
d="M390 320l96 -182l-96 -58l-121 240l197 243l77 -56zM190 320l96 -182l-96 -58l-121 240l197 243l77 -56z" />
    <glyph glyph-name="logicalnot" unicode="&#xac;" 
d="M449 142l28 173h-394l19 118h512l-47 -291h-118z" />
    <glyph glyph-name="sfthyphen" unicode="&#xad;" horiz-adv-x="338" 
d="M8 174l33 122h246l-33 -122h-246z" />
    <glyph glyph-name="registered" unicode="&#xae;" horiz-adv-x="800" 
d="M397 -20q-146 0 -241 93t-95 239q0 33 5 65q26 166 158 281.5t299 115.5q146 0 241 -93t95 -239q0 -34 -5 -65q-27 -166 -158.5 -281.5t-298.5 -115.5zM509 688q-146 0 -253.5 -108.5t-107.5 -254.5q0 -114 74 -186.5t188 -72.5q146 0 254 108.5t108 254.5
q0 114 -74 186.5t-189 72.5zM536 337l74 -164h-94l-70 164h-72l-26 -164h-86l66 412h200q66 0 97 -14q46 -21 46 -79q0 -14 -3 -33q-18 -114 -132 -122zM386 411h116q75 0 83 55q5 29 -26 39q-19 6 -62 6h-95z" />
    <glyph glyph-name="macron" unicode="&#xaf;" horiz-adv-x="400" 
d="M128 754h382l-14 -88h-382z" />
    <glyph glyph-name="macron" unicode="&#x2c9;" horiz-adv-x="400" 
d="M128 754h382l-14 -88h-382z" />
    <glyph glyph-name="degree" unicode="&#xb0;" horiz-adv-x="400" 
d="M275 474q-56 0 -92 35.5t-36 91.5q0 69 53.5 121t122.5 52q55 0 91.5 -36t36.5 -91q0 -69 -53.5 -121t-122.5 -52zM311 706q-35 0 -62.5 -24t-31.5 -58q-5 -35 14.5 -58.5t55.5 -23.5q38 0 66.5 28.5t28.5 66.5q0 30 -20.5 49.5t-50.5 19.5z" />
    <glyph glyph-name="plusminus" unicode="&#xb1;" 
d="M33 0l19 118h512l-19 -118h-512zM330 630h118l-27 -172h197l-19 -118h-197l-27 -172h-118l27 172h-197l19 118h197z" />
    <glyph glyph-name="twosuperior" unicode="&#xb2;" horiz-adv-x="346" 
d="M238 379h160l-12 -77h-330l148 145q56 55 78 80q50 57 55 89q1 6 1 17q0 57 -53 57q-29 0 -49 -23.5t-23 -54.5h-101q16 70 65 112t120 42q58 0 97 -32q41 -35 41 -91q0 -83 -113 -187z" />
    <glyph glyph-name="threesuperior" unicode="&#xb3;" horiz-adv-x="346" 
d="M222 644h-91q16 61 61.5 95.5t109.5 34.5q53 0 86 -25q36 -28 36 -79q0 -81 -64 -118q48 -20 48 -87q0 -76 -55.5 -121.5t-132.5 -45.5q-65 0 -105 39.5t-34 103.5h96q-3 -29 13.5 -47.5t45.5 -18.5t51 21t27 51t-11.5 52t-46.5 20l-18 -1l10 63h11q62 0 72 63
q4 25 -9 41t-38 16q-24 0 -41 -16.5t-21 -40.5z" />
    <glyph glyph-name="acute" unicode="&#xb4;" horiz-adv-x="380" 
d="M322 774l92 -62l-175 -150l-64 44z" />
    <glyph glyph-name="mu" unicode="&#xb5;" horiz-adv-x="535" 
d="M125 491h140l-42 -266q-5 -32 -5 -47q0 -76 65 -76q81 0 100 123l42 266h140l-46 -289q-35 -218 -255 -218q-35 0 -75 30l-43 -276h-140z" />
    <glyph glyph-name="mu" unicode="&#x3bc;" horiz-adv-x="535" 
d="M125 491h140l-42 -266q-5 -32 -5 -47q0 -76 65 -76q81 0 100 123l42 266h140l-46 -289q-35 -218 -255 -218q-35 0 -75 30l-43 -276h-140z" />
    <glyph glyph-name="paragraph" unicode="&#xb6;" horiz-adv-x="577" 
d="M677 754l-14 -94h-61l-129 -813h-104l129 813h-62l-129 -813h-104l69 436q-83 0 -128 51t-45 135q0 107 74 194q77 91 182 91h322z" />
    <glyph glyph-name="ch270" unicode="&#xb7;" horiz-adv-x="249" 
d="M38 348q0 34 23 57t57 23t57.5 -23t23.5 -57t-23.5 -57.5t-57.5 -23.5t-57 23.5t-23 57.5z" />
    <glyph glyph-name="ch270" unicode="&#x2219;" horiz-adv-x="249" 
d="M38 348q0 34 23 57t57 23t57.5 -23t23.5 -57t-23.5 -57.5t-57.5 -23.5t-57 23.5t-23 57.5z" />
    <glyph glyph-name="cedilla" unicode="&#xb8;" horiz-adv-x="380" 
d="M190 -20l84 -47l-138 -139l-68 38z" />
    <glyph glyph-name="onesuperior" unicode="&#xb9;" horiz-adv-x="346" 
d="M264 678h-64l12 76h160l-71 -452h-96z" />
    <glyph glyph-name="ordmasculine" unicode="&#xba;" horiz-adv-x="339" 
d="M293 774q63 0 102 -33q43 -36 43 -97q0 -85 -66 -140q-54 -44 -129 -44q-63 0 -103 32q-43 35 -43 97q0 86 68 141q54 44 128 44zM281 700q-37 0 -63 -29t-26 -67q0 -29 17.5 -49.5t45.5 -20.5q37 0 63 30.5t26 67.5q0 29 -17 48.5t-46 19.5zM396 406l-11 -74h-324l11 74
h324z" />
    <glyph glyph-name="guillemotright" unicode="&#xbb;" horiz-adv-x="514" 
d="M72 138l154 182l-95 187l95 56l121 -243l-197 -240zM272 138l154 182l-95 187l95 56l121 -243l-197 -240z" />
    <glyph glyph-name="onequarter" unicode="&#xbc;" horiz-adv-x="867" 
d="M707 780l62 -34l-527 -777l-63 35zM211 678h-64l12 76h160l-71 -452h-96zM799 151h52l-11 -71h-52l-13 -80h-90l13 80h-215l6 39l272 342h87zM709 151l28 180h-2l-131 -180h105z" />
    <glyph glyph-name="onehalf" unicode="&#xbd;" horiz-adv-x="867" 
d="M661 780l62 -34l-527 -777l-63 35zM211 678h-64l12 76h160l-71 -452h-96zM679 77h160l-12 -77h-330l148 145q62 60 79 80q55 62 55 106q0 57 -53 57q-29 0 -49 -23.5t-23 -54.5h-101q17 71 65 112.5t120 41.5q58 0 97 -32q41 -35 41 -91q0 -83 -113 -187z" />
    <glyph glyph-name="threequarters" unicode="&#xbe;" horiz-adv-x="867" 
d="M759 780l62 -34l-527 -777l-63 35zM799 151h52l-11 -71h-52l-13 -80h-90l13 80h-215l6 39l272 342h87zM709 151l28 180h-2l-131 -180h105zM251 644h-91q16 61 61.5 95.5t109.5 34.5q53 0 86 -25q36 -28 36 -79q0 -81 -64 -118q48 -20 48 -87q0 -76 -55.5 -121.5
t-132.5 -45.5q-65 0 -105 39.5t-34 103.5h96q-3 -29 13.5 -47.5t45.5 -18.5t51 21t27 51t-11.5 52t-46.5 20l-18 -1l10 63h11q62 0 72 63q4 25 -9 41t-38 16q-24 0 -41 -16.5t-21 -40.5z" />
    <glyph glyph-name="questiondown" unicode="&#xbf;" horiz-adv-x="487" 
d="M379 253l-31 -199q-16 4 -36 4q-58 0 -101 -35q-46 -37 -46 -94q0 -71 57 -71q32 0 54 26q19 23 25 56l2 12h146q-9 -91 -81.5 -153.5t-164.5 -62.5q-81 0 -132.5 48.5t-51.5 129.5q0 86 56.5 155t140.5 88l23 96h140zM348 514q33 0 55 -20.5t22 -53.5q0 -41 -32 -72.5
t-73 -31.5q-33 0 -54.5 21.5t-21.5 54.5q0 41 31.5 71.5t72.5 30.5z" />
    <glyph glyph-name="Agrave" unicode="&#xc0;" horiz-adv-x="676" 
d="M464 845l-154 124q8 3 20 13q2 3 -5 12.5t-7 11.5q0 1 1 2l69 3l75 -112zM685 0h-157l-33 159h-262l-87 -159h-155l417 774h114zM473 279l-50 274h-2l-127 -274h179z" />
    <glyph glyph-name="Aacute" unicode="&#xc1;" horiz-adv-x="676" 
d="M495 159h-262l-87 -159h-155l417 774h114l163 -774h-157zM473 279l-50 274h-2l-127 -274h179zM464 845l1 54l75 112l69 -3q1 -1 1 -2q0 -2 -7 -11.5t-5 -12.5q1 -2 20 -13z" />
    <glyph glyph-name="Acircumflex" unicode="&#xc2;" horiz-adv-x="676" 
d="M495 159h-262l-87 -159h-155l417 774h114l163 -774h-157zM473 279l-50 274h-2l-127 -274h179zM304 842l185 115l144 -115l-80 -37l-80 69l-107 -69z" />
    <glyph glyph-name="Atilde" unicode="&#xc3;" horiz-adv-x="676" 
d="M495 159h-262l-87 -159h-155l417 774h114l163 -774h-157zM473 279l-50 274h-2l-127 -274h179zM365 846l-46 -11l-15 9q84 100 157 100q19 0 45 -14q33 -14 35 -14q18 1 59 31l48 11l14 -10q-98 -102 -168 -103q-14 0 -40 15q-19 14 -35 14q-22 0 -54 -28z" />
    <glyph glyph-name="Adieresis" unicode="&#xc4;" horiz-adv-x="676" 
d="M495 159h-262l-87 -159h-155l417 774h114l163 -774h-157zM473 279l-50 274h-2l-127 -274h179zM396 1025q29 0 48.5 -19t19.5 -48q0 -37 -28.5 -65t-65.5 -28q-29 0 -48.5 19t-19.5 48q0 37 28.5 65t65.5 28zM607 1025q29 0 48.5 -19t19.5 -48q0 -37 -28.5 -65t-65.5 -28
q-29 0 -48.5 19t-19.5 48q0 37 28.5 65t65.5 28z" />
    <glyph glyph-name="Aring" unicode="&#xc5;" horiz-adv-x="676" 
d="M495 159h-262l-87 -159h-155l417 774h114l163 -774h-157zM473 279l-50 274h-2l-127 -274h179zM503 1037q37 0 61 -23.5t24 -60.5q0 -46 -35.5 -81.5t-81.5 -35.5q-37 0 -61.5 24t-24.5 61q0 46 36 81t82 35zM493 978q-17 0 -30.5 -12t-16.5 -29t7 -29.5t27 -12.5
t31.5 12.5t16.5 29.5t-8 29t-27 12z" />
    <glyph glyph-name="AE" unicode="&#xc6;" horiz-adv-x="921" 
d="M492 159h-261l-84 -159h-156l412 754h372l26 -128h-250l35 -167h246l25 -128h-246l43 -203h250l25 -128h-403zM471 279l-52 256h-2l-124 -256h178z" />
    <glyph glyph-name="Ccedilla" unicode="&#xc7;" horiz-adv-x="601" 
d="M674 730l-28 -176q-53 80 -154 80q-113 0 -192 -98q-74 -92 -74 -208q0 -88 47 -146q51 -62 137 -62q97 0 180 80l-28 -175q-102 -45 -178 -45q-139 0 -227 95q-85 92 -85 232q0 32 5 64q26 165 147 281q125 122 289 122q87 0 161 -44zM301 -20l84 -47l-138 -139l-68 38z
" />
    <glyph glyph-name="Egrave" unicode="&#xc8;" horiz-adv-x="488" 
d="M543 626h-243l-26 -166h234l-20 -128h-234l-33 -204h243l-20 -128h-390l119 754h390zM369 826l-154 124q8 3 20 13q2 3 -5 12.5t-7 11.5q0 1 1 2l69 3l75 -112z" />
    <glyph glyph-name="Eacute" unicode="&#xc9;" horiz-adv-x="488" 
d="M543 626h-243l-26 -166h234l-20 -128h-234l-33 -204h243l-20 -128h-390l119 754h390zM369 825l1 54l75 112l69 -3q1 -1 1 -2q0 -2 -7 -11.5t-5 -12.5q1 -2 20 -13z" />
    <glyph glyph-name="Ecircumflex" unicode="&#xca;" horiz-adv-x="488" 
d="M543 626h-243l-26 -166h234l-20 -128h-234l-33 -204h243l-20 -128h-390l119 754h390zM203 842l185 115l144 -115l-80 -37l-80 69l-107 -69z" />
    <glyph glyph-name="Edieresis" unicode="&#xcb;" horiz-adv-x="488" 
d="M543 626h-243l-26 -166h234l-20 -128h-234l-33 -204h243l-20 -128h-390l119 754h390zM302 1025q29 0 48.5 -19t19.5 -48q0 -37 -28.5 -65t-65.5 -28q-29 0 -48.5 19t-19.5 48q0 37 28.5 65t65.5 28zM513 1025q29 0 48.5 -19t19.5 -48q0 -37 -28.5 -65t-65.5 -28
q-29 0 -48.5 19t-19.5 48q0 37 28.5 65t65.5 28z" />
    <glyph glyph-name="Igrave" unicode="&#xcc;" horiz-adv-x="254" 
d="M320 754l-119 -754h-147l119 754h147zM246 826l-154 124q8 3 20 13q2 3 -5 12.5t-7 11.5q0 1 1 2l69 3l75 -112z" />
    <glyph glyph-name="Iacute" unicode="&#xcd;" horiz-adv-x="254" 
d="M320 754l-119 -754h-147l119 754h147zM246 825l1 54l75 112l69 -3q1 -1 1 -2q0 -2 -7 -11.5t-5 -12.5q1 -2 20 -13z" />
    <glyph glyph-name="Icircumflex" unicode="&#xce;" horiz-adv-x="254" 
d="M320 754l-119 -754h-147l119 754h147zM97 883l195 154l145 -154l-70 -66l-94 104l-126 -104z" />
    <glyph glyph-name="Idieresis" unicode="&#xcf;" horiz-adv-x="254" 
d="M320 754l-119 -754h-147l119 754h147zM185 1025q29 0 48.5 -19t19.5 -48q0 -37 -28.5 -65t-65.5 -28q-29 0 -48.5 19t-19.5 48q0 37 28.5 65t65.5 28zM396 1025q29 0 48.5 -19t19.5 -48q0 -37 -28.5 -65t-65.5 -28q-29 0 -48.5 19t-19.5 48q0 37 28.5 65t65.5 28z" />
    <glyph glyph-name="Eth" unicode="&#xd0;" horiz-adv-x="646" 
d="M54 0l53 337h-72l19 120h72l47 297h210q140 0 225 -83.5t85 -223.5q0 -39 -5 -71q-25 -159 -145.5 -267.5t-279.5 -108.5h-209zM300 626l-27 -169h113l-19 -120h-113l-33 -209h24q251 0 291 249q5 31 5 62q0 187 -217 187h-24z" />
    <glyph glyph-name="Ntilde" unicode="&#xd1;" horiz-adv-x="759" 
d="M54 0l123 774h106l313 -527h2l80 507h147l-121 -769h-106l-314 527h-2l-81 -512h-147zM410 867v0h-82q12 51 45 92q39 47 86 47q25 0 73 -21.5t62 -21.5q26 0 54 42h83q-19 -56 -52 -94q-41 -47 -92 -47q-21 0 -65 22t-63 22q-31 0 -49 -41z" />
    <glyph glyph-name="Ograve" unicode="&#xd2;" horiz-adv-x="782" 
d="M388 -20q-143 0 -229.5 92t-86.5 236q0 32 6 70q26 164 147 278q126 118 289 118q143 0 229 -92.5t86 -236.5q0 -202 -152 -346q-126 -119 -289 -119zM491 629q-104 0 -183.5 -87.5t-79.5 -192.5q0 -86 48 -151q53 -73 135 -73q90 0 171 86q77 80 91 173q3 20 3 39
q0 86 -49 144q-52 62 -136 62zM526 846l-154 124q8 3 20 13q2 3 -5 12.5t-7 11.5q0 1 1 2l69 3l75 -112z" />
    <glyph glyph-name="Oacute" unicode="&#xd3;" horiz-adv-x="782" 
d="M388 -20q-143 0 -229.5 92t-86.5 236q0 32 6 70q26 164 147 278q126 118 289 118q143 0 229 -92.5t86 -236.5q0 -202 -152 -346q-126 -119 -289 -119zM491 629q-104 0 -183.5 -87.5t-79.5 -192.5q0 -86 48 -151q53 -73 135 -73q90 0 171 86q77 80 91 173q3 20 3 39
q0 86 -49 144q-52 62 -136 62zM513 845l1 54l75 112l69 -3q1 -1 1 -2q0 -2 -7 -11.5t-5 -12.5q1 -2 20 -13z" />
    <glyph glyph-name="Ocircumflex" unicode="&#xd4;" horiz-adv-x="782" 
d="M388 -20q-143 0 -229.5 92t-86.5 236q0 32 6 70q26 164 147 278q126 118 289 118q143 0 229 -92.5t86 -236.5q0 -202 -152 -346q-126 -119 -289 -119zM491 629q-104 0 -183.5 -87.5t-79.5 -192.5q0 -86 48 -151q53 -73 135 -73q90 0 171 86q77 80 91 173q3 20 3 39
q0 86 -49 144q-52 62 -136 62zM357 843l185 115l144 -115l-80 -37l-80 69l-107 -69z" />
    <glyph glyph-name="Otilde" unicode="&#xd5;" horiz-adv-x="782" 
d="M388 -20q-143 0 -229.5 92t-86.5 236q0 32 6 70q26 164 147 278q126 118 289 118q143 0 229 -92.5t86 -236.5q0 -202 -152 -346q-126 -119 -289 -119zM491 629q-104 0 -183.5 -87.5t-79.5 -192.5q0 -86 48 -151q53 -73 135 -73q90 0 171 86q77 80 91 173q3 20 3 39
q0 86 -49 144q-52 62 -136 62zM418 846l-46 -11l-15 9q84 100 157 100q19 0 45 -14q33 -14 35 -14q18 1 59 31l48 11l14 -10q-98 -102 -168 -103q-14 0 -40 15q-19 14 -35 14q-22 0 -54 -28z" />
    <glyph glyph-name="Odieresis" unicode="&#xd6;" horiz-adv-x="782" 
d="M388 -20q-142 0 -229 92.5t-87 235.5q0 33 6 70q26 163 149.5 279.5t286.5 116.5q142 0 230 -94q85 -91 85 -234q0 -36 -5 -68q-26 -165 -147 -279q-125 -119 -289 -119zM491 629q-104 0 -183.5 -87.5t-79.5 -192.5q0 -85 48 -151q53 -73 135 -73q99 0 184 100
q81 96 81 198q0 85 -49 144q-52 62 -136 62zM449 1025q29 0 48.5 -19t19.5 -48q0 -37 -28.5 -65t-65.5 -28q-29 0 -48.5 19t-19.5 48q0 37 28.5 65t65.5 28zM660 1025q29 0 48.5 -19t19.5 -48q0 -37 -28.5 -65t-65.5 -28q-29 0 -48.5 19t-19.5 48q0 37 28.5 65t65.5 28z" />
    <glyph glyph-name="multiply" unicode="&#xd7;" 
d="M101 428l97 84l146 -173l198 173l71 -84l-199 -172l144 -172l-97 -84l-145 173l-199 -173l-71 84l201 172z" />
    <glyph glyph-name="Oslash" unicode="&#xd8;" horiz-adv-x="782" 
d="M894 722l-104 -99q39 -81 39 -177q0 -184 -128 -323q-131 -143 -313 -143q-135 0 -222 81l-105 -96l-57 65l104 95q-38 67 -38 160q0 43 8 93q26 164 147 278q126 119 289 118q142 -1 217 -85l104 97zM239 241l368 340q-43 48 -116 48q-94 0 -171 -77q-74 -72 -89 -168
q-6 -37 -6 -64q0 -45 14 -79zM656 509l-369 -342q45 -42 124 -42q90 0 171 86q76 80 91 173q2 12 2 28q0 49 -19 97z" />
    <glyph glyph-name="Ugrave" unicode="&#xd9;" horiz-adv-x="660" 
d="M98 303l71 451h147l-66 -422q-9 -58 -9 -95q0 -129 106 -129q83 0 126 77q28 50 43 147l66 422h147l-71 -451q-23 -148 -101 -231q-86 -92 -230 -92q-236 0 -236 238q0 41 7 85zM447 816l-154 124q8 3 20 13q2 3 -5 12.5t-7 11.5q0 1 1 2l69 3l75 -112z" />
    <glyph glyph-name="Uacute" unicode="&#xda;" horiz-adv-x="660" 
d="M98 303l71 451h147l-66 -422q-9 -58 -9 -95q0 -129 106 -129q83 0 126 77q28 50 43 147l66 422h147l-71 -451q-23 -148 -101 -231q-86 -92 -230 -92q-236 0 -236 238q0 41 7 85zM447 815l1 54l75 112l69 -3q1 -1 1 -2q0 -2 -7 -11.5t-5 -12.5q1 -2 20 -13z" />
    <glyph glyph-name="Ucircumflex" unicode="&#xdb;" horiz-adv-x="660" 
d="M98 303l71 451h147l-66 -422q-10 -64 -10 -94q0 -130 107 -130q84 0 126 77q28 51 43 147l66 422h147l-71 -451q-23 -147 -101 -231q-87 -92 -230 -92q-236 0 -236 238q0 41 7 85zM300 883l195 154l145 -154l-70 -66l-94 104l-126 -104z" />
    <glyph glyph-name="Udieresis" unicode="&#xdc;" horiz-adv-x="660" 
d="M98 303l71 451h147l-66 -422q-10 -64 -10 -94q0 -130 107 -130q84 0 126 77q28 51 43 147l66 422h147l-71 -451q-23 -147 -101 -231q-87 -92 -230 -92q-236 0 -236 238q0 41 7 85zM388 1025q29 0 48.5 -19t19.5 -48q0 -37 -28.5 -65t-65.5 -28q-29 0 -48.5 19t-19.5 48
q0 37 28.5 65t65.5 28zM599 1025q29 0 48.5 -19t19.5 -48q0 -37 -28.5 -65t-65.5 -28q-29 0 -48.5 19t-19.5 48q0 37 28.5 65t65.5 28z" />
    <glyph glyph-name="Yacute" unicode="&#xdd;" horiz-adv-x="587" 
d="M273 346l-170 408h171l91 -262l185 262h172l-302 -408l-55 -346h-147zM410 805l1 54l75 112l69 -3q1 -1 1 -2q0 -2 -7 -11.5t-5 -12.5q1 -2 20 -13z" />
    <glyph glyph-name="Thorn" unicode="&#xde;" horiz-adv-x="528" 
d="M227 162l-26 -162h-147l119 754h147l-19 -120h53q229 0 229 -179q0 -23 -5 -55q-37 -238 -278 -238h-73zM282 512l-36 -228h30q71 0 104 23q39 27 49 94q2 13 2 30q0 51 -39 69q-25 12 -84 12h-26z" />
    <glyph glyph-name="germandbls" unicode="&#xdf;" horiz-adv-x="561" 
d="M50 0l96 604q41 256 262 256q85 0 137 -46.5t52 -130.5q0 -22 -3 -41q-16 -102 -102 -162q98 -45 98 -175q0 -25 -4 -51q-19 -122 -106 -196t-211 -74h-20l20 122q73 -2 124 55q50 54 50 128q0 56 -34.5 88.5t-91.5 33.5l19 118q54 -1 89.5 37t35.5 93q0 35 -19.5 57
t-53.5 22q-60 0 -87 -73q-11 -29 -25 -119l-86 -546h-140z" />
    <glyph glyph-name="agrave" unicode="&#xe0;" horiz-adv-x="565" 
d="M592 491l-78 -491h-138l7 45h-2q-56 -61 -143 -61q-90 0 -141 63q-47 58 -47 150q0 118 74 211q79 99 195 99q85 0 127 -62l8 46h138zM290 108q57 0 100 53q41 49 41 108q0 48 -24 79q-27 35 -73 35q-58 0 -99 -50.5t-41 -110.5q0 -47 24 -79q26 -35 72 -35zM333 588
l-146 118q8 3 19 12q2 3 -5 12.5t-7 10.5q0 2 1 2l66 3l71 -107z" />
    <glyph glyph-name="aacute" unicode="&#xe1;" horiz-adv-x="565" 
d="M592 491l-78 -491h-138l7 45h-2q-56 -61 -143 -61q-90 0 -141 63q-47 58 -47 150q0 118 74 211q79 99 195 99q85 0 127 -62l8 46h138zM290 108q57 0 100 53q41 49 41 108q0 48 -24 79q-27 35 -73 35q-58 0 -99 -50.5t-41 -110.5q0 -47 24 -79q26 -35 72 -35zM333 588
l1 51l71 107l66 -3q1 -1 1 -2t-7 -10.5t-5 -12.5q8 -4 19 -12z" />
    <glyph glyph-name="acircumflex" unicode="&#xe2;" horiz-adv-x="565" 
d="M592 491l-78 -491h-138l7 45h-2q-56 -61 -143 -61q-90 0 -141 63q-47 58 -47 150q0 118 74 211q79 99 195 99q85 0 127 -62l8 46h138zM290 108q57 0 100 53q41 49 41 108q0 48 -24 79q-27 35 -73 35q-58 0 -99 -50.5t-41 -110.5q0 -47 24 -79q26 -35 72 -35zM204 575
l176 109l137 -109l-76 -35l-76 65l-102 -65z" />
    <glyph glyph-name="atilde" unicode="&#xe3;" horiz-adv-x="565" 
d="M592 491l-78 -491h-138l7 45h-2q-56 -61 -143 -61q-90 0 -141 63q-47 58 -47 150q0 118 74 211q79 99 195 99q85 0 127 -62l8 46h138zM290 108q57 0 100 53q41 49 41 108q0 48 -24 79q-27 35 -73 35q-58 0 -99 -50.5t-41 -110.5q0 -47 24 -79q26 -35 72 -35zM261 589
l-44 -10l-14 8q79 95 149 95q14 0 43 -13t33 -13q17 1 56 29l45 11l14 -10q-95 -97 -160 -98q-12 0 -36 14t-35 14q-22 0 -51 -27z" />
    <glyph glyph-name="adieresis" unicode="&#xe4;" horiz-adv-x="565" 
d="M592 491l-78 -491h-138l7 45h-2q-56 -61 -143 -61q-89 0 -141 63q-47 59 -47 150q0 117 75 211q79 99 194 99q85 0 127 -62l8 46h138zM290 108q58 0 101 53q40 50 40 109q0 46 -26 79.5t-71 33.5q-58 0 -99 -51t-41 -110q0 -47 24 -79q26 -35 72 -35zM299 762
q29 0 48.5 -19t19.5 -48q0 -37 -28.5 -65t-65.5 -28q-29 0 -48.5 19t-19.5 48q0 37 28.5 65t65.5 28zM510 762q29 0 48.5 -19t19.5 -48q0 -37 -28.5 -65t-65.5 -28q-29 0 -48.5 19t-19.5 48q0 37 28.5 65t65.5 28z" />
    <glyph glyph-name="aring" unicode="&#xe5;" horiz-adv-x="565" 
d="M592 491l-78 -491h-138l7 45h-2q-56 -61 -143 -61q-89 0 -141 63q-47 59 -47 150q0 117 75 211q79 99 194 99q85 0 127 -62l8 46h138zM290 108q58 0 101 53q40 50 40 109q0 46 -26 79.5t-71 33.5q-58 0 -99 -51t-41 -110q0 -47 24 -79q26 -35 72 -35zM406 774
q37 0 61 -23.5t24 -60.5q0 -46 -35.5 -81.5t-81.5 -35.5q-37 0 -61.5 24t-24.5 61q0 46 36 81t82 35zM396 715q-17 0 -30.5 -12t-16.5 -29t7 -29.5t27 -12.5t31.5 12.5t16.5 29.5t-8 29t-27 12z" />
    <glyph glyph-name="ae" unicode="&#xe6;" horiz-adv-x="792" 
d="M505 310h187q1 40 -19 69.5t-58 29.5q-40 0 -71 -30q-27 -27 -39 -69zM256 217q-32 0 -57 -18t-30 -49q-5 -33 18 -51q20 -16 54 -16q32 0 60.5 19t33.5 49q5 32 -20.5 49t-58.5 17zM812 223h-323q-3 -18 -3 -35q0 -97 79 -97q62 0 105 67l126 -21q-36 -72 -101.5 -112.5
t-146.5 -40.5q-122 0 -162 81q-75 -81 -188 -81q-71 0 -115 30q-51 35 -51 103q0 15 2 28q12 76 74 120q58 41 138 41q65 0 110 -27l3 16q2 11 2 23q0 82 -99 82q-60 0 -123 -22l17 109q83 20 140 20q117 0 149 -75q71 75 179 75q96 0 146 -53.5t50 -149.5q0 -36 -5 -64z
" />
    <glyph glyph-name="ccedilla" unicode="&#xe7;" horiz-adv-x="421" 
d="M459 476l-21 -135q-40 48 -95 48q-64 0 -108 -56q-42 -52 -42 -117q0 -51 29 -82.5t80 -31.5q56 0 106 47l-22 -135q-59 -30 -126 -30q-94 0 -152 60.5t-58 154.5q0 19 4 45q17 111 101 187t195 76q64 0 109 -31zM211 -20l84 -47l-138 -139l-68 38z" />
    <glyph glyph-name="egrave" unicode="&#xe8;" horiz-adv-x="501" 
d="M521 223h-323q-3 -18 -3 -35q0 -97 79 -97q62 0 105 67l126 -21q-36 -72 -102 -112.5t-146 -40.5q-96 0 -152 54.5t-56 150.5q0 26 4 52q18 117 89 189q76 77 191 77q95 0 146 -53t51 -148q0 -32 -6 -66zM216 310h187q1 40 -19 69.5t-58 29.5q-82 0 -110 -99zM333 588
l-146 118q8 3 19 12q2 3 -5 12.5t-7 10.5q0 2 1 2l66 3l71 -107z" />
    <glyph glyph-name="eacute" unicode="&#xe9;" horiz-adv-x="501" 
d="M521 223h-323q-3 -18 -3 -35q0 -97 79 -97q62 0 105 67l126 -21q-36 -72 -102 -112.5t-146 -40.5q-96 0 -152 54.5t-56 150.5q0 26 4 52q18 117 89 189q76 77 191 77q95 0 146 -53t51 -148q0 -32 -6 -66zM216 310h187q1 40 -19 69.5t-58 29.5q-82 0 -110 -99zM333 588
l1 51l71 107l66 -3q1 -1 1 -2t-7 -10.5t-5 -12.5q8 -4 19 -12z" />
    <glyph glyph-name="ecircumflex" unicode="&#xea;" horiz-adv-x="501" 
d="M521 223h-323q-3 -18 -3 -35q0 -97 79 -97q62 0 105 67l126 -21q-36 -72 -102 -112.5t-146 -40.5q-96 0 -152 54.5t-56 150.5q0 26 4 52q18 117 89 189q76 77 191 77q95 0 146 -53t51 -148q0 -32 -6 -66zM216 310h187q1 40 -19 69.5t-58 29.5q-82 0 -110 -99zM179 575
l176 109l137 -109l-76 -35l-76 65l-102 -65z" />
    <glyph glyph-name="edieresis" unicode="&#xeb;" horiz-adv-x="501" 
d="M521 223h-323q-3 -18 -3 -35q0 -97 79 -97q62 0 105 67l126 -21q-36 -72 -101.5 -112.5t-146.5 -40.5q-96 0 -152 54.5t-56 150.5q0 27 4 52q19 118 89 189q75 77 191 77q96 0 146 -53.5t50 -149.5q0 -36 -5 -64zM216 310h187q1 40 -19 69.5t-58 29.5q-40 0 -71 -30
q-27 -27 -39 -69zM267 762q29 0 48.5 -19t19.5 -48q0 -37 -28.5 -65t-65.5 -28q-29 0 -48.5 19t-19.5 48q0 37 28.5 65t65.5 28zM478 762q29 0 48.5 -19t19.5 -48q0 -37 -28.5 -65t-65.5 -28q-29 0 -48.5 19t-19.5 48q0 37 28.5 65t65.5 28z" />
    <glyph glyph-name="igrave" unicode="&#xec;" horiz-adv-x="253" 
d="M275 491l-78 -491h-140l78 491h140zM206 588l-146 118q8 3 19 12q2 3 -5 12.5t-7 10.5q0 2 1 2l66 3l71 -107z" />
    <glyph glyph-name="iacute" unicode="&#xed;" horiz-adv-x="253" 
d="M275 491l-78 -491h-140l78 491h140zM206 588l1 51l71 107l66 -3q1 -1 1 -2t-7 -10.5t-5 -12.5q8 -4 19 -12z" />
    <glyph glyph-name="icircumflex" unicode="&#xee;" horiz-adv-x="253" 
d="M275 491l-78 -491h-140l78 491h140zM55 620l195 154l145 -154l-70 -66l-94 104l-126 -104z" />
    <glyph glyph-name="idieresis" unicode="&#xef;" horiz-adv-x="253" 
d="M275 491l-78 -491h-140l78 491h140zM143 762q29 0 48.5 -19t19.5 -48q0 -37 -28.5 -65t-65.5 -28q-29 0 -48.5 19t-19.5 48q0 37 28.5 65t65.5 28zM354 762q29 0 48.5 -19t19.5 -48q0 -37 -28.5 -65t-65.5 -28q-29 0 -48.5 19t-19.5 48q0 37 28.5 65t65.5 28z" />
    <glyph glyph-name="eth" unicode="&#xf0;" horiz-adv-x="548" 
d="M335 383q-59 0 -99.5 -50.5t-40.5 -111.5q0 -47 24 -78q27 -35 72 -35q58 0 100 53q40 50 40 109q0 47 -24 78q-26 35 -72 35zM131 613l130 86q-29 37 -66 79l105 70q30 -35 65 -80l119 80l56 -68l-124 -82q159 -227 159 -399q0 -133 -86 -224t-218 -91q-99 0 -159.5 57
t-60.5 155q0 24 4 49q18 115 101 188.5t198 73.5q11 0 11 12q0 28 -34 79l-20 30l-125 -83z" />
    <glyph glyph-name="ntilde" unicode="&#xf1;" horiz-adv-x="540" 
d="M268 491l-7 -45h2q50 61 137 61q143 0 143 -145q0 -31 -5 -62l-48 -300h-140l41 260q8 51 8 67q0 68 -62 68q-55 0 -82 -54q-17 -33 -27 -98l-38 -243h-140l78 491h140zM258 604v0h-82q12 51 45 92q39 47 86 47q25 0 73 -21.5t62 -21.5q26 0 54 42h83q-19 -56 -52 -94
q-41 -47 -92 -47q-21 0 -65 22t-63 22q-31 0 -49 -41z" />
    <glyph glyph-name="ograve" unicode="&#xf2;" horiz-adv-x="548" 
d="M354 507q99 0 160 -57t61 -156q0 -24 -4 -49q-18 -116 -101 -188.5t-199 -72.5q-100 0 -160 56.5t-60 155.5q0 24 4 49q18 115 100.5 188.5t198.5 73.5zM335 383q-59 0 -101 -53q-39 -49 -39 -110q0 -46 25.5 -79t70.5 -33q60 0 101 53q39 49 39 110q0 47 -25 79.5
t-71 32.5zM354 588l-146 118q8 3 19 12q2 3 -5 12.5t-7 10.5q0 2 1 2l66 3l71 -107z" />
    <glyph glyph-name="oacute" unicode="&#xf3;" horiz-adv-x="548" 
d="M354 507q99 0 160 -57t61 -156q0 -24 -4 -49q-18 -116 -101 -188.5t-199 -72.5q-100 0 -160 56.5t-60 155.5q0 24 4 49q18 115 100.5 188.5t198.5 73.5zM335 383q-59 0 -101 -53q-39 -49 -39 -110q0 -46 25.5 -79t70.5 -33q60 0 101 53q39 49 39 110q0 47 -25 79.5
t-71 32.5zM354 588l1 51l71 107l66 -3q1 -1 1 -2t-7 -10.5t-5 -12.5q8 -4 19 -12z" />
    <glyph glyph-name="ocircumflex" unicode="&#xf4;" horiz-adv-x="548" 
d="M354 507q99 0 160 -57t61 -156q0 -24 -4 -49q-18 -116 -101 -188.5t-199 -72.5q-100 0 -160 56.5t-60 155.5q0 24 4 49q18 115 100.5 188.5t198.5 73.5zM335 383q-59 0 -101 -53q-39 -49 -39 -110q0 -46 25.5 -79t70.5 -33q60 0 101 53q39 49 39 110q0 47 -25 79.5
t-71 32.5zM207 575l176 109l137 -109l-76 -35l-76 65l-102 -65z" />
    <glyph glyph-name="otilde" unicode="&#xf5;" horiz-adv-x="548" 
d="M354 507q99 0 160 -57t61 -156q0 -24 -4 -49q-18 -116 -101 -188.5t-199 -72.5q-100 0 -160 56.5t-60 155.5q0 24 4 49q18 115 100.5 188.5t198.5 73.5zM335 383q-59 0 -101 -53q-39 -49 -39 -110q0 -46 25.5 -79t70.5 -33q60 0 101 53q39 49 39 110q0 47 -25 79.5
t-71 32.5zM264 589l-44 -10l-14 8q79 95 149 95q14 0 43 -13t33 -13q17 1 56 29l45 11l14 -10q-95 -97 -160 -98q-12 0 -36 14t-35 14q-22 0 -51 -27z" />
    <glyph glyph-name="odieresis" unicode="&#xf6;" horiz-adv-x="548" 
d="M354 507q99 0 160 -57.5t61 -155.5q0 -24 -4 -49q-18 -115 -101 -188t-199 -73q-99 0 -159.5 57t-60.5 155q0 24 4 49q18 115 101 188.5t198 73.5zM335 383q-59 0 -99.5 -50.5t-40.5 -111.5q0 -47 24 -78q27 -35 72 -35q58 0 100 53q40 50 40 109q0 47 -24 78
q-26 35 -72 35zM290 762q29 0 48.5 -19t19.5 -48q0 -37 -28.5 -65t-65.5 -28q-29 0 -48.5 19t-19.5 48q0 37 28.5 65t65.5 28zM501 762q29 0 48.5 -19t19.5 -48q0 -37 -28.5 -65t-65.5 -28q-29 0 -48.5 19t-19.5 48q0 37 28.5 65t65.5 28z" />
    <glyph glyph-name="divide" unicode="&#xf7;" 
d="M312 146q31 0 51 -19.5t20 -50.5q0 -38 -29.5 -67t-67.5 -29q-31 0 -51 19.5t-20 50.5q0 38 29.5 67t67.5 29zM373 532q31 0 51 -19.5t20 -50.5q0 -38 -29.5 -67t-67.5 -29q-31 0 -51 19.5t-20 50.5q0 38 29.5 67t67.5 29zM64 197l19 118h512l-19 -118h-512z" />
    <glyph glyph-name="oslash" unicode="&#xf8;" horiz-adv-x="564" 
d="M643 485l-80 -74q18 -42 18 -99q0 -34 -5 -67q-17 -115 -100.5 -188t-199.5 -73q-100 0 -157 54l-81 -73l-39 45l78 71q-22 48 -22 106q0 26 5 58q18 115 101 188.5t198 73.5q110 0 161 -51l82 74zM206 185l196 175q-21 23 -62 23q-52 0 -92 -44q-38 -40 -46 -94
q-5 -30 4 -60zM431 306l-193 -173q24 -25 58 -25q51 0 92 44q38 40 46 93q5 35 -3 61z" />
    <glyph glyph-name="ugrave" unicode="&#xf9;" horiz-adv-x="535" 
d="M125 491h140l-42 -266q-4 -25 -4 -48q0 -75 64 -75q81 0 100 123l42 266h140l-46 -289q-35 -218 -255 -218q-190 0 -190 164q0 23 5 54zM346 554l-146 118q8 3 19 12q2 3 -5 12.5t-7 10.5q0 2 1 2l66 3l71 -107z" />
    <glyph glyph-name="uacute" unicode="&#xfa;" horiz-adv-x="535" 
d="M125 491h140l-42 -266q-4 -25 -4 -48q0 -75 64 -75q81 0 100 123l42 266h140l-46 -289q-35 -218 -255 -218q-190 0 -190 164q0 23 5 54zM346 554l1 51l71 107l66 -3q1 -1 1 -2t-7 -10.5t-5 -12.5q8 -4 19 -12z" />
    <glyph glyph-name="ucircumflex" unicode="&#xfb;" horiz-adv-x="535" 
d="M125 491h140l-42 -266q-5 -32 -5 -47q0 -76 65 -76q81 0 100 123l42 266h140l-46 -289q-35 -218 -255 -218q-190 0 -190 164q0 23 5 54zM196 620l195 154l145 -154l-70 -66l-94 104l-126 -104z" />
    <glyph glyph-name="udieresis" unicode="&#xfc;" horiz-adv-x="535" 
d="M125 491h140l-42 -266q-5 -32 -5 -47q0 -76 65 -76q81 0 100 123l42 266h140l-46 -289q-35 -218 -255 -218q-190 0 -190 164q0 23 5 54zM284 762q29 0 48.5 -19t19.5 -48q0 -37 -28.5 -65t-65.5 -28q-29 0 -48.5 19t-19.5 48q0 37 28.5 65t65.5 28zM495 762
q29 0 48.5 -19t19.5 -48q0 -37 -28.5 -65t-65.5 -28q-29 0 -48.5 19t-19.5 48q0 37 28.5 65t65.5 28z" />
    <glyph glyph-name="yacute" unicode="&#xfd;" horiz-adv-x="520" 
d="M203 75l-143 416h159l73 -279l170 279h156l-476 -753h-154zM340 540l1 51l71 107l66 -3q1 -1 1 -2t-7 -10.5t-5 -12.5q8 -4 19 -12z" />
    <glyph glyph-name="thorn" unicode="&#xfe;" horiz-adv-x="565" 
d="M324 848l-63 -402q61 61 145 61q87 0 139 -64q48 -59 48 -148q0 -119 -76 -212q-81 -99 -197 -99q-87 0 -121 62h-2l-48 -308h-140l175 1110h140zM309 108q58 0 100 53q40 49 40 109q0 46 -26 79.5t-70 33.5q-58 0 -99 -51t-41 -110q0 -47 24 -79q26 -35 72 -35z" />
    <glyph glyph-name="ydieresis" unicode="&#xff;" horiz-adv-x="520" 
d="M203 75l-143 416h159l73 -279l170 279h156l-476 -753h-154zM276 762q29 0 48.5 -19t19.5 -48q0 -37 -28.5 -65t-65.5 -28q-29 0 -48.5 19t-19.5 48q0 37 28.5 65t65.5 28zM487 762q29 0 48.5 -19t19.5 -48q0 -37 -28.5 -65t-65.5 -28q-29 0 -48.5 19t-19.5 48
q0 37 28.5 65t65.5 28z" />
    <glyph glyph-name="glyph271" unicode="&#x102;" horiz-adv-x="676" 
d="M495 159h-262l-87 -159h-155l417 774h114l163 -774h-157zM473 279l-50 274h-2l-127 -274h179zM671 958q-30 -56 -88 -94t-119 -39q-44 -1 -71 20q-30 23 -30 66q0 22 9 47q18 -4 63 -23q-1 -22 20 -35q18 -11 42 -11q28 0 59 15t47 37q5 2 68 17z" />
    <glyph glyph-name="glyph272" unicode="&#x103;" horiz-adv-x="565" 
d="M592 491l-78 -491h-138l7 45h-2q-56 -61 -143 -61q-90 0 -141 63q-47 58 -47 150q0 118 74 211q79 99 195 99q85 0 127 -62l8 46h138zM290 108q57 0 100 53q41 49 41 108q0 48 -24 79q-27 35 -73 35q-58 0 -99 -50.5t-41 -110.5q0 -47 24 -79q26 -35 72 -35zM531 691
q-30 -54 -84 -90t-113 -37q-41 -1 -67 19q-29 22 -29 62q0 22 9 46q61 -15 59 -22q0 -44 59 -44q65 0 101 50q5 1 65 16z" />
    <glyph glyph-name="Cacute" unicode="&#x106;" horiz-adv-x="711" 
d="M674 730l-28 -176q-53 80 -154 80q-113 0 -192 -98q-74 -92 -74 -208q0 -88 47 -146q51 -62 137 -62q97 0 180 80l-28 -175q-102 -45 -178 -45q-139 0 -227 95q-85 92 -85 232q0 32 5 64q26 165 147 281q125 122 289 122q87 0 161 -44zM499 1029l92 -62l-175 -150l-64 44
z" />
    <glyph glyph-name="cacute" unicode="&#x107;" horiz-adv-x="441" 
d="M459 476l-21 -135q-40 48 -95 48q-64 0 -108 -56q-42 -52 -42 -117q0 -51 29 -82.5t80 -31.5q56 0 106 47l-22 -135q-59 -30 -126 -30q-94 0 -152 60.5t-58 154.5q0 19 4 45q17 111 101 187t195 76q64 0 109 -31zM300 774l92 -62l-175 -150l-64 44z" />
    <glyph glyph-name="Ccaron" unicode="&#x10c;" horiz-adv-x="711" 
d="M674 730l-28 -176q-53 80 -154 80q-113 0 -192 -98q-74 -92 -74 -208q0 -88 47 -146q51 -62 137 -62q97 0 180 80l-28 -175q-102 -45 -178 -45q-139 0 -227 95q-85 92 -85 232q0 32 5 64q26 165 147 281q125 122 289 122q87 0 161 -44zM310 964l71 65l101 -104l136 104
l49 -65l-203 -155z" />
    <glyph glyph-name="ccaron" unicode="&#x10d;" horiz-adv-x="441" 
d="M459 476l-21 -135q-40 48 -95 48q-64 0 -108 -56q-42 -52 -42 -117q0 -51 29 -82.5t80 -31.5q56 0 106 47l-22 -135q-59 -30 -126 -30q-94 0 -152 60.5t-58 154.5q0 19 4 45q17 111 101 187t195 76q64 0 109 -31zM111 709l71 65l101 -104l136 104l49 -65l-203 -155z" />
    <glyph glyph-name="Dslash" unicode="&#x110;" horiz-adv-x="646" 
d="M54 0l53 337h-72l19 120h72l47 297h210q141 0 226 -83.5t85 -224.5q0 -33 -6 -70q-26 -162 -143 -268q-120 -108 -282 -108h-209zM300 626l-27 -169h113l-19 -120h-113l-33 -209h24q251 0 291 249q5 31 5 62q0 187 -217 187h-24z" />
    <glyph glyph-name="dcroat" unicode="&#x111;" horiz-adv-x="565" 
d="M290 108q58 0 100 53q40 49 40 109q0 47 -24 78q-27 35 -72 35q-58 0 -99 -50.5t-41 -110.5q0 -47 24 -79q26 -35 72 -35zM465 565h-140l19 118h139l26 165h140l-26 -165h49l-19 -118h-49l-89 -565h-140l7 46h-2q-54 -62 -142 -62q-90 0 -141 63q-47 58 -47 150
q0 118 74 211q79 99 195 99q86 0 125 -61h2z" />
    <glyph glyph-name="Gbreve" unicode="&#x11e;" horiz-adv-x="767" 
d="M459 401h325l-3 -19q-27 -172 -129 -281q-112 -121 -278 -121q-139 0 -222 93q-81 89 -81 229q0 35 6 72q27 168 143 281q123 119 289 119q95 0 165 -45q74 -48 104 -135l-141 -70q-16 55 -56 87.5t-97 32.5q-112 0 -189 -108q-70 -98 -70 -215q0 -89 42 -146
q47 -65 133 -65q70 0 128 51t72 120h-160zM342 1009h98q5 -71 64 -71t86 71h98q-17 -69 -71.5 -112.5t-125.5 -43.5q-70 0 -111.5 43t-37.5 113z" />
    <glyph glyph-name="gbreve" unicode="&#x11f;" horiz-adv-x="492" 
d="M590 491l-73 -461q-46 -292 -284 -292q-89 0 -150 46q-67 50 -67 136q0 11 1 22h148q-1 -39 21.5 -62.5t61.5 -23.5q65 0 96 53q19 34 31 108l5 32h-2q-59 -65 -145 -65q-89 0 -138 60q-46 55 -46 146q0 122 75 216q80 101 199 101q81 0 117 -63h2l8 47h140zM290 108
q58 0 99 51t41 110q0 47 -24 79q-27 35 -72 35q-58 0 -101 -53q-39 -49 -39 -109q0 -47 24 -78q27 -35 72 -35zM142 754h98q5 -71 64 -71t86 71h98q-17 -69 -71.5 -112.5t-125.5 -43.5q-70 0 -111.5 43t-37.5 113z" />
    <glyph glyph-name="glyph273" unicode="&#x128;" horiz-adv-x="254" 
d="M320 754l-119 -754h-147l119 754h147zM140 826l-46 -11l-15 9q84 100 157 100q19 0 45 -14q33 -14 35 -14q18 1 59 31l48 11l14 -10q-98 -102 -168 -103q-14 0 -40 15q-19 14 -35 14q-22 0 -54 -28z" />
    <glyph glyph-name="glyph274" unicode="&#x129;" horiz-adv-x="253" 
d="M275 491l-78 -491h-140l78 491h140zM118 588l-44 -10l-14 8q79 95 149 95q14 0 43 -13t33 -13q17 1 56 29l45 11l14 -10q-95 -97 -160 -98q-12 0 -36 14t-35 14q-22 0 -51 -27z" />
    <glyph glyph-name="Idotaccent" unicode="&#x130;" horiz-adv-x="429" 
d="M320 754l-119 -754h-147l119 754h147zM338 1017q29 0 48.5 -19t19.5 -48q0 -37 -28.5 -65t-65.5 -28q-29 0 -48.5 19t-19.5 48q0 37 28.5 65t65.5 28z" />
    <glyph glyph-name="dotlessi" unicode="&#x131;" horiz-adv-x="253" 
d="M275 491l-78 -491h-140l78 491h140z" />
    <glyph glyph-name="Lslash" unicode="&#x141;" horiz-adv-x="437" 
d="M353 754l-36 -230l118 83l-22 -139l-117 -79l-42 -261h211l-20 -128h-358l48 305l-82 -59l22 137l81 54l50 317h147z" />
    <glyph glyph-name="lslash" unicode="&#x142;" horiz-adv-x="283" 
d="M347 848l-42 -266l84 61l-21 -130l-83 -59l-72 -454h-140l60 380l-83 -60l20 130l83 56l54 342h140z" />
    <glyph glyph-name="OE" unicode="&#x152;" horiz-adv-x="1039" 
d="M856 626l-26 -167h227l-21 -128h-227l-32 -203h238l-20 -128h-384l13 85q-107 -105 -247 -105q-137 0 -223 100q-81 95 -81 234q0 173 128 314q131 146 302 146q145 0 212 -105h2l13 85h384l-20 -128h-238zM477 629q-109 0 -188 -95q-75 -90 -75 -202q0 -87 47 -145
q51 -62 136 -62q108 0 188 94q76 90 76 200q0 87 -48 146q-51 64 -136 64z" />
    <glyph glyph-name="oe" unicode="&#x153;" horiz-adv-x="873" 
d="M584 310h187q1 40 -19 69.5t-58 29.5q-40 0 -71 -30q-27 -27 -39 -69zM333 383q-59 0 -99.5 -50.5t-40.5 -111.5q0 -47 24 -78q27 -35 72 -35q58 0 100 53q40 50 40 109q0 47 -24 78q-26 35 -72 35zM894 223h-323q-3 -18 -3 -35q0 -97 79 -97q62 0 105 67l126 -21
q-36 -72 -101.5 -112.5t-146.5 -40.5q-123 0 -168 85q-77 -85 -193 -85q-99 0 -159.5 57t-60.5 155q0 24 4 49q18 115 101 188.5t198 73.5q108 0 166 -82q72 82 188 82q96 0 146 -53.5t50 -149.5q0 -36 -5 -64z" />
    <glyph glyph-name="Scedilla" unicode="&#x15e;" horiz-adv-x="656" 
d="M587 690l-85 -102q-36 62 -103 62q-37 0 -68.5 -24.5t-37.5 -60.5q-7 -48 57 -81l125 -65q69 -51 69 -138q0 -24 -3 -43q-18 -115 -95 -185q-80 -73 -194 -73q-144 0 -209 147l110 93q8 -46 40.5 -78t77.5 -32q49 0 82.5 38.5t33.5 88.5q0 41 -37 68q-15 11 -76 37
q-66 28 -98 62q-40 42 -40 105q0 20 3 39q15 95 87.5 160.5t168.5 65.5q51 0 105 -22q59 -24 87 -62zM229 -20l84 -47l-138 -139l-68 38z" />
    <glyph glyph-name="scedilla" unicode="&#x15f;" horiz-adv-x="383" 
d="M434 456l-73 -81q-30 34 -68 34q-19 0 -34.5 -12t-18.5 -30q-4 -22 34 -43q28 -12 56 -25q81 -37 81 -112q0 -16 -2 -29q-13 -79 -75 -126.5t-144 -47.5q-105 0 -160 82l78 83q42 -57 95 -57q24 0 42 15t22 38q5 29 -45 58q-37 17 -75 34q-46 31 -46 85q0 13 2 26
q11 69 61.5 114t119.5 45q100 0 150 -51zM132 -20l84 -47l-138 -139l-68 38z" />
    <glyph glyph-name="Scaron" unicode="&#x160;" horiz-adv-x="526" 
d="M587 690l-85 -102q-36 62 -103 62q-37 0 -68.5 -24.5t-37.5 -60.5q-7 -48 57 -81l125 -65q69 -51 69 -138q0 -24 -3 -43q-18 -115 -95 -185q-80 -73 -194 -73q-144 0 -209 147l110 93q8 -46 40.5 -78t77.5 -32q49 0 82.5 38.5t33.5 88.5q0 41 -37 68q-15 11 -76 37
q-66 28 -98 62q-40 42 -40 105q0 20 3 39q15 95 87.5 160.5t168.5 65.5q51 0 105 -22q59 -24 87 -62zM238 972l71 65l101 -104l136 104l49 -65l-203 -155z" />
    <glyph glyph-name="scaron" unicode="&#x161;" horiz-adv-x="410" 
d="M434 456l-73 -81q-30 34 -68 34q-19 0 -34.5 -12t-18.5 -30q-4 -22 34 -43q28 -12 56 -25q81 -37 81 -112q0 -16 -2 -29q-13 -79 -75 -126.5t-144 -47.5q-105 0 -160 82l78 83q42 -57 95 -57q24 0 42 15t22 38q5 29 -45 58q-37 17 -75 34q-46 31 -46 85q0 13 2 26
q11 69 61.5 114t119.5 45q100 0 150 -51zM138 709l71 65l101 -104l136 104l49 -65l-203 -155z" />
    <glyph glyph-name="ch903" unicode="&#x168;" horiz-adv-x="660" 
d="M98 303l71 451h147l-66 -422q-9 -58 -9 -95q0 -129 106 -129q83 0 126 77q28 50 43 147l66 422h147l-71 -451q-23 -148 -101 -231q-86 -92 -230 -92q-236 0 -236 238q0 41 7 85zM351 816l-46 -11l-15 9q84 100 157 100q19 0 45 -14q33 -14 35 -14q18 1 59 31l48 11
l14 -10q-98 -102 -168 -103q-14 0 -40 15q-19 14 -35 14q-22 0 -54 -28z" />
    <glyph glyph-name="ch904" unicode="&#x169;" horiz-adv-x="535" 
d="M125 491h140l-42 -266q-4 -25 -4 -48q0 -75 64 -75q81 0 100 123l42 266h140l-46 -289q-35 -218 -255 -218q-190 0 -190 164q0 23 5 54zM256 554l-44 -10l-14 8q79 95 149 95q14 0 43 -13t33 -13q17 1 56 29l45 11l14 -10q-95 -97 -160 -98q-12 0 -36 14t-35 14
q-22 0 -51 -27z" />
    <glyph glyph-name="Ydieresis" unicode="&#x178;" horiz-adv-x="587" 
d="M273 346l-170 408h171l91 -262l185 262h172l-302 -408l-55 -346h-147zM352 1025q29 0 48.5 -19t19.5 -48q0 -37 -28.5 -65t-65.5 -28q-29 0 -48.5 19t-19.5 48q0 37 28.5 65t65.5 28zM563 1025q29 0 48.5 -19t19.5 -48q0 -37 -28.5 -65t-65.5 -28q-29 0 -48.5 19
t-19.5 48q0 37 28.5 65t65.5 28z" />
    <glyph glyph-name="Zcaron" unicode="&#x17d;" horiz-adv-x="575" 
d="M259 128h313l-20 -128h-547l431 626h-281l20 128h514zM263 972l71 65l101 -104l136 104l49 -65l-203 -155z" />
    <glyph glyph-name="zcaron" unicode="&#x17e;" horiz-adv-x="481" 
d="M251 118h233l-19 -118h-466l310 373h-212l19 118h443zM174 709l71 65l101 -104l136 104l49 -65l-203 -155z" />
    <glyph glyph-name="florin" unicode="&#x192;" 
d="M461 504h107l-22 -72h-108l-93 -291q-51 -161 -104 -224q-77 -93 -215 -83l-56 4l40 126l33 -2q67 -4 106 49q26 35 62 151l85 270h-60l22 72h62l37 115q68 212 237 212q50 0 84 -21l-39 -121q-27 17 -56 17q-39 0 -64 -43q-14 -24 -31 -76z" />
    <glyph glyph-name="glyph277" unicode="&#x1a0;" horiz-adv-x="782" 
d="M491 629q-104 0 -183.5 -87.5t-79.5 -192.5q0 -86 48 -151q53 -73 135 -73q90 0 171 86q77 80 91 173q3 20 3 39q0 86 -49 144q-52 62 -136 62zM624 756l124 -10q34 9 34 26q0 21 -16 26q-7 3 -13 3q-11 0 -19 -11q-2 -2 -38 12q21 43 65 43q14 0 28 -5q44 -16 44 -65
q0 -44 -48 -70q-28 -15 -52 -14q96 -94 96 -246q0 -202 -152 -346q-126 -119 -289 -119q-143 0 -229.5 92t-86.5 236q0 32 6 70q26 164 147 278q126 118 289 118q61 0 110 -18z" />
    <glyph glyph-name="glyph278" unicode="&#x1a1;" horiz-adv-x="548" 
d="M335 383q-59 0 -101 -53q-39 -49 -39 -110q0 -46 25.5 -79t70.5 -33q60 0 101 53q39 49 39 110q0 47 -25 79.5t-71 32.5zM473 479q23 -1 46 -4q10 2 27 14q3 4 3 10q0 18 -15 23q-6 3 -11 3q-10 0 -18 -10q-2 -2 -34 11q19 39 59 39q11 0 25 -5q39 -14 39 -58
q0 -62 -69 -65q50 -56 50 -143q0 -24 -4 -49q-18 -116 -101 -188.5t-199 -72.5q-100 0 -160 56.5t-60 155.5q0 24 4 49q18 115 100.5 188.5t198.5 73.5q68 0 119 -28z" />
    <glyph glyph-name="glyph279" unicode="&#x1af;" horiz-adv-x="660" 
d="M721 704l-63 -401q-23 -148 -101 -231q-86 -92 -230 -92q-236 0 -236 238q0 41 7 85l71 451h147l-66 -422q-9 -58 -9 -95q0 -129 106 -129q83 0 126 77q28 50 43 147l66 422l146 -8q34 9 34 26q0 21 -16 26q-7 3 -13 3q-11 0 -19 -11q-2 -2 -38 12q21 43 65 43
q14 0 28 -5q44 -16 44 -65q0 -19 -9 -35q-23 -42 -83 -36z" />
    <glyph glyph-name="glyph280" unicode="&#x1b0;" horiz-adv-x="535" 
d="M557 438l-38 -236q-35 -218 -255 -218q-190 0 -190 164q0 23 5 54l46 289h140l-42 -266q-4 -25 -4 -48q0 -75 64 -75q81 0 100 123l42 266h108q15 -8 29 -16q10 2 27 14q3 4 3 10q0 18 -15 23q-6 3 -11 3q-10 0 -18 -10q-2 -2 -34 11q19 39 59 39q11 0 25 -5
q39 -14 39 -58q0 -17 -8 -32q-21 -38 -72 -32z" />
    <glyph glyph-name="circumflex" unicode="&#x2c6;" horiz-adv-x="400" 
d="M128 620l195 154l145 -154l-70 -66l-94 104l-126 -104z" />
    <glyph glyph-name="caron" unicode="&#x2c7;" horiz-adv-x="400" 
d="M133 709l71 65l101 -104l136 104l49 -65l-203 -155z" />
    <glyph glyph-name="breve" unicode="&#x2d8;" horiz-adv-x="400" 
d="M146 754h98q5 -71 64 -71t86 71h98q-17 -69 -71.5 -112.5t-125.5 -43.5q-70 0 -111.5 43t-37.5 113z" />
    <glyph glyph-name="dotaccent" unicode="&#x2d9;" horiz-adv-x="380" 
d="M311 762q29 0 48.5 -19t19.5 -48q0 -37 -28.5 -65t-65.5 -28q-29 0 -48.5 19t-19.5 48q0 37 28.5 65t65.5 28z" />
    <glyph glyph-name="ring" unicode="&#x2da;" horiz-adv-x="380" 
d="M313 774q37 0 61 -23.5t24 -60.5q0 -46 -35.5 -81.5t-81.5 -35.5q-37 0 -61.5 24t-24.5 61q0 46 36 81t82 35zM303 715q-17 0 -30.5 -12t-16.5 -29t7 -29.5t27 -12.5t31.5 12.5t16.5 29.5t-8 29t-27 12z" />
    <glyph glyph-name="ogonek" unicode="&#x2db;" horiz-adv-x="380" 
d="M170 -20h70v-2q-60 -35 -67 -80q-3 -20 7 -33t30 -13q24 0 50 16l-26 -75q-29 -18 -72 -18q-36 0 -61 19t-25 54q0 75 94 132z" />
    <glyph glyph-name="tilde" unicode="&#x2dc;" horiz-adv-x="400" 
d="M188 604v0h-82q12 51 45 92q39 47 86 47q25 0 73 -21.5t62 -21.5q26 0 54 42h83q-19 -56 -52 -94q-41 -47 -92 -47q-21 0 -65 22t-63 22q-31 0 -49 -41z" />
    <glyph glyph-name="hungarumlaut" unicode="&#x2dd;" horiz-adv-x="420" 
d="M248 774l92 -62l-175 -150l-64 44zM437 774l92 -62l-175 -150l-64 44z" />
    <glyph glyph-name="glyph281" unicode="&#x1ea0;" horiz-adv-x="676" 
d="M495 159h-262l-87 -159h-155l417 774h114l163 -774h-157zM473 279l-50 274h-2l-127 -274h179zM366 -32q45 1 45 -39q0 -42 -46 -76q-26 -20 -57 -20q-45 -1 -45 40q0 42 46 75q27 20 57 20z" />
    <glyph glyph-name="glyph282" unicode="&#x1ea1;" horiz-adv-x="565" 
d="M592 491l-78 -491h-138l7 45h-2q-56 -61 -143 -61q-90 0 -141 63q-47 58 -47 150q0 118 74 211q79 99 195 99q85 0 127 -62l8 46h138zM290 108q57 0 100 53q41 49 41 108q0 48 -24 79q-27 35 -73 35q-58 0 -99 -50.5t-41 -110.5q0 -47 24 -79q26 -35 72 -35zM292 -51
q43 1 43 -37q0 -39 -44 -71q-26 -19 -53 -19q-43 -1 -43 37q0 40 44 71q27 19 53 19z" />
    <glyph glyph-name="glyph283" unicode="&#x1ea2;" horiz-adv-x="676" 
d="M495 159h-262l-87 -159h-155l417 774h114l163 -774h-157zM473 279l-50 274h-2l-127 -274h179zM401 958q7 77 78 77q32 0 53 -23t21 -55t-23 -54t-56 -29l6 -22l-16 -16l-24 12l-26 75q2 0 11.5 -6t12.5 -6q48 0 55 44q5 33 -21 33q-28 0 -33 -23q-1 -2 -38 -7z" />
    <glyph glyph-name="glyph284" unicode="&#x1ea3;" horiz-adv-x="565" 
d="M592 491l-78 -491h-138l7 45h-2q-56 -61 -143 -61q-90 0 -141 63q-47 58 -47 150q0 118 74 211q79 99 195 99q85 0 127 -62l8 46h138zM290 108q57 0 100 53q41 49 41 108q0 48 -24 79q-27 35 -73 35q-58 0 -99 -50.5t-41 -110.5q0 -47 24 -79q26 -35 72 -35zM270 700
q7 77 78 77q32 0 53 -23t21 -55t-23 -54t-56 -29l6 -22l-16 -16l-24 12l-26 75q2 0 11.5 -6t12.5 -6q48 0 55 44q5 33 -21 33q-28 0 -33 -23q-1 -2 -38 -7z" />
    <glyph glyph-name="glyph285" unicode="&#x1ea4;" horiz-adv-x="676" 
d="M495 159h-262l-87 -159h-155l417 774h114l163 -774h-157zM473 279l-50 274h-2l-127 -274h179zM304 842l185 115l144 -115l-80 -37l-80 69l-107 -69zM633 873l1 54l75 112l69 -3q1 -1 1 -2q0 -2 -7 -11.5t-5 -12.5q1 -2 20 -13z" />
    <glyph glyph-name="glyph286" unicode="&#x1ea5;" horiz-adv-x="565" 
d="M592 491l-78 -491h-138l7 45h-2q-56 -61 -143 -61q-90 0 -141 63q-47 58 -47 150q0 118 74 211q79 99 195 99q85 0 127 -62l8 46h138zM290 108q57 0 100 53q41 49 41 108q0 48 -24 79q-27 35 -73 35q-58 0 -99 -50.5t-41 -110.5q0 -47 24 -79q26 -35 72 -35zM204 575
l176 109l137 -109l-76 -35l-76 65l-102 -65zM496 624l1 51l71 107l66 -3q1 -1 1 -2t-7 -10.5t-5 -12.5q8 -4 19 -12z" />
    <glyph glyph-name="glyph287" unicode="&#x1ea6;" horiz-adv-x="676" 
d="M495 159h-262l-87 -159h-155l417 774h114l163 -774h-157zM473 279l-50 274h-2l-127 -274h179zM304 842l185 115l144 -115l-80 -37l-80 69l-107 -69zM304 874l-154 124q8 3 20 13q2 3 -5 12.5t-7 11.5q0 1 1 2l69 3l75 -112z" />
    <glyph glyph-name="glyph288" unicode="&#x1ea7;" horiz-adv-x="565" 
d="M592 491l-78 -491h-138l7 45h-2q-56 -61 -143 -61q-90 0 -141 63q-47 58 -47 150q0 118 74 211q79 99 195 99q85 0 127 -62l8 46h138zM290 108q57 0 100 53q41 49 41 108q0 48 -24 79q-27 35 -73 35q-58 0 -99 -50.5t-41 -110.5q0 -47 24 -79q26 -35 72 -35zM204 575
l176 109l137 -109l-76 -35l-76 65l-102 -65zM234 625l-146 118q8 3 19 12q2 3 -5 12.5t-7 10.5q0 2 1 2l66 3l71 -107z" />
    <glyph glyph-name="glyph289" unicode="&#x1ea8;" horiz-adv-x="676" 
d="M495 159h-262l-87 -159h-155l417 774h114l163 -774h-157zM473 279l-50 274h-2l-127 -274h179zM304 842l185 115l144 -115l-80 -37l-80 69l-107 -69zM593 996q7 77 78 77q32 0 53 -23t21 -55t-23 -54t-56 -29l6 -22l-16 -16l-24 12l-26 75q2 0 11.5 -6t12.5 -6q48 0 55 44
q5 33 -21 33q-28 0 -33 -23q-1 -2 -38 -7z" />
    <glyph glyph-name="glyph290" unicode="&#x1ea9;" horiz-adv-x="565" 
d="M592 491l-78 -491h-138l7 45h-2q-56 -61 -143 -61q-90 0 -141 63q-47 58 -47 150q0 118 74 211q79 99 195 99q85 0 127 -62l8 46h138zM290 108q57 0 100 53q41 49 41 108q0 48 -24 79q-27 35 -73 35q-58 0 -99 -50.5t-41 -110.5q0 -47 24 -79q26 -35 72 -35zM205 576
l176 109l137 -109l-76 -36l-76 66l-102 -66zM486 729q7 77 78 77q32 0 53 -23t21 -55t-23 -54t-56 -29l6 -22l-16 -16l-24 12l-26 75q2 0 11.5 -6t12.5 -6q48 0 55 44q5 33 -21 33q-28 0 -33 -23q-1 -2 -38 -7z" />
    <glyph glyph-name="glyph291" unicode="&#x1eaa;" horiz-adv-x="676" 
d="M495 159h-262l-87 -159h-155l417 774h114l163 -774h-157zM473 279l-50 274h-2l-127 -274h179zM304 842l185 115l144 -115l-80 -37l-80 69l-107 -69zM364 989l-46 -11l-15 9q84 100 157 100q19 0 45 -14q33 -14 35 -14q18 1 59 31l48 11l14 -10q-98 -102 -168 -103
q-14 0 -40 15q-19 14 -35 14q-22 0 -54 -28z" />
    <glyph glyph-name="glyph292" unicode="&#x1eab;" horiz-adv-x="565" 
d="M592 491l-78 -491h-138l7 45h-2q-56 -61 -143 -61q-90 0 -141 63q-47 58 -47 150q0 118 74 211q79 99 195 99q85 0 127 -62l8 46h138zM290 108q57 0 100 53q41 49 41 108q0 48 -24 79q-27 35 -73 35q-58 0 -99 -50.5t-41 -110.5q0 -47 24 -79q26 -35 72 -35zM206 576
l175 109l137 -109l-76 -35l-76 65l-101 -65zM263 715l-44 -10l-14 8q79 95 149 95q14 0 43 -13t33 -13q17 1 56 29l45 11l14 -10q-95 -97 -160 -98q-12 0 -36 14t-35 14q-22 0 -51 -27z" />
    <glyph glyph-name="glyph293" unicode="&#x1eac;" horiz-adv-x="676" 
d="M495 159h-262l-87 -159h-155l417 774h114l163 -774h-157zM473 279l-50 274h-2l-127 -274h179zM304 842l185 115l144 -115l-80 -37l-80 69l-107 -69zM366 -32q45 1 45 -39q0 -42 -46 -76q-26 -20 -57 -20q-45 -1 -45 40q0 42 46 75q27 20 57 20z" />
    <glyph glyph-name="glyph294" unicode="&#x1ead;" horiz-adv-x="565" 
d="M592 491l-78 -491h-138l7 45h-2q-56 -61 -143 -61q-90 0 -141 63q-47 58 -47 150q0 118 74 211q79 99 195 99q85 0 127 -62l8 46h138zM290 108q57 0 100 53q41 49 41 108q0 48 -24 79q-27 35 -73 35q-58 0 -99 -50.5t-41 -110.5q0 -47 24 -79q26 -35 72 -35zM204 575
l176 109l137 -109l-76 -35l-76 65l-102 -65zM292 -51q43 1 43 -37q0 -39 -44 -71q-26 -19 -53 -19q-43 -1 -43 37q0 40 44 71q27 19 53 19z" />
    <glyph glyph-name="glyph295" unicode="&#x1eae;" horiz-adv-x="676" 
d="M495 159h-262l-87 -159h-155l417 774h114l163 -774h-157zM473 279l-50 274h-2l-127 -274h179zM671 958q-30 -56 -88 -94t-119 -39q-44 -1 -71 20q-30 23 -30 66q0 22 9 47q18 -4 63 -23q-1 -22 20 -35q18 -11 42 -11q28 0 59 15t47 37q5 2 68 17zM497 958l1 54l75 112
l69 -3q1 -1 1 -2q0 -2 -7 -11.5t-5 -12.5q1 -2 20 -13z" />
    <glyph glyph-name="glyph296" unicode="&#x1eaf;" horiz-adv-x="565" 
d="M592 491l-78 -491h-138l7 45h-2q-56 -61 -143 -61q-90 0 -141 63q-47 58 -47 150q0 118 74 211q79 99 195 99q85 0 127 -62l8 46h138zM290 108q57 0 100 53q41 49 41 108q0 48 -24 79q-27 35 -73 35q-58 0 -99 -50.5t-41 -110.5q0 -47 24 -79q26 -35 72 -35zM531 691
q-30 -54 -84 -90t-113 -37q-41 -1 -67 19q-29 22 -29 62q0 22 9 46q61 -15 59 -22q0 -44 59 -44q65 0 101 50q5 1 65 16zM365 691l1 51l72 106l65 -3q1 -1 1 -2t-6.5 -10t-4.5 -12q1 -2 19 -13z" />
    <glyph glyph-name="glyph297" unicode="&#x1eb0;" horiz-adv-x="676" 
d="M495 159h-262l-87 -159h-155l417 774h114l163 -774h-157zM473 279l-50 274h-2l-127 -274h179zM671 958q-30 -56 -88 -94t-119 -39q-44 -1 -71 20q-30 23 -30 66q0 22 9 47q18 -4 63 -23q-1 -22 20 -35q18 -11 42 -11q28 0 59 15t47 37q5 2 68 17zM497 958l-154 124
q8 3 20 13q2 3 -5 12.5t-7 11.5q0 1 1 2l69 3l75 -112z" />
    <glyph glyph-name="glyph298" unicode="&#x1eb1;" horiz-adv-x="565" 
d="M592 491l-78 -491h-138l7 45h-2q-56 -61 -143 -61q-90 0 -141 63q-47 58 -47 150q0 118 74 211q79 99 195 99q85 0 127 -62l8 46h138zM290 108q57 0 100 53q41 49 41 108q0 48 -24 79q-27 35 -73 35q-58 0 -99 -50.5t-41 -110.5q0 -47 24 -79q26 -35 72 -35zM530 691
q-29 -54 -82.5 -90t-113.5 -37q-42 -1 -69 20t-27 62q0 22 8 45q63 -14 60 -22q-1 -22 19 -34q16 -10 40 -10q27 0 56.5 14.5t44.5 35.5q5 1 64 16zM365 691l-146 117q7 3 19 13q2 3 -5 12t-7 11q0 1 1 1l66 3l71 -106z" />
    <glyph glyph-name="glyph299" unicode="&#x1eb2;" horiz-adv-x="676" 
d="M495 159h-262l-87 -159h-155l417 774h114l163 -774h-157zM473 279l-50 274h-2l-127 -274h179zM671 958q-30 -56 -88 -94t-119 -39q-44 -1 -71 20q-30 23 -30 66q0 22 9 47q18 -4 63 -23q-1 -22 20 -35q18 -11 42 -11q28 0 59 15t47 37q5 2 68 17zM458 1080q7 77 78 77
q32 0 53 -23t21 -55t-23 -54t-56 -29l6 -22l-16 -16l-24 12l-26 75q2 0 11.5 -6t12.5 -6q48 0 55 44q5 33 -21 33q-28 0 -33 -23q-1 -2 -38 -7z" />
    <glyph glyph-name="glyph300" unicode="&#x1eb3;" horiz-adv-x="565" 
d="M592 491l-78 -491h-138l7 45h-2q-56 -61 -143 -61q-90 0 -141 63q-47 58 -47 150q0 118 74 211q79 99 195 99q85 0 127 -62l8 46h138zM290 108q57 0 100 53q41 49 41 108q0 48 -24 79q-27 35 -73 35q-58 0 -99 -50.5t-41 -110.5q0 -47 24 -79q26 -35 72 -35zM531 690
q-29 -53 -84 -89t-113 -37q-41 -1 -67 19q-29 22 -29 62q0 21 9 45q63 -14 60 -22q-1 -21 18 -32.5t41 -11.5q27 0 56 14.5t44 35.5q5 2 65 16zM326 814q7 77 78 77q32 0 53 -23t21 -55t-23 -54t-56 -29l6 -22l-16 -16l-24 12l-26 75q2 0 11.5 -6t12.5 -6q48 0 55 44
q5 33 -21 33q-28 0 -33 -23q-1 -2 -38 -7z" />
    <glyph glyph-name="glyph301" unicode="&#x1eb4;" horiz-adv-x="676" 
d="M495 159h-262l-87 -159h-155l417 774h114l163 -774h-157zM473 279l-50 274h-2l-127 -274h179zM671 958q-30 -56 -88 -94t-119 -39q-44 -1 -71 20q-30 23 -30 66q0 22 9 47q18 -4 63 -23q-1 -22 20 -35q18 -11 42 -11q28 0 59 15t47 37q5 2 68 17zM558 989l-46 -11l-15 9
q84 100 157 100q19 0 45 -14q33 -14 35 -14q18 1 59 31l48 11l14 -10q-98 -102 -168 -103q-14 0 -40 15q-19 14 -35 14q-22 0 -54 -28z" />
    <glyph glyph-name="glyph302" unicode="&#x1eb5;" horiz-adv-x="565" 
d="M592 491l-78 -491h-138l7 45h-2q-56 -61 -143 -61q-90 0 -141 63q-47 58 -47 150q0 118 74 211q79 99 195 99q85 0 127 -62l8 46h138zM290 108q57 0 100 53q41 49 41 108q0 48 -24 79q-27 35 -73 35q-58 0 -99 -50.5t-41 -110.5q0 -47 24 -79q26 -35 72 -35zM530 690
q-30 -53 -82 -88q-55 -37 -114 -38q-42 -1 -69 20t-27 62q0 21 8 44q63 -14 60 -22q-1 -21 18 -32.5t41 -11.5q27 0 56.5 14.5t44.5 35.5q5 2 64 16zM423 719l-44 -10l-14 9q27 33 67 61q48 34 82 34q18 0 43 -14t33 -13q16 0 56 29l46 11l13 -10q-94 -96 -159 -97
q-13 0 -36.5 13.5t-35.5 13.5q-22 0 -51 -27z" />
    <glyph glyph-name="glyph303" unicode="&#x1eb6;" horiz-adv-x="676" 
d="M495 159h-262l-87 -159h-155l417 774h114l163 -774h-157zM473 279l-50 274h-2l-127 -274h179zM671 958q-30 -56 -88 -94t-119 -39q-44 -1 -71 20q-30 23 -30 66q0 22 9 47q18 -4 63 -23q-1 -22 20 -35q18 -11 42 -11q28 0 59 15t47 37q5 2 68 17zM366 -32q45 1 45 -39
q0 -42 -46 -76q-26 -20 -57 -20q-45 -1 -45 40q0 42 46 75q27 20 57 20z" />
    <glyph glyph-name="glyph304" unicode="&#x1eb7;" horiz-adv-x="565" 
d="M592 491l-78 -491h-138l7 45h-2q-56 -61 -143 -61q-90 0 -141 63q-47 58 -47 150q0 118 74 211q79 99 195 99q85 0 127 -62l8 46h138zM290 108q57 0 100 53q41 49 41 108q0 48 -24 79q-27 35 -73 35q-58 0 -99 -50.5t-41 -110.5q0 -47 24 -79q26 -35 72 -35zM292 -51
q43 1 43 -37q0 -39 -44 -71q-26 -19 -53 -19q-43 -1 -43 37q0 40 44 71q27 19 53 19zM531 691q-30 -54 -84 -90t-113 -37q-41 -1 -67 19q-29 22 -29 62q0 22 9 46q61 -15 59 -22q0 -44 59 -44q65 0 101 50q5 1 65 16z" />
    <glyph glyph-name="glyph305" unicode="&#x1eb8;" horiz-adv-x="488" 
d="M543 626h-243l-26 -166h234l-20 -128h-234l-33 -204h243l-20 -128h-390l119 754h390zM275 -52q45 1 45 -39q0 -42 -46 -76q-26 -20 -57 -20q-45 -1 -45 40q0 42 46 75q27 20 57 20z" />
    <glyph glyph-name="glyph306" unicode="&#x1eb9;" horiz-adv-x="501" 
d="M521 223h-323q-3 -18 -3 -35q0 -97 79 -97q62 0 105 67l126 -21q-36 -72 -102 -112.5t-146 -40.5q-96 0 -152 54.5t-56 150.5q0 26 4 52q18 117 89 189q76 77 191 77q95 0 146 -53t51 -148q0 -32 -6 -66zM216 310h187q1 40 -19 69.5t-58 29.5q-82 0 -110 -99zM263 -61
q43 1 43 -37q0 -39 -44 -71q-26 -19 -53 -19q-43 -1 -43 37q0 40 44 71q27 19 53 19z" />
    <glyph glyph-name="glyph307" unicode="&#x1eba;" horiz-adv-x="488" 
d="M543 626h-243l-26 -166h234l-20 -128h-234l-33 -204h243l-20 -128h-390l119 754h390zM306 937q7 77 78 77q32 0 53 -23t21 -55t-23 -54t-56 -29l6 -22l-16 -16l-24 12l-26 75q2 0 11.5 -6t12.5 -6q48 0 55 44q5 33 -21 33q-28 0 -33 -23q-1 -2 -38 -7z" />
    <glyph glyph-name="glyph308" unicode="&#x1ebb;" horiz-adv-x="501" 
d="M521 223h-323q-3 -18 -3 -35q0 -97 79 -97q62 0 105 67l126 -21q-36 -72 -102 -112.5t-146 -40.5q-96 0 -152 54.5t-56 150.5q0 26 4 52q18 117 89 189q76 77 191 77q95 0 146 -53t51 -148q0 -32 -6 -66zM216 310h187q1 40 -19 69.5t-58 29.5q-82 0 -110 -99zM270 700
q7 77 78 77q32 0 53 -23t21 -55t-23 -54t-56 -29l6 -22l-16 -16l-24 12l-26 75q2 0 11.5 -6t12.5 -6q48 0 55 44q5 33 -21 33q-28 0 -33 -23q-1 -2 -38 -7z" />
    <glyph glyph-name="glyph309" unicode="&#x1ebc;" horiz-adv-x="488" 
d="M543 626h-243l-26 -166h234l-20 -128h-234l-33 -204h243l-20 -128h-390l119 754h390zM277 846l-46 -11l-15 9q84 100 157 100q19 0 45 -14q33 -14 35 -14q18 1 59 31l48 11l14 -10q-98 -102 -168 -103q-14 0 -40 15q-19 14 -35 14q-22 0 -54 -28z" />
    <glyph glyph-name="glyph310" unicode="&#x1ebd;" horiz-adv-x="501" 
d="M521 223h-323q-3 -18 -3 -35q0 -97 79 -97q62 0 105 67l126 -21q-36 -72 -102 -112.5t-146 -40.5q-96 0 -152 54.5t-56 150.5q0 26 4 52q18 117 89 189q76 77 191 77q95 0 146 -53t51 -148q0 -32 -6 -66zM216 310h187q1 40 -19 69.5t-58 29.5q-82 0 -110 -99zM261 589
l-44 -10l-14 8q79 95 149 95q14 0 43 -13t33 -13q17 1 56 29l45 11l14 -10q-95 -97 -160 -98q-12 0 -36 14t-35 14q-22 0 -51 -27z" />
    <glyph glyph-name="glyph311" unicode="&#x1ebe;" horiz-adv-x="488" 
d="M543 626h-243l-26 -166h234l-20 -128h-234l-33 -204h243l-20 -128h-390l119 754h390zM203 842l185 115l144 -115l-80 -37l-80 69l-107 -69zM532 873l1 54l75 112l69 -3q1 -1 1 -2q0 -2 -7 -11.5t-5 -12.5q1 -2 20 -13z" />
    <glyph glyph-name="glyph312" unicode="&#x1ebf;" horiz-adv-x="501" 
d="M521 223h-323q-3 -18 -3 -35q0 -97 79 -97q62 0 105 67l126 -21q-36 -72 -102 -112.5t-146 -40.5q-96 0 -152 54.5t-56 150.5q0 26 4 52q18 117 89 189q76 77 191 77q95 0 146 -53t51 -148q0 -32 -6 -66zM216 310h187q1 40 -19 69.5t-58 29.5q-82 0 -110 -99zM178 575
l176 109l137 -109l-76 -35l-76 65l-102 -65zM471 624l1 51l71 107l66 -3q1 -1 1 -2t-7 -10.5t-5 -12.5q8 -4 19 -12z" />
    <glyph glyph-name="glyph313" unicode="&#x1ec0;" horiz-adv-x="488" 
d="M543 626h-243l-26 -166h234l-20 -128h-234l-33 -204h243l-20 -128h-390l119 754h390zM204 842l185 115l144 -115l-80 -37l-80 69l-107 -69zM204 874l-154 124q8 3 20 13q2 3 -5 12.5t-7 11.5q0 1 1 2l69 3l75 -112z" />
    <glyph glyph-name="glyph314" unicode="&#x1ec1;" horiz-adv-x="501" 
d="M521 223h-323q-3 -18 -3 -35q0 -97 79 -97q62 0 105 67l126 -21q-36 -72 -102 -112.5t-146 -40.5q-96 0 -152 54.5t-56 150.5q0 26 4 52q18 117 89 189q76 77 191 77q95 0 146 -53t51 -148q0 -32 -6 -66zM216 310h187q1 40 -19 69.5t-58 29.5q-82 0 -110 -99zM179 575
l176 109l137 -109l-76 -35l-76 65l-102 -65zM209 625l-146 118q8 3 19 12q2 3 -5 12.5t-7 10.5q0 2 1 2l66 3l71 -107z" />
    <glyph glyph-name="glyph315" unicode="&#x1ec2;" horiz-adv-x="488" 
d="M543 626h-243l-26 -166h234l-20 -128h-234l-33 -204h243l-20 -128h-390l119 754h390zM201 842l185 115l144 -115l-80 -37l-80 69l-107 -69zM490 996q7 77 78 77q32 0 53 -23t21 -55t-23 -54t-56 -29l6 -22l-16 -16l-24 12l-26 75q2 0 11.5 -6t12.5 -6q48 0 55 44
q5 33 -21 33q-28 0 -33 -23q-1 -2 -38 -7z" />
    <glyph glyph-name="glyph316" unicode="&#x1ec3;" horiz-adv-x="501" 
d="M521 223h-323q-3 -18 -3 -35q0 -97 79 -97q62 0 105 67l126 -21q-36 -72 -102 -112.5t-146 -40.5q-96 0 -152 54.5t-56 150.5q0 26 4 52q18 117 89 189q76 77 191 77q95 0 146 -53t51 -148q0 -32 -6 -66zM216 310h187q1 40 -19 69.5t-58 29.5q-82 0 -110 -99zM179 576
l176 109l137 -109l-76 -36l-76 66l-102 -66zM460 729q7 77 78 77q32 0 53 -23t21 -55t-23 -54t-56 -29l6 -22l-16 -16l-24 12l-26 75q2 0 11.5 -6t12.5 -6q48 0 55 44q5 33 -21 33q-28 0 -33 -23q-1 -2 -38 -7z" />
    <glyph glyph-name="glyph317" unicode="&#x1ec4;" horiz-adv-x="488" 
d="M543 626h-243l-26 -166h234l-20 -128h-234l-33 -204h243l-20 -128h-390l119 754h390zM200 842l185 115l144 -115l-80 -37l-80 69l-107 -69zM260 989l-46 -11l-15 9q84 100 157 100q19 0 45 -14q33 -14 35 -14q18 1 59 31l48 11l14 -10q-98 -102 -168 -103q-14 0 -40 15
q-19 14 -35 14q-22 0 -54 -28z" />
    <glyph glyph-name="glyph318" unicode="&#x1ec5;" horiz-adv-x="501" 
d="M521 223h-323q-3 -18 -3 -35q0 -97 79 -97q62 0 105 67l126 -21q-36 -72 -102 -112.5t-146 -40.5q-96 0 -152 54.5t-56 150.5q0 26 4 52q18 117 89 189q76 77 191 77q95 0 146 -53t51 -148q0 -32 -6 -66zM216 310h187q1 40 -19 69.5t-58 29.5q-82 0 -110 -99zM180 576
l175 109l137 -109l-76 -35l-76 65l-101 -65zM237 715l-44 -10l-14 8q79 95 149 95q14 0 43 -13t33 -13q17 1 56 29l45 11l14 -10q-95 -97 -160 -98q-12 0 -36 14t-35 14q-22 0 -51 -27z" />
    <glyph glyph-name="glyph319" unicode="&#x1ec6;" horiz-adv-x="488" 
d="M543 626h-243l-26 -166h234l-20 -128h-234l-33 -204h243l-20 -128h-390l119 754h390zM203 842l185 115l144 -115l-80 -37l-80 69l-107 -69zM275 -52q45 1 45 -39q0 -42 -46 -76q-26 -20 -57 -20q-45 -1 -45 40q0 42 46 75q27 20 57 20z" />
    <glyph glyph-name="glyph320" unicode="&#x1ec7;" horiz-adv-x="501" 
d="M521 223h-323q-3 -18 -3 -35q0 -97 79 -97q62 0 105 67l126 -21q-36 -72 -102 -112.5t-146 -40.5q-96 0 -152 54.5t-56 150.5q0 26 4 52q18 117 89 189q76 77 191 77q95 0 146 -53t51 -148q0 -32 -6 -66zM216 310h187q1 40 -19 69.5t-58 29.5q-82 0 -110 -99zM179 575
l176 109l137 -109l-76 -35l-76 65l-102 -65zM263 -61q43 1 43 -37q0 -39 -44 -71q-26 -19 -53 -19q-43 -1 -43 37q0 40 44 71q27 19 53 19z" />
    <glyph glyph-name="glyph321" unicode="&#x1ec8;" horiz-adv-x="254" 
d="M320 754l-119 -754h-147l119 754h147zM183 937q7 77 78 77q32 0 53 -23t21 -55t-23 -54t-56 -29l6 -22l-16 -16l-24 12l-26 75q2 0 11.5 -6t12.5 -6q48 0 55 44q5 33 -21 33q-28 0 -33 -23q-1 -2 -38 -7z" />
    <glyph glyph-name="glyph322" unicode="&#x1ec9;" horiz-adv-x="253" 
d="M275 491l-78 -491h-140l78 491h140zM143 700q7 77 78 77q32 0 53 -23t21 -55t-23 -54t-56 -29l6 -22l-16 -16l-24 12l-26 75q2 0 11.5 -6t12.5 -6q48 0 55 44q5 33 -21 33q-28 0 -33 -23q-1 -2 -38 -7z" />
    <glyph glyph-name="glyph323" unicode="&#x1eca;" horiz-adv-x="254" 
d="M320 754l-119 -754h-147l119 754h147zM140 -52q45 1 45 -39q0 -42 -46 -76q-26 -20 -57 -20q-45 -1 -45 40q0 42 46 75q27 20 57 20z" />
    <glyph glyph-name="glyph324" unicode="&#x1ecb;" horiz-adv-x="253" 
d="M275 491l-78 -491h-140l78 491h140zM254 690q43 1 43 -37q0 -39 -44 -71q-26 -19 -53 -19q-43 -1 -43 37q0 41 44 72q25 18 53 18zM138 -51q43 1 43 -37q0 -39 -44 -71q-26 -19 -53 -19q-43 -1 -43 37q0 40 44 71q27 19 53 19z" />
    <glyph glyph-name="glyph325" unicode="&#x1ecc;" horiz-adv-x="782" 
d="M388 -20q-143 0 -229.5 92t-86.5 236q0 32 6 70q26 164 147 278q126 118 289 118q143 0 229 -92.5t86 -236.5q0 -202 -152 -346q-126 -119 -289 -119zM491 629q-104 0 -183.5 -87.5t-79.5 -192.5q0 -86 48 -151q53 -73 135 -73q90 0 171 86q77 80 91 173q3 20 3 39
q0 86 -49 144q-52 62 -136 62zM396 -72q45 1 45 -39q0 -42 -46 -76q-26 -20 -57 -20q-45 -1 -45 40q0 42 46 75q27 20 57 20z" />
    <glyph glyph-name="glyph326" unicode="&#x1ecd;" horiz-adv-x="548" 
d="M354 507q99 0 160 -57t61 -156q0 -24 -4 -49q-18 -116 -101 -188.5t-199 -72.5q-100 0 -160 56.5t-60 155.5q0 24 4 49q18 115 100.5 188.5t198.5 73.5zM335 383q-59 0 -101 -53q-39 -49 -39 -110q0 -46 25.5 -79t70.5 -33q60 0 101 53q39 49 39 110q0 47 -25 79.5
t-71 32.5zM280 -61q43 1 43 -37q0 -39 -44 -71q-26 -19 -53 -19q-43 -1 -43 37q0 40 44 71q27 19 53 19z" />
    <glyph glyph-name="glyph327" unicode="&#x1ece;" horiz-adv-x="782" 
d="M388 -20q-143 0 -229.5 92t-86.5 236q0 32 6 70q26 164 147 278q126 118 289 118q143 0 229 -92.5t86 -236.5q0 -202 -152 -346q-126 -119 -289 -119zM491 629q-104 0 -183.5 -87.5t-79.5 -192.5q0 -86 48 -151q53 -73 135 -73q90 0 171 86q77 80 91 173q3 20 3 39
q0 86 -49 144q-52 62 -136 62zM463 957q7 77 78 77q32 0 53 -23t21 -55t-23 -54t-56 -29l6 -22l-16 -16l-24 12l-26 75q2 0 11.5 -6t12.5 -6q48 0 55 44q5 33 -21 33q-28 0 -33 -23q-1 -2 -38 -7z" />
    <glyph glyph-name="glyph328" unicode="&#x1ecf;" horiz-adv-x="548" 
d="M354 507q99 0 160 -57t61 -156q0 -24 -4 -49q-18 -116 -101 -188.5t-199 -72.5q-100 0 -160 56.5t-60 155.5q0 24 4 49q18 115 100.5 188.5t198.5 73.5zM335 383q-59 0 -101 -53q-39 -49 -39 -110q0 -46 25.5 -79t70.5 -33q60 0 101 53q39 49 39 110q0 47 -25 79.5
t-71 32.5zM291 700q7 77 78 77q32 0 53 -23t21 -55t-23 -54t-56 -29l6 -22l-16 -16l-24 12l-26 75q2 0 11.5 -6t12.5 -6q48 0 55 44q5 33 -21 33q-28 0 -33 -23q-1 -2 -38 -7z" />
    <glyph glyph-name="glyph329" unicode="&#x1ed0;" horiz-adv-x="782" 
d="M388 -20q-143 0 -229.5 92t-86.5 236q0 32 6 70q26 164 147 278q126 118 289 118q143 0 229 -92.5t86 -236.5q0 -202 -152 -346q-126 -119 -289 -119zM491 629q-104 0 -183.5 -87.5t-79.5 -192.5q0 -86 48 -151q53 -73 135 -73q90 0 171 86q77 80 91 173q3 20 3 39
q0 86 -49 144q-52 62 -136 62zM357 843l185 115l144 -115l-80 -37l-80 69l-107 -69zM686 874l1 54l75 112l69 -3q1 -1 1 -2q0 -2 -7 -11.5t-5 -12.5q1 -2 20 -13z" />
    <glyph glyph-name="glyph330" unicode="&#x1ed1;" horiz-adv-x="548" 
d="M354 507q99 0 160 -57t61 -156q0 -24 -4 -49q-18 -116 -101 -188.5t-199 -72.5q-100 0 -160 56.5t-60 155.5q0 24 4 49q18 115 100.5 188.5t198.5 73.5zM335 383q-59 0 -101 -53q-39 -49 -39 -110q0 -46 25.5 -79t70.5 -33q60 0 101 53q39 49 39 110q0 47 -25 79.5
t-71 32.5zM206 575l176 109l137 -109l-76 -35l-76 65l-102 -65zM499 624l1 51l71 107l66 -3q1 -1 1 -2t-7 -10.5t-5 -12.5q8 -4 19 -12z" />
    <glyph glyph-name="glyph331" unicode="&#x1ed2;" horiz-adv-x="782" 
d="M388 -20q-143 0 -229.5 92t-86.5 236q0 32 6 70q26 164 147 278q126 118 289 118q143 0 229 -92.5t86 -236.5q0 -202 -152 -346q-126 -119 -289 -119zM491 629q-104 0 -183.5 -87.5t-79.5 -192.5q0 -86 48 -151q53 -73 135 -73q90 0 171 86q77 80 91 173q3 20 3 39
q0 86 -49 144q-52 62 -136 62zM357 842l185 115l144 -115l-80 -37l-80 69l-107 -69zM357 874l-154 124q8 3 20 13q2 3 -5 12.5t-7 11.5q0 1 1 2l69 3l75 -112z" />
    <glyph glyph-name="glyph332" unicode="&#x1ed3;" horiz-adv-x="548" 
d="M354 507q99 0 160 -57t61 -156q0 -24 -4 -49q-18 -116 -101 -188.5t-199 -72.5q-100 0 -160 56.5t-60 155.5q0 24 4 49q18 115 100.5 188.5t198.5 73.5zM335 383q-59 0 -101 -53q-39 -49 -39 -110q0 -46 25.5 -79t70.5 -33q60 0 101 53q39 49 39 110q0 47 -25 79.5
t-71 32.5zM207 575l176 109l137 -109l-76 -35l-76 65l-102 -65zM237 625l-146 118q8 3 19 12q2 3 -5 12.5t-7 10.5q0 2 1 2l66 3l71 -107z" />
    <glyph glyph-name="glyph333" unicode="&#x1ed4;" horiz-adv-x="782" 
d="M388 -20q-143 0 -229.5 92t-86.5 236q0 32 6 70q26 164 147 278q126 118 289 118q143 0 229 -92.5t86 -236.5q0 -202 -152 -346q-126 -119 -289 -119zM491 629q-104 0 -183.5 -87.5t-79.5 -192.5q0 -86 48 -151q53 -73 135 -73q90 0 171 86q77 80 91 173q3 20 3 39
q0 86 -49 144q-52 62 -136 62zM357 842l185 115l144 -115l-80 -37l-80 69l-107 -69zM646 996q7 77 78 77q32 0 53 -23t21 -55t-23 -54t-56 -29l6 -22l-16 -16l-24 12l-26 75q2 0 11.5 -6t12.5 -6q48 0 55 44q5 33 -21 33q-28 0 -33 -23q-1 -2 -38 -7z" />
    <glyph glyph-name="glyph334" unicode="&#x1ed5;" horiz-adv-x="548" 
d="M354 507q99 0 160 -57t61 -156q0 -24 -4 -49q-18 -116 -101 -188.5t-199 -72.5q-100 0 -160 56.5t-60 155.5q0 24 4 49q18 115 100.5 188.5t198.5 73.5zM335 383q-59 0 -101 -53q-39 -49 -39 -110q0 -46 25.5 -79t70.5 -33q60 0 101 53q39 49 39 110q0 47 -25 79.5
t-71 32.5zM207 576l176 109l137 -109l-76 -36l-76 66l-102 -66zM488 729q7 77 78 77q32 0 53 -23t21 -55t-23 -54t-56 -29l6 -22l-16 -16l-24 12l-26 75q2 0 11.5 -6t12.5 -6q48 0 55 44q5 33 -21 33q-28 0 -33 -23q-1 -2 -38 -7z" />
    <glyph glyph-name="glyph335" unicode="&#x1ed6;" horiz-adv-x="782" 
d="M388 -20q-143 0 -229.5 92t-86.5 236q0 32 6 70q26 164 147 278q126 118 289 118q143 0 229 -92.5t86 -236.5q0 -202 -152 -346q-126 -119 -289 -119zM491 629q-104 0 -183.5 -87.5t-79.5 -192.5q0 -86 48 -151q53 -73 135 -73q90 0 171 86q77 80 91 173q3 20 3 39
q0 86 -49 144q-52 62 -136 62zM357 842l185 115l144 -115l-80 -37l-80 69l-107 -69zM417 989l-46 -11l-15 9q84 100 157 100q19 0 45 -14q33 -14 35 -14q18 1 59 31l48 11l14 -10q-98 -102 -168 -103q-14 0 -40 15q-19 14 -35 14q-22 0 -54 -28z" />
    <glyph glyph-name="glyph336" unicode="&#x1ed7;" horiz-adv-x="548" 
d="M354 507q99 0 160 -57t61 -156q0 -24 -4 -49q-18 -116 -101 -188.5t-199 -72.5q-100 0 -160 56.5t-60 155.5q0 24 4 49q18 115 100.5 188.5t198.5 73.5zM335 383q-59 0 -101 -53q-39 -49 -39 -110q0 -46 25.5 -79t70.5 -33q60 0 101 53q39 49 39 110q0 47 -25 79.5
t-71 32.5zM208 576l175 109l137 -109l-76 -35l-76 65l-101 -65zM265 715l-44 -10l-14 8q79 95 149 95q14 0 43 -13t33 -13q17 1 56 29l45 11l14 -10q-95 -97 -160 -98q-12 0 -36 14t-35 14q-22 0 -51 -27z" />
    <glyph glyph-name="glyph337" unicode="&#x1ed8;" horiz-adv-x="782" 
d="M388 -20q-143 0 -229.5 92t-86.5 236q0 32 6 70q26 164 147 278q126 118 289 118q143 0 229 -92.5t86 -236.5q0 -202 -152 -346q-126 -119 -289 -119zM491 629q-104 0 -183.5 -87.5t-79.5 -192.5q0 -86 48 -151q53 -73 135 -73q90 0 171 86q77 80 91 173q3 20 3 39
q0 86 -49 144q-52 62 -136 62zM357 843l185 115l144 -115l-80 -37l-80 69l-107 -69zM396 -72q45 1 45 -39q0 -42 -46 -76q-26 -20 -57 -20q-45 -1 -45 40q0 42 46 75q27 20 57 20z" />
    <glyph glyph-name="glyph338" unicode="&#x1ed9;" horiz-adv-x="548" 
d="M354 507q99 0 160 -57t61 -156q0 -24 -4 -49q-18 -116 -101 -188.5t-199 -72.5q-100 0 -160 56.5t-60 155.5q0 24 4 49q18 115 100.5 188.5t198.5 73.5zM335 383q-59 0 -101 -53q-39 -49 -39 -110q0 -46 25.5 -79t70.5 -33q60 0 101 53q39 49 39 110q0 47 -25 79.5
t-71 32.5zM207 575l176 109l137 -109l-76 -35l-76 65l-102 -65zM280 -61q43 1 43 -37q0 -39 -44 -71q-26 -19 -53 -19q-43 -1 -43 37q0 40 44 71q27 19 53 19z" />
    <glyph glyph-name="glyph339" unicode="&#x1eda;" horiz-adv-x="782" 
d="M491 629q-104 0 -183.5 -87.5t-79.5 -192.5q0 -86 48 -151q53 -73 135 -73q90 0 171 86q77 80 91 173q3 20 3 39q0 86 -49 144q-52 62 -136 62zM624 756l124 -10q34 9 34 26q0 21 -16 26q-7 3 -13 3q-11 0 -19 -11q-2 -2 -38 12q21 43 65 43q14 0 28 -5q44 -16 44 -65
q0 -44 -48 -70q-28 -15 -52 -14q96 -94 96 -246q0 -202 -152 -346q-126 -119 -289 -119q-143 0 -229.5 92t-86.5 236q0 32 6 70q26 164 147 278q126 118 289 118q61 0 110 -18zM513 845l1 54l75 112l69 -3q1 -1 1 -2q0 -2 -7 -11.5t-5 -12.5q1 -2 20 -13z" />
    <glyph glyph-name="glyph340" unicode="&#x1edb;" horiz-adv-x="548" 
d="M335 383q-59 0 -101 -53q-39 -49 -39 -110q0 -46 25.5 -79t70.5 -33q60 0 101 53q39 49 39 110q0 47 -25 79.5t-71 32.5zM473 479q23 -1 46 -4q10 2 27 14q3 4 3 10q0 18 -15 23q-6 3 -11 3q-10 0 -18 -10q-2 -2 -34 11q19 39 59 39q11 0 25 -5q39 -14 39 -58
q0 -62 -69 -65q50 -56 50 -143q0 -24 -4 -49q-18 -116 -101 -188.5t-199 -72.5q-100 0 -160 56.5t-60 155.5q0 24 4 49q18 115 100.5 188.5t198.5 73.5q68 0 119 -28zM354 588l1 51l71 107l66 -3q1 -1 1 -2t-7 -10.5t-5 -12.5q8 -4 19 -12z" />
    <glyph glyph-name="glyph341" unicode="&#x1edc;" horiz-adv-x="782" 
d="M491 629q-104 0 -183.5 -87.5t-79.5 -192.5q0 -86 48 -151q53 -73 135 -73q90 0 171 86q77 80 91 173q3 20 3 39q0 86 -49 144q-52 62 -136 62zM624 756l124 -10q34 9 34 26q0 21 -16 26q-7 3 -13 3q-11 0 -19 -11q-2 -2 -38 12q21 43 65 43q14 0 28 -5q44 -16 44 -65
q0 -44 -48 -70q-28 -15 -52 -14q96 -94 96 -246q0 -202 -152 -346q-126 -119 -289 -119q-143 0 -229.5 92t-86.5 236q0 32 6 70q26 164 147 278q126 118 289 118q61 0 110 -18zM526 846l-154 124q8 3 20 13q2 3 -5 12.5t-7 11.5q0 1 1 2l69 3l75 -112z" />
    <glyph glyph-name="glyph342" unicode="&#x1edd;" horiz-adv-x="548" 
d="M335 383q-59 0 -101 -53q-39 -49 -39 -110q0 -46 25.5 -79t70.5 -33q60 0 101 53q39 49 39 110q0 47 -25 79.5t-71 32.5zM473 479q23 -1 46 -4q10 2 27 14q3 4 3 10q0 18 -15 23q-6 3 -11 3q-10 0 -18 -10q-2 -2 -34 11q19 39 59 39q11 0 25 -5q39 -14 39 -58
q0 -62 -69 -65q50 -56 50 -143q0 -24 -4 -49q-18 -116 -101 -188.5t-199 -72.5q-100 0 -160 56.5t-60 155.5q0 24 4 49q18 115 100.5 188.5t198.5 73.5q68 0 119 -28zM354 588l-146 118q8 3 19 12q2 3 -5 12.5t-7 10.5q0 2 1 2l66 3l71 -107z" />
    <glyph glyph-name="glyph343" unicode="&#x1ede;" horiz-adv-x="782" 
d="M491 629q-104 0 -183.5 -87.5t-79.5 -192.5q0 -86 48 -151q53 -73 135 -73q90 0 171 86q77 80 91 173q3 20 3 39q0 86 -49 144q-52 62 -136 62zM624 756l124 -10q34 9 34 26q0 21 -16 26q-7 3 -13 3q-11 0 -19 -11q-2 -2 -38 12q21 43 65 43q14 0 28 -5q44 -16 44 -65
q0 -44 -48 -70q-28 -15 -52 -14q96 -94 96 -246q0 -202 -152 -346q-126 -119 -289 -119q-143 0 -229.5 92t-86.5 236q0 32 6 70q26 164 147 278q126 118 289 118q61 0 110 -18zM463 957q7 77 78 77q32 0 53 -23t21 -55t-23 -54t-56 -29l6 -22l-16 -16l-24 12l-26 75
q2 0 11.5 -6t12.5 -6q48 0 55 44q5 33 -21 33q-28 0 -33 -23q-1 -2 -38 -7z" />
    <glyph glyph-name="glyph344" unicode="&#x1edf;" horiz-adv-x="548" 
d="M335 383q-59 0 -101 -53q-39 -49 -39 -110q0 -46 25.5 -79t70.5 -33q60 0 101 53q39 49 39 110q0 47 -25 79.5t-71 32.5zM473 479q23 -1 46 -4q10 2 27 14q3 4 3 10q0 18 -15 23q-6 3 -11 3q-10 0 -18 -10q-2 -2 -34 11q19 39 59 39q11 0 25 -5q39 -14 39 -58
q0 -62 -69 -65q50 -56 50 -143q0 -24 -4 -49q-18 -116 -101 -188.5t-199 -72.5q-100 0 -160 56.5t-60 155.5q0 24 4 49q18 115 100.5 188.5t198.5 73.5q68 0 119 -28zM291 700q7 77 78 77q32 0 53 -23t21 -55t-23 -54t-56 -29l6 -22l-16 -16l-24 12l-26 75q2 0 11.5 -6
t12.5 -6q48 0 55 44q5 33 -21 33q-28 0 -33 -23q-1 -2 -38 -7z" />
    <glyph glyph-name="glyph345" unicode="&#x1ee0;" horiz-adv-x="782" 
d="M491 629q-104 0 -183.5 -87.5t-79.5 -192.5q0 -86 48 -151q53 -73 135 -73q90 0 171 86q77 80 91 173q3 20 3 39q0 86 -49 144q-52 62 -136 62zM624 756l124 -10q34 9 34 26q0 21 -16 26q-7 3 -13 3q-11 0 -19 -11q-2 -2 -38 12q21 43 65 43q14 0 28 -5q44 -16 44 -65
q0 -44 -48 -70q-28 -15 -52 -14q96 -94 96 -246q0 -202 -152 -346q-126 -119 -289 -119q-143 0 -229.5 92t-86.5 236q0 32 6 70q26 164 147 278q126 118 289 118q61 0 110 -18zM418 846l-46 -11l-15 9q84 100 157 100q19 0 45 -14q33 -14 35 -14q18 1 59 31l48 11l14 -10
q-98 -102 -168 -103q-14 0 -40 15q-19 14 -35 14q-22 0 -54 -28z" />
    <glyph glyph-name="glyph346" unicode="&#x1ee1;" horiz-adv-x="548" 
d="M335 383q-59 0 -101 -53q-39 -49 -39 -110q0 -46 25.5 -79t70.5 -33q60 0 101 53q39 49 39 110q0 47 -25 79.5t-71 32.5zM473 479q23 -1 46 -4q10 2 27 14q3 4 3 10q0 18 -15 23q-6 3 -11 3q-10 0 -18 -10q-2 -2 -34 11q19 39 59 39q11 0 25 -5q39 -14 39 -58
q0 -62 -69 -65q50 -56 50 -143q0 -24 -4 -49q-18 -116 -101 -188.5t-199 -72.5q-100 0 -160 56.5t-60 155.5q0 24 4 49q18 115 100.5 188.5t198.5 73.5q68 0 119 -28zM264 589l-44 -10l-14 8q79 95 149 95q14 0 43 -13t33 -13q17 1 56 29l45 11l14 -10q-95 -97 -160 -98
q-12 0 -36 14t-35 14q-22 0 -51 -27z" />
    <glyph glyph-name="glyph347" unicode="&#x1ee2;" horiz-adv-x="782" 
d="M491 629q-104 0 -183.5 -87.5t-79.5 -192.5q0 -86 48 -151q53 -73 135 -73q90 0 171 86q77 80 91 173q3 20 3 39q0 86 -49 144q-52 62 -136 62zM624 756l124 -10q34 9 34 26q0 21 -16 26q-7 3 -13 3q-11 0 -19 -11q-2 -2 -38 12q21 43 65 43q14 0 28 -5q44 -16 44 -65
q0 -44 -48 -70q-28 -15 -52 -14q96 -94 96 -246q0 -202 -152 -346q-126 -119 -289 -119q-143 0 -229.5 92t-86.5 236q0 32 6 70q26 164 147 278q126 118 289 118q61 0 110 -18zM396 -72q45 1 45 -39q0 -42 -46 -76q-26 -20 -57 -20q-45 -1 -45 40q0 42 46 75q27 20 57 20z
" />
    <glyph glyph-name="glyph348" unicode="&#x1ee3;" horiz-adv-x="548" 
d="M335 383q-59 0 -101 -53q-39 -49 -39 -110q0 -46 25.5 -79t70.5 -33q60 0 101 53q39 49 39 110q0 47 -25 79.5t-71 32.5zM473 479q23 -1 46 -4q10 2 27 14q3 4 3 10q0 18 -15 23q-6 3 -11 3q-10 0 -18 -10q-2 -2 -34 11q19 39 59 39q11 0 25 -5q39 -14 39 -58
q0 -62 -69 -65q50 -56 50 -143q0 -24 -4 -49q-18 -116 -101 -188.5t-199 -72.5q-100 0 -160 56.5t-60 155.5q0 24 4 49q18 115 100.5 188.5t198.5 73.5q68 0 119 -28zM280 -61q43 1 43 -37q0 -39 -44 -71q-26 -19 -53 -19q-43 -1 -43 37q0 40 44 71q27 19 53 19z" />
    <glyph glyph-name="glyph349" unicode="&#x1ee4;" horiz-adv-x="660" 
d="M98 303l71 451h147l-66 -422q-9 -58 -9 -95q0 -129 106 -129q83 0 126 77q28 50 43 147l66 422h147l-71 -451q-23 -148 -101 -231q-86 -92 -230 -92q-236 0 -236 238q0 41 7 85zM338 -72q45 1 45 -39q0 -42 -46 -76q-26 -20 -57 -20q-45 -1 -45 40q0 42 46 75
q27 20 57 20z" />
    <glyph glyph-name="glyph350" unicode="&#x1ee5;" horiz-adv-x="535" 
d="M125 491h140l-42 -266q-4 -25 -4 -48q0 -75 64 -75q81 0 100 123l42 266h140l-46 -289q-35 -218 -255 -218q-190 0 -190 164q0 23 5 54zM272 -61q43 1 43 -37q0 -39 -44 -71q-26 -19 -53 -19q-43 -1 -43 37q0 40 44 71q27 19 53 19z" />
    <glyph glyph-name="glyph351" unicode="&#x1ee6;" horiz-adv-x="660" 
d="M98 303l71 451h147l-66 -422q-9 -58 -9 -95q0 -129 106 -129q83 0 126 77q28 50 43 147l66 422h147l-71 -451q-23 -148 -101 -231q-86 -92 -230 -92q-236 0 -236 238q0 41 7 85zM384 927q7 77 78 77q32 0 53 -23t21 -55t-23 -54t-56 -29l6 -22l-16 -16l-24 12l-26 75
q2 0 11.5 -6t12.5 -6q48 0 55 44q5 33 -21 33q-28 0 -33 -23q-1 -2 -38 -7z" />
    <glyph glyph-name="glyph352" unicode="&#x1ee7;" horiz-adv-x="535" 
d="M125 491h140l-42 -266q-4 -25 -4 -48q0 -75 64 -75q81 0 100 123l42 266h140l-46 -289q-35 -218 -255 -218q-190 0 -190 164q0 23 5 54zM283 676q7 77 78 77q32 0 53 -23t21 -55t-23 -54t-56 -29l6 -22l-16 -16l-24 12l-26 75q2 0 11.5 -6t12.5 -6q48 0 55 44
q5 33 -21 33q-28 0 -33 -23q-1 -2 -38 -7z" />
    <glyph glyph-name="glyph353" unicode="&#x1ee8;" horiz-adv-x="660" 
d="M721 704l-63 -401q-23 -148 -101 -231q-86 -92 -230 -92q-236 0 -236 238q0 41 7 85l71 451h147l-66 -422q-9 -58 -9 -95q0 -129 106 -129q83 0 126 77q28 50 43 147l66 422l146 -8q34 9 34 26q0 21 -16 26q-7 3 -13 3q-11 0 -19 -11q-2 -2 -38 12q21 43 65 43
q14 0 28 -5q44 -16 44 -65q0 -19 -9 -35q-23 -42 -83 -36zM447 815l1 54l75 112l69 -3q1 -1 1 -2q0 -2 -7 -11.5t-5 -12.5q1 -2 20 -13z" />
    <glyph glyph-name="glyph354" unicode="&#x1ee9;" horiz-adv-x="535" 
d="M557 438l-38 -236q-35 -218 -255 -218q-190 0 -190 164q0 23 5 54l46 289h140l-42 -266q-4 -25 -4 -48q0 -75 64 -75q81 0 100 123l42 266h108q15 -8 29 -16q10 2 27 14q3 4 3 10q0 18 -15 23q-6 3 -11 3q-10 0 -18 -10q-2 -2 -34 11q19 39 59 39q11 0 25 -5
q39 -14 39 -58q0 -17 -8 -32q-21 -38 -72 -32zM346 554l1 51l71 107l66 -3q1 -1 1 -2t-7 -10.5t-5 -12.5q8 -4 19 -12z" />
    <glyph glyph-name="glyph355" unicode="&#x1eea;" horiz-adv-x="660" 
d="M721 704l-63 -401q-23 -148 -101 -231q-86 -92 -230 -92q-236 0 -236 238q0 41 7 85l71 451h147l-66 -422q-9 -58 -9 -95q0 -129 106 -129q83 0 126 77q28 50 43 147l66 422l146 -8q34 9 34 26q0 21 -16 26q-7 3 -13 3q-11 0 -19 -11q-2 -2 -38 12q21 43 65 43
q14 0 28 -5q44 -16 44 -65q0 -19 -9 -35q-23 -42 -83 -36zM447 816l-154 124q8 3 20 13q2 3 -5 12.5t-7 11.5q0 1 1 2l69 3l75 -112z" />
    <glyph glyph-name="glyph356" unicode="&#x1eeb;" horiz-adv-x="535" 
d="M557 438l-38 -236q-35 -218 -255 -218q-190 0 -190 164q0 23 5 54l46 289h140l-42 -266q-4 -25 -4 -48q0 -75 64 -75q81 0 100 123l42 266h108q15 -8 29 -16q10 2 27 14q3 4 3 10q0 18 -15 23q-6 3 -11 3q-10 0 -18 -10q-2 -2 -34 11q19 39 59 39q11 0 25 -5
q39 -14 39 -58q0 -17 -8 -32q-21 -38 -72 -32zM346 554l-146 118q8 3 19 12q2 3 -5 12.5t-7 10.5q0 2 1 2l66 3l71 -107z" />
    <glyph glyph-name="glyph357" unicode="&#x1eec;" horiz-adv-x="660" 
d="M721 704l-63 -401q-23 -148 -101 -231q-86 -92 -230 -92q-236 0 -236 238q0 41 7 85l71 451h147l-66 -422q-9 -58 -9 -95q0 -129 106 -129q83 0 126 77q28 50 43 147l66 422l146 -8q34 9 34 26q0 21 -16 26q-7 3 -13 3q-11 0 -19 -11q-2 -2 -38 12q21 43 65 43
q14 0 28 -5q44 -16 44 -65q0 -19 -9 -35q-23 -42 -83 -36zM384 927q7 77 78 77q32 0 53 -23t21 -55t-23 -54t-56 -29l6 -22l-16 -16l-24 12l-26 75q2 0 11.5 -6t12.5 -6q48 0 55 44q5 33 -21 33q-28 0 -33 -23q-1 -2 -38 -7z" />
    <glyph glyph-name="glyph358" unicode="&#x1eed;" horiz-adv-x="535" 
d="M557 438l-38 -236q-35 -218 -255 -218q-190 0 -190 164q0 23 5 54l46 289h140l-42 -266q-4 -25 -4 -48q0 -75 64 -75q81 0 100 123l42 266h108q15 -8 29 -16q10 2 27 14q3 4 3 10q0 18 -15 23q-6 3 -11 3q-10 0 -18 -10q-2 -2 -34 11q19 39 59 39q11 0 25 -5
q39 -14 39 -58q0 -17 -8 -32q-21 -38 -72 -32zM283 676q7 77 78 77q32 0 53 -23t21 -55t-23 -54t-56 -29l6 -22l-16 -16l-24 12l-26 75q2 0 11.5 -6t12.5 -6q48 0 55 44q5 33 -21 33q-28 0 -33 -23q-1 -2 -38 -7z" />
    <glyph glyph-name="glyph359" unicode="&#x1eee;" horiz-adv-x="660" 
d="M721 704l-63 -401q-23 -148 -101 -231q-86 -92 -230 -92q-236 0 -236 238q0 41 7 85l71 451h147l-66 -422q-9 -58 -9 -95q0 -129 106 -129q83 0 126 77q28 50 43 147l66 422l146 -8q34 9 34 26q0 21 -16 26q-7 3 -13 3q-11 0 -19 -11q-2 -2 -38 12q21 43 65 43
q14 0 28 -5q44 -16 44 -65q0 -19 -9 -35q-23 -42 -83 -36zM351 816l-46 -11l-15 9q84 100 157 100q19 0 45 -14q33 -14 35 -14q18 1 59 31l48 11l14 -10q-98 -102 -168 -103q-14 0 -40 15q-19 14 -35 14q-22 0 -54 -28z" />
    <glyph glyph-name="glyph360" unicode="&#x1eef;" horiz-adv-x="535" 
d="M557 438l-38 -236q-35 -218 -255 -218q-190 0 -190 164q0 23 5 54l46 289h140l-42 -266q-4 -25 -4 -48q0 -75 64 -75q81 0 100 123l42 266h108q15 -8 29 -16q10 2 27 14q3 4 3 10q0 18 -15 23q-6 3 -11 3q-10 0 -18 -10q-2 -2 -34 11q19 39 59 39q11 0 25 -5
q39 -14 39 -58q0 -17 -8 -32q-21 -38 -72 -32zM256 554l-44 -10l-14 8q79 95 149 95q14 0 43 -13t33 -13q17 1 56 29l45 11l14 -10q-95 -97 -160 -98q-12 0 -36 14t-35 14q-22 0 -51 -27z" />
    <glyph glyph-name="glyph361" unicode="&#x1ef0;" horiz-adv-x="660" 
d="M721 704l-63 -401q-23 -148 -101 -231q-86 -92 -230 -92q-236 0 -236 238q0 41 7 85l71 451h147l-66 -422q-9 -58 -9 -95q0 -129 106 -129q83 0 126 77q28 50 43 147l66 422l146 -8q34 9 34 26q0 21 -16 26q-7 3 -13 3q-11 0 -19 -11q-2 -2 -38 12q21 43 65 43
q14 0 28 -5q44 -16 44 -65q0 -19 -9 -35q-23 -42 -83 -36zM338 -72q45 1 45 -39q0 -42 -46 -76q-26 -20 -57 -20q-45 -1 -45 40q0 42 46 75q27 20 57 20z" />
    <glyph glyph-name="glyph362" unicode="&#x1ef1;" horiz-adv-x="535" 
d="M557 438l-38 -236q-35 -218 -255 -218q-190 0 -190 164q0 23 5 54l46 289h140l-42 -266q-4 -25 -4 -48q0 -75 64 -75q81 0 100 123l42 266h108q15 -8 29 -16q10 2 27 14q3 4 3 10q0 18 -15 23q-6 3 -11 3q-10 0 -18 -10q-2 -2 -34 11q19 39 59 39q11 0 25 -5
q39 -14 39 -58q0 -17 -8 -32q-21 -38 -72 -32zM272 -61q43 1 43 -37q0 -39 -44 -71q-26 -19 -53 -19q-43 -1 -43 37q0 40 44 71q27 19 53 19z" />
    <glyph glyph-name="glyph363" unicode="&#x1ef2;" horiz-adv-x="587" 
d="M273 346l-170 408h171l91 -262l185 262h172l-302 -408l-55 -346h-147zM410 805l-154 124q8 3 20 13q2 3 -5 12.5t-7 11.5q0 1 1 2l69 3l75 -112z" />
    <glyph glyph-name="glyph364" unicode="&#x1ef3;" horiz-adv-x="520" 
d="M203 75l-143 416h159l73 -279l170 279h156l-476 -753h-154zM340 540l-146 118q8 3 19 12q2 3 -5 12.5t-7 10.5q0 2 1 2l66 3l71 -107z" />
    <glyph glyph-name="glyph365" unicode="&#x1ef4;" horiz-adv-x="587" 
d="M273 346l-170 408h171l91 -262l185 262h172l-302 -408l-55 -346h-147zM303 -52q45 1 45 -39q0 -42 -46 -76q-26 -20 -57 -20q-45 -1 -45 40q0 42 46 75q27 20 57 20z" />
    <glyph glyph-name="glyph366" unicode="&#x1ef5;" horiz-adv-x="520" 
d="M203 75l-143 416h159l73 -279l170 279h156l-476 -753h-154zM382 -61q43 1 43 -37q0 -39 -44 -71q-26 -19 -53 -19q-43 -1 -43 37q0 40 44 71q27 19 53 19z" />
    <glyph glyph-name="glyph367" unicode="&#x1ef6;" horiz-adv-x="587" 
d="M273 346l-170 408h171l91 -262l185 262h172l-302 -408l-55 -346h-147zM347 917q7 77 78 77q32 0 53 -23t21 -55t-23 -54t-56 -29l6 -22l-16 -16l-24 12l-26 75q2 0 11.5 -6t12.5 -6q48 0 55 44q5 33 -21 33q-28 0 -33 -23q-1 -2 -38 -7z" />
    <glyph glyph-name="glyph368" unicode="&#x1ef7;" horiz-adv-x="520" 
d="M203 75l-143 416h159l73 -279l170 279h156l-476 -753h-154zM277 652q7 77 78 77q32 0 53 -23t21 -55t-23 -54t-56 -29l6 -22l-16 -16l-24 12l-26 75q2 0 11.5 -6t12.5 -6q48 0 55 44q5 33 -21 33q-28 0 -33 -23q-1 -2 -38 -7z" />
    <glyph glyph-name="glyph369" unicode="&#x1ef8;" horiz-adv-x="587" 
d="M273 346l-170 408h171l91 -262l185 262h172l-302 -408l-55 -346h-147zM295 806l-46 -11l-15 9q84 100 157 100q19 0 45 -14q33 -14 35 -14q18 1 59 31l48 11l14 -10q-98 -102 -168 -103q-14 0 -40 15q-19 14 -35 14q-22 0 -54 -28z" />
    <glyph glyph-name="glyph370" unicode="&#x1ef9;" horiz-adv-x="520" 
d="M203 75l-143 416h159l73 -279l170 279h156l-476 -753h-154zM231 541l-44 -10l-14 8q79 95 149 95q14 0 43 -13t33 -13q17 1 56 29l45 11l14 -10q-95 -97 -160 -98q-12 0 -36 14t-35 14q-22 0 -51 -27z" />
    <glyph glyph-name="endash" unicode="&#x2013;" horiz-adv-x="500" 
d="M60 378h500l-18 -115h-500z" />
    <glyph glyph-name="emdash" unicode="&#x2014;" horiz-adv-x="1000" 
d="M60 378h1000l-18 -115h-1000z" />
    <glyph glyph-name="quoteleft" unicode="&#x2018;" horiz-adv-x="296" 
d="M232 459l-127 14l192 301l91 -11z" />
    <glyph glyph-name="quoteright" unicode="&#x2019;" horiz-adv-x="296" 
d="M262 774l125 -15l-191 -300l-92 11z" />
    <glyph glyph-name="quotesinglbase" unicode="&#x201a;" horiz-adv-x="296" 
d="M164 156l125 -14l-191 -301l-91 11z" />
    <glyph glyph-name="quotedblleft" unicode="&#x201c;" horiz-adv-x="488" 
d="M423 459l-127 14l192 301l91 -11zM232 459l-127 14l192 301l91 -11z" />
    <glyph glyph-name="quotedblright" unicode="&#x201d;" horiz-adv-x="488" 
d="M262 774l125 -15l-191 -300l-92 11zM453 774l125 -15l-191 -300l-92 11z" />
    <glyph glyph-name="quotedblbase" unicode="&#x201e;" horiz-adv-x="488" 
d="M164 156l125 -14l-191 -301l-91 11zM355 156l125 -14l-191 -301l-91 11z" />
    <glyph glyph-name="dagger" unicode="&#x2020;" horiz-adv-x="577" 
d="M357 848h131l-38 -240h162l-18 -116h-162l-93 -589h-131l93 589h-162l18 116h162z" />
    <glyph glyph-name="daggerdbl" unicode="&#x2021;" horiz-adv-x="577" 
d="M357 848h131l-33 -211h162l-18 -116h-162l-22 -133h162l-18 -116h-162l-58 -368h-131l58 368h-162l18 116h162l22 133h-162l18 116h162z" />
    <glyph glyph-name="bullet" unicode="&#x2022;" horiz-adv-x="577" 
d="M318 189q-70 0 -115.5 44.5t-45.5 114.5q0 87 67 152.5t154 65.5q70 0 115.5 -44.5t45.5 -114.5q0 -87 -67 -152.5t-154 -65.5z" />
    <glyph glyph-name="ellipsis" unicode="&#x2026;" horiz-adv-x="1000" 
d="M192 161q33 0 55 -20.5t22 -53.5q0 -41 -32 -72.5t-73 -31.5q-33 0 -54.5 21.5t-21.5 54.5q0 41 31.5 71.5t72.5 30.5zM525 158q33 0 54.5 -20.5t21.5 -53.5q0 -41 -31.5 -72.5t-72.5 -31.5q-33 0 -54.5 21.5t-21.5 54.5q0 41 31.5 71.5t72.5 30.5zM858 158
q33 0 54.5 -20.5t21.5 -53.5q0 -41 -31.5 -72.5t-72.5 -31.5q-33 0 -54.5 21.5t-21.5 54.5q0 41 31.5 71.5t72.5 30.5z" />
    <glyph glyph-name="perthousand" unicode="&#x2030;" horiz-adv-x="1200" 
d="M325 774q67 0 110 -40.5t43 -107.5q0 -12 -3 -31q-12 -77 -70.5 -127.5t-136.5 -50.5q-67 0 -110 40t-43 107q0 18 2 31q12 77 71 128t137 51zM312 693q-40 0 -68.5 -36.5t-28.5 -78.5q0 -33 16 -55q18 -25 50 -25q40 0 70 38q27 36 27 77q0 32 -16 55q-19 25 -50 25z
M694 780l62 -34l-527 -777l-63 35zM657 337q68 0 111 -40t43 -108q0 -12 -3 -31q-12 -77 -70.5 -127.5t-136.5 -50.5q-68 0 -111 40t-43 107q0 12 3 31q12 77 70.5 128t136.5 51zM645 256q-40 0 -68.5 -36.5t-28.5 -78.5q0 -33 16 -55q18 -25 50 -25q41 0 69 38q27 35 27 77
q0 32 -17 56t-48 24zM1052 337q68 0 111 -40t43 -108q0 -12 -3 -31q-12 -77 -70.5 -127.5t-136.5 -50.5q-68 0 -111 40t-43 107q0 12 3 31q12 77 70.5 128t136.5 51zM1040 256q-40 0 -68.5 -36.5t-28.5 -78.5q0 -33 16 -55q18 -25 50 -25q41 0 69 38q27 35 27 77
q0 32 -17 56t-48 24z" />
    <glyph glyph-name="guilsinglleft" unicode="&#x2039;" horiz-adv-x="314" 
d="M190 320l96 -182l-96 -58l-121 240l197 243l77 -56z" />
    <glyph glyph-name="guilsinglright" unicode="&#x203a;" horiz-adv-x="314" 
d="M72 138l154 182l-95 187l95 56l121 -243l-197 -240z" />
    <glyph glyph-name="fraction" unicode="&#x2044;" horiz-adv-x="179" 
d="M381 780l62 -34l-527 -777l-63 35z" />
    <glyph glyph-name="franc" unicode="&#x20a3;" horiz-adv-x="1035" 
d="M527 626h-227l-26 -166h213l-20 -128h-213l-53 -332h-147l119 754h374zM920 491l-8 -51h2q54 67 132 67q27 0 56 -12l-37 -130q-23 18 -55 18q-65 0 -98 -52q-23 -36 -35 -110l-35 -221h-140l78 491h140z" />
    <glyph glyph-name="u20AB" unicode="&#x20ab;" horiz-adv-x="393" 
d="M197 501q-48 0 -84 -88q-20 -49 -20 -90q0 -51 39 -51q41 0 74 71q28 60 28 107q0 51 -37 51zM200 267q-53 -62 -106 -62q-91 0 -91 102q0 81 54 153q59 78 137 78q34 0 61 -24l20 75h-100l10 36h100l2 16q0 31 -48 32l7 33q67 2 128 14l15 3q6 0 6 -9q-1 -2 -3 -12
l-19 -77h65l-10 -36h-65l-69 -280q-5 -20 -5 -27q0 -15 12 -15q6 0 49 42l20 -18q-70 -86 -117 -86q-43 0 -53 62zM9 160h221v-56h-221v56z" />
    <glyph glyph-name="trademark" unicode="&#x2122;" horiz-adv-x="1000" 
d="M501 754l-11 -75h-127l-55 -346h-86l55 346h-127l11 75h340zM1077 754l-66 -421h-86l53 335h-2l-175 -335h-83l-65 335h-2l-53 -335h-86l66 421h149l55 -275h2l145 275h148z" />
    <glyph glyph-name="minus" unicode="&#x2212;" 
d="M64 197l19 118h512l-19 -118h-512z" />
    <glyph glyph-name="SF370000" unicode="&#x255f;" horiz-adv-x="718" 
d="M495 159h-262l-87 -159h-155l417 774h114l163 -774h-157zM473 279l-50 274h-2l-127 -274h179z" />
    <glyph glyph-name="SF420000" unicode="&#x2560;" horiz-adv-x="681" 
d="M543 626h-243l-26 -166h234l-20 -128h-234l-33 -204h243l-20 -128h-390l119 754h390z" />
    <glyph glyph-name="SF190000" unicode="&#x2561;" horiz-adv-x="429" 
d="M320 754l-119 -754h-147l119 754h147z" />
    <glyph glyph-name="SF200000" unicode="&#x2562;" horiz-adv-x="773" 
d="M388 -20q-142 0 -229 92.5t-87 235.5q0 33 6 70q26 163 149.5 279.5t286.5 116.5q142 0 230 -94q85 -91 85 -234q0 -36 -5 -68q-26 -165 -147 -279q-125 -119 -289 -119zM491 629q-104 0 -183.5 -87.5t-79.5 -192.5q0 -85 48 -151q53 -73 135 -73q99 0 184 100
q81 96 81 198q0 85 -49 144q-52 62 -136 62z" />
    <glyph glyph-name="SF230000" unicode="&#x2563;" horiz-adv-x="811" 
d="M98 303l71 451h147l-66 -422q-10 -64 -10 -94q0 -130 107 -130q84 0 126 77q28 51 43 147l66 422h147l-71 -451q-23 -147 -101 -231q-87 -92 -230 -92q-236 0 -236 238q0 41 7 85z" />
    <glyph glyph-name="SF470000" unicode="&#x2564;" horiz-adv-x="699" 
d="M273 346l-170 408h171l91 -262l185 262h172l-302 -408l-55 -346h-147z" />
    <glyph glyph-name="SF480000" unicode="&#x2565;" horiz-adv-x="541" 
d="M592 491l-78 -491h-138l7 45h-2q-56 -61 -143 -61q-89 0 -141 63q-47 59 -47 150q0 117 75 211q79 99 194 99q85 0 127 -62l8 46h138zM290 108q58 0 101 53q40 50 40 109q0 46 -26 79.5t-71 33.5q-58 0 -99 -51t-41 -110q0 -47 24 -79q26 -35 72 -35z" />
    <glyph glyph-name="SF410000" unicode="&#x2566;" horiz-adv-x="431" 
d="M521 223h-323q-3 -18 -3 -35q0 -97 79 -97q62 0 105 67l126 -21q-36 -72 -101.5 -112.5t-146.5 -40.5q-96 0 -152 54.5t-56 150.5q0 27 4 52q19 118 89 189q75 77 191 77q96 0 146 -53.5t50 -149.5q0 -36 -5 -64zM216 310h187q1 40 -19 69.5t-58 29.5q-40 0 -71 -30
q-27 -27 -39 -69z" />
    <glyph glyph-name="SF450000" unicode="&#x2567;" horiz-adv-x="314" 
d="M275 491l-78 -491h-140l78 491h140zM251 780q30 0 50 -20t20 -50q0 -38 -29.5 -67t-67.5 -29q-31 0 -51 19.5t-20 50.5q0 38 30 67t68 29z" />
    <glyph glyph-name="SF460000" unicode="&#x2568;" horiz-adv-x="314" 
d="M275 491l-78 -491h-140l78 491h140z" />
    <glyph glyph-name="SF400000" unicode="&#x2569;" horiz-adv-x="498" 
d="M354 507q99 0 160 -57.5t61 -155.5q0 -24 -4 -49q-18 -115 -101 -188t-199 -73q-99 0 -159.5 57t-60.5 155q0 24 4 49q18 115 101 188.5t198 73.5zM335 383q-59 0 -99.5 -50.5t-40.5 -111.5q0 -47 24 -78q27 -35 72 -35q58 0 100 53q40 50 40 109q0 47 -24 78
q-26 35 -72 35z" />
    <glyph glyph-name="SF540000" unicode="&#x256a;" horiz-adv-x="557" 
d="M125 491h140l-42 -266q-5 -32 -5 -47q0 -76 65 -76q81 0 100 123l42 266h140l-46 -289q-35 -218 -255 -218q-190 0 -190 164q0 23 5 54z" />
    <glyph glyph-name="SF530000" unicode="&#x256b;" horiz-adv-x="497" 
d="M203 75l-143 416h159l73 -279l170 279h156l-476 -753h-154z" />
    <glyph glyph-name="circle" unicode="&#x25cb;" horiz-adv-x="718" 
d="M356 852l195 154l145 -154l-70 -66l-94 104l-126 -104zM524 1194l92 -62l-175 -150l-64 44z" />
    <glyph glyph-name="H18533" unicode="&#x25cf;" horiz-adv-x="718" 
d="M356 852l195 154l145 -154l-70 -66l-94 104l-126 -104zM503 1133l112 62l93 -168l-78 -44z" />
    <glyph glyph-name="invbullet" unicode="&#x25d8;" horiz-adv-x="718" 
d="M356 852l195 154l145 -154l-70 -66l-94 104l-126 -104zM614 903q9 28 11 64q1 11 8 13q2 0 8 1q67 11 67 54q0 35 -28 35q-5 0 -14 -1t-14 -1q-21 0 -21 18q0 28 32 28q46 0 75 -24q31 -27 27 -72q-6 -59 -87 -81q-25 -7 -31 -34h-33z" />
    <glyph glyph-name="invcircle" unicode="&#x25d9;" horiz-adv-x="718" 
d="M356 852l195 154l145 -154l-70 -66l-94 104l-126 -104zM463 1024v0h-82q12 51 45 92q39 47 86 47q25 0 73 -21.5t62 -21.5q26 0 54 42h83q-19 -56 -52 -94q-41 -47 -92 -47q-21 0 -65 22t-63 22q-31 0 -49 -41z" />
    <glyph glyph-name="fi" unicode="&#xf001;" horiz-adv-x="544" 
d="M254 373l-59 -373h-140l59 373h-47l19 118h47l23 144q16 100 66 158q58 67 154 67q37 0 65 -16l-20 -125q-31 17 -54 17q-40 0 -58 -45q-9 -22 -17 -76l-19 -124h112l-19 -118h-112zM565 491l-78 -491h-140l78 491h140zM541 780q30 0 50 -20t20 -50q0 -38 -29.5 -67
t-67.5 -29q-31 0 -51 19.5t-20 50.5q0 38 30 67t68 29z" />
    <glyph glyph-name="fl" unicode="&#xf002;" horiz-adv-x="543" 
d="M627 848l-134 -848h-140l134 848h140zM254 373l-59 -373h-140l59 373h-47l19 118h47l23 144q16 100 66 158q58 67 154 67q37 0 65 -16l-20 -125q-31 17 -54 17q-40 0 -58 -45q-9 -22 -17 -76l-19 -124h112l-19 -118h-112z" />
    <glyph glyph-name="periodcentered" horiz-adv-x="289" 
d="M200 345q33 0 54.5 -20.5t21.5 -53.5q0 -41 -32 -72.5t-73 -31.5q-32 0 -53.5 22t-21.5 54q0 41 31.5 71.5t72.5 30.5z" />
    <glyph glyph-name="glyph231" horiz-adv-x="289" 
 />
    <glyph glyph-name="glyph232" horiz-adv-x="289" 
 />
    <glyph glyph-name="glyph258" horiz-adv-x="278" 
 />
    <glyph glyph-name="glyph259" horiz-adv-x="278" 
 />
    <glyph glyph-name="glyph275" horiz-adv-x="249" 
 />
    <glyph glyph-name="glyph276" horiz-adv-x="249" 
 />
    <glyph glyph-name="glyph261" horiz-adv-x="500" 
d="M253 522q9 28 11 64q1 11 8 13q2 0 8 1q67 11 67 54q0 35 -28 35q-5 0 -14 -1t-14 -1q-21 0 -21 18q0 28 32 28q46 0 75 -24q31 -27 27 -72q-6 -59 -87 -81q-25 -7 -31 -34h-33z" />
    <glyph glyph-name="glyph262" horiz-adv-x="541" 
d="M153 620l195 154l145 -154l-70 -66l-94 104l-126 -104zM320 963l92 -62l-175 -150l-64 44z" />
    <glyph glyph-name="glyph263" horiz-adv-x="541" 
d="M153 620l195 154l145 -154l-70 -66l-94 104l-126 -104zM300 901l112 62l93 -168l-78 -44z" />
    <glyph glyph-name="glyph264" horiz-adv-x="541" 
d="M153 620l195 154l145 -154l-70 -66l-94 104l-126 -104zM411 671q9 28 11 64q1 11 8 13q2 0 8 1q67 11 67 54q0 35 -28 35q-5 0 -14 -1t-14 -1q-21 0 -21 18q0 28 32 28q46 0 75 -24q31 -27 27 -72q-6 -59 -87 -81q-25 -7 -31 -34h-33z" />
    <glyph glyph-name="glyph265" horiz-adv-x="541" 
d="M153 620l195 154l145 -154l-70 -66l-94 104l-126 -104zM260 792v0h-82q12 51 45 92q39 47 86 47q25 0 73 -21.5t62 -21.5q26 0 54 42h83q-19 -56 -52 -94q-41 -47 -92 -47q-21 0 -65 22t-63 22q-31 0 -49 -41z" />
    <glyph glyph-name="glyph266" horiz-adv-x="541" 
d="M176 753h98q5 -71 64 -71t86 71h98q-17 -69 -71.5 -112.5t-125.5 -43.5q-70 0 -111.5 43t-37.5 113zM399 963l92 -62l-175 -150l-64 44z" />
    <glyph glyph-name="glyph267" horiz-adv-x="541" 
d="M176 753h98q5 -71 64 -71t86 71h98q-17 -69 -71.5 -112.5t-125.5 -43.5q-70 0 -111.5 43t-37.5 113zM247 901l112 62l93 -168l-78 -44z" />
    <glyph glyph-name="glyph268" horiz-adv-x="541" 
d="M176 753h98q5 -71 64 -71t86 71h98q-17 -69 -71.5 -112.5t-125.5 -43.5q-70 0 -111.5 43t-37.5 113zM306 671q9 28 11 64q1 11 8 13q2 0 8 1q67 11 67 54q0 35 -28 35q-5 0 -14 -1t-14 -1q-21 0 -21 18q0 28 32 28q46 0 75 -24q31 -27 27 -72q-6 -59 -87 -81
q-25 -7 -31 -34h-33z" />
    <glyph glyph-name="glyph269" horiz-adv-x="541" 
d="M176 753h98q5 -71 64 -71t86 71h98q-17 -69 -71.5 -112.5t-125.5 -43.5q-70 0 -111.5 43t-37.5 113zM260 792v0h-82q12 51 45 92q39 47 86 47q25 0 73 -21.5t62 -21.5q26 0 54 42h83q-19 -56 -52 -94q-41 -47 -92 -47q-21 0 -65 22t-63 22q-31 0 -49 -41z" />
    <glyph glyph-name="glyph270" horiz-adv-x="249" 
 />
  </font>
</defs>
</svg>
