<?xml version="1.0" standalone="no"?>
<!DOCTYPE svg PUBLIC "-//W3C//DTD SVG 1.1//EN" "http://www.w3.org/Graphics/SVG/1.1/DTD/svg11.dtd" >
<svg xmlns="http://www.w3.org/2000/svg" xmlns:xlink="http://www.w3.org/1999/xlink" version="1.1">
<metadata>
Created by FontForge 20170731 at Tue Oct  4 20:44:03 2005
 By Aleksey,,,
(c) Copyright 2005 by Tong Duc Thinh. All Rights Reserved
</metadata>
<defs>
<font id="SFUFuturaBookOblique" horiz-adv-x="616" >
  <font-face 
    font-family="SFU Futura"
    font-weight="400"
    font-style="oblique"
    font-stretch="normal"
    units-per-em="1000"
    panose-1="0 0 4 0 0 0 0 0 0 0"
    ascent="800"
    descent="-200"
    x-height="470"
    cap-height="754"
    bbox="-159 -293 1242 1165"
    underline-thickness="75"
    underline-position="-261"
    unicode-range="U+0020-F002"
  />
<missing-glyph horiz-adv-x="500" 
d="M63 0v1134h375v-1134h-375zM125 63h250v1009h-250v-1009z" />
    <glyph glyph-name=".notdef" horiz-adv-x="500" 
d="M63 0v1134h375v-1134h-375zM125 63h250v1009h-250v-1009z" />
    <glyph glyph-name=".null" horiz-adv-x="0" 
 />
    <glyph glyph-name="nonmarkingreturn" horiz-adv-x="308" 
 />
    <glyph glyph-name="space" unicode=" " horiz-adv-x="308" 
 />
    <glyph glyph-name="exclam" unicode="!" horiz-adv-x="338" 
d="M185 99q23 0 37 -16t10 -39t-23 -40t-42 -17t-37 17t-10 40t23 39t42 16zM152 153l95 601h82l-95 -601h-82z" />
    <glyph glyph-name="quotedbl" unicode="&#x22;" horiz-adv-x="457" 
d="M221 754h94l-70 -328h-58zM380 754h94l-70 -328h-58z" />
    <glyph glyph-name="numbersign" unicode="#" 
d="M355 754h77l-68 -204h124l67 204h79l-67 -204h92l-12 -78h-105l-56 -171h101l-13 -78h-115l-75 -223h-76l74 223h-123l-77 -223h-75l74 223h-102l13 78h115l56 171h-107l12 78h119zM341 472l-56 -171h123l56 171h-123z" />
    <glyph glyph-name="dollar" unicode="$" 
d="M410 344l-42 -268q53 17 89.5 62t36.5 99q0 63 -84 107zM363 463l35 219q-44 -8 -78 -45.5t-34 -81.5q0 -54 77 -92zM301 69l48 305q-69 30 -102 62q-46 44 -46 106q0 12 3 30q13 77 71 129q57 49 136 60l16 103h66l-16 -103q48 -7 86 -37.5t53 -76.5l-72 -43
q-28 67 -80 77l-39 -247q74 -34 108 -67q47 -46 47 -112q0 -15 -3 -34q-13 -84 -75.5 -146.5t-146.5 -79.5l-17 -110h-66l16 104q-80 4 -131.5 59t-53.5 135l85 23q-2 -53 29.5 -93t83.5 -44z" />
    <glyph glyph-name="percent" unicode="%" horiz-adv-x="797" 
d="M321 767q62 0 103 -38.5t41 -100.5q0 -77 -59.5 -133.5t-136.5 -56.5q-62 0 -103 38.5t-41 99.5q0 77 59.5 134t136.5 57zM311 703q-47 0 -84 -35t-37 -81q0 -37 26 -61t64 -24q47 0 84 34.5t37 80.5q0 38 -26 62t-64 24zM718 767l37 -24l-556 -756l-39 26zM648 316
q61 0 102.5 -39t41.5 -100q0 -76 -59.5 -133t-136.5 -57q-62 0 -103 38.5t-41 99.5q0 77 59 134t137 57zM638 252q-47 0 -84 -35t-37 -81q0 -37 26 -61t63 -24q47 0 84 34.5t37 80.5q0 38 -25.5 62t-63.5 24z" />
    <glyph glyph-name="ampersand" unicode="&#x26;" horiz-adv-x="695" 
d="M380 492l8 5q53 33 75 54q39 37 39 80q0 30 -20.5 47.5t-50.5 17.5q-39 0 -68 -29t-29 -68q0 -25 32 -82zM581 0l-64 106q-152 -119 -260 -119q-79 0 -133 47q-57 50 -57 128q0 12 3 31q14 85 80 148q40 37 144 100l10 6q-52 91 -52 137q0 77 57.5 130t134.5 53
q59 0 99 -33.5t40 -91.5q0 -73 -61 -132q-28 -27 -104 -79l127 -203l101 99l53 -50l-114 -112l102 -165h-106zM343 385l-40 -24q-69 -41 -101 -73q-51 -50 -51 -108q0 -48 32.5 -82.5t80.5 -34.5q51 0 112 35q31 18 101 71z" />
    <glyph glyph-name="quotesingle" unicode="'" horiz-adv-x="289" 
d="M217 754h94l-70 -328h-58z" />
    <glyph glyph-name="parenleft" unicode="(" horiz-adv-x="287" 
d="M309 788l65 -34q-113 -213 -156 -480q-20 -125 -20 -243q0 -127 24 -237l-76 -34q-32 102 -32 249q0 126 22 265q51 320 173 514z" />
    <glyph glyph-name="parenright" unicode=")" horiz-adv-x="287" 
d="M151 754l77 34q32 -102 32 -249q0 -120 -23 -265q-51 -322 -172 -514l-66 34q113 210 156 480q21 132 21 243q0 127 -25 237z" />
    <glyph glyph-name="asterisk" unicode="*" horiz-adv-x="592" 
d="M362 614l16 140h75l-28 -140l140 49l13 -72l-142 -38l69 -110l-68 -45l-59 118l-97 -118l-54 45l106 110l-130 38l35 72z" />
    <glyph glyph-name="plus" unicode="+" 
d="M348 498h78l-32 -203h203l-13 -78h-203l-32 -203h-78l32 203h-203l13 78h203z" />
    <glyph glyph-name="comma" unicode="," horiz-adv-x="308" 
d="M168 110l70 -26l-153 -256l-51 22z" />
    <glyph glyph-name="hyphen" unicode="-" horiz-adv-x="208" 
d="M46 278h205l-12 -74h-205z" />
    <glyph glyph-name="hyphen" unicode="&#x2010;" horiz-adv-x="208" 
d="M46 278h205l-12 -74h-205z" />
    <glyph glyph-name="period" unicode="." horiz-adv-x="308" 
d="M170 99q23 0 37 -16t10 -39t-23 -40t-42 -17t-37 17t-10 40t23 39t42 16z" />
    <glyph glyph-name="slash" unicode="/" horiz-adv-x="570" 
d="M617 825l61 -30l-620 -952l-60 30z" />
    <glyph glyph-name="zero" unicode="0" 
d="M429 767q112 0 169 -103q46 -83 46 -205q0 -195 -119 -347q-98 -125 -219 -125q-110 0 -168 101q-47 83 -47 202q0 186 110 340q98 137 228 137zM417 689q-96 0 -166 -118q-75 -126 -75 -270q0 -91 26 -152q37 -84 116 -84q93 0 163 114q79 129 79 276q0 90 -27 151
q-37 83 -116 83z" />
    <glyph glyph-name="one" unicode="1" 
d="M390 676h-125l56 78h165l-119 -754h-84z" />
    <glyph glyph-name="two" unicode="2" 
d="M223 78h318l-12 -78h-488l419 417q73 73 73 150q0 54 -37 88t-92 34q-67 0 -115.5 -44t-60.5 -111h-84q18 100 93.5 166.5t175.5 66.5q87 0 144 -50q61 -53 61 -138q0 -16 -3 -35q-14 -92 -82 -159z" />
    <glyph glyph-name="three" unicode="3" 
d="M328 357l12 78q170 7 170 148q0 51 -31 78.5t-82 27.5q-55 0 -92 -33t-51 -88h-83q24 91 84 144q64 55 156 55q81 0 133 -45t52 -125q0 -63 -34.5 -118.5t-91.5 -82.5q82 -40 82 -146q0 -14 -4 -39q-16 -98 -92.5 -161t-176.5 -63q-83 0 -138 47.5t-55 129.5q0 15 2 32
h82q-6 -58 30 -94.5t94 -36.5q64 0 112 43.5t59 107.5q3 18 3 28q0 59 -42 89q-37 26 -98 24z" />
    <glyph glyph-name="four" unicode="4" 
d="M508 200h93l-13 -78h-93l-19 -122h-84l19 122h-386l575 674h2zM424 200l54 341h-2l-291 -341h239z" />
    <glyph glyph-name="five" unicode="5" 
d="M630 676h-241l-74 -161l45 4q97 0 155 -59.5t58 -156.5q0 -28 -3 -47q-18 -116 -110 -192.5t-210 -76.5q-152 0 -210 135l75 48q19 -48 59 -76.5t91 -28.5q84 0 146 55t75 138q2 13 2 31q0 69 -45.5 110.5t-115.5 41.5q-69 0 -151 -48l166 361h300z" />
    <glyph glyph-name="six" unicode="6" 
d="M484 767l56 -47l-211 -234l2 -2q33 11 67 11q91 0 149.5 -59t58.5 -150q0 -131 -108 -223q-89 -76 -196 -76q-95 0 -158.5 61.5t-63.5 156.5q0 109 100 221zM314 65q82 0 144.5 62t62.5 144q0 65 -43 105.5t-108 40.5q-82 0 -144 -60t-62 -142q0 -65 42.5 -107.5
t107.5 -42.5z" />
    <glyph glyph-name="seven" unicode="7" 
d="M570 676h-412l12 78h556l-627 -767l-60 39z" />
    <glyph glyph-name="eight" unicode="8" 
d="M364 355q-68 0 -119.5 -50.5t-51.5 -117.5q0 -54 35.5 -88t89.5 -34q68 0 119.5 50t51.5 118q0 54 -35.5 88t-89.5 34zM429 767q79 0 130 -48t51 -126q0 -62 -33 -117.5t-88 -83.5q85 -41 85 -147q0 -116 -94 -194q-76 -64 -174 -64q-86 0 -142 50.5t-56 135.5
q0 71 39 131.5t104 87.5q-68 43 -68 134q0 98 74 169.5t172 71.5zM417 689q-61 0 -107 -45.5t-46 -105.5q0 -48 32 -79.5t80 -31.5q61 0 107 46t46 106q0 48 -32 79t-80 31z" />
    <glyph glyph-name="nine" unicode="9" 
d="M243 -13l-56 43l212 239l-2 2q-35 -10 -67 -10q-91 0 -149 58.5t-58 149.5q0 22 3 41q17 107 104.5 182t195.5 75q96 0 159.5 -61t63.5 -156q0 -106 -102 -221zM414 689q-82 0 -144 -61t-62 -143q0 -65 43 -105.5t108 -40.5q82 0 143.5 60t61.5 142q0 64 -43 106t-107 42
z" />
    <glyph glyph-name="colon" unicode=":" horiz-adv-x="308" 
d="M170 99q23 0 37 -16t10 -39t-23 -40t-42 -17t-37 17t-10 40t23 39t42 16zM230 483q24 0 38 -16t10 -39q-3 -23 -22.5 -40t-42.5 -17q-24 0 -37.5 17t-9.5 40t22 39t42 16z" />
    <glyph glyph-name="semicolon" unicode=";" horiz-adv-x="308" 
d="M170 110l70 -26l-153 -256l-51 22zM255 483q24 0 38 -16t10 -39q-3 -23 -22.5 -40t-42.5 -17q-24 0 -37.5 17t-9.5 40t22 39t42 16z" />
    <glyph glyph-name="less" unicode="&#x3c;" 
d="M629 498l-14 -85l-392 -157l343 -157l-14 -85l-451 207l11 70z" />
    <glyph glyph-name="equal" unicode="=" 
d="M125 373h484l-12 -78h-484zM100 217h484l-12 -78h-484z" />
    <glyph glyph-name="greater" unicode="&#x3e;" 
d="M131 413l14 85l451 -207l-11 -70l-517 -207l14 85l393 157z" />
    <glyph glyph-name="question" unicode="?" horiz-adv-x="488" 
d="M377 328h81q-9 -73 -63 -123t-127 -50q-62 0 -101 37t-39 99q0 15 2 27q18 109 162 153q73 22 92 34q45 27 53 81q1 6 1 19q0 39 -24.5 62t-63.5 23q-43 0 -75 -28.5t-38 -70.5q-4 -26 -2 -48h-83l4 53q6 76 72 125q61 46 139 46q68 0 111 -41t43 -109q0 -103 -78 -164
q-36 -29 -141 -58q-92 -25 -92 -96q0 -30 20.5 -48.5t50.5 -18.5q40 0 66 29q24 26 30 67zM258 99q23 0 37 -16t10 -39t-23 -40t-42 -17t-37 17t-10 40t23 39t42 16z" />
    <glyph glyph-name="at" unicode="@" horiz-adv-x="800" 
d="M314 320q0 -94 91 -94q115 0 157 146q7 24 7 46q0 41 -23.5 65t-64.5 24q-65 0 -117 -62q-50 -58 -50 -125zM608 505l24 61h71l-91 -255q-17 -48 -17 -65q0 -20 18 -20q44 0 93 75q41 63 53 116q8 36 8 67q0 102 -71 159q-66 52 -171 52q-136 0 -236 -91t-121 -227
q-5 -32 -5 -57q0 -120 80 -192q76 -69 198 -69q127 0 199 46l62 -51q-141 -67 -280 -67q-145 0 -238.5 90t-93.5 234q0 29 6 66q26 164 152 277t291 113q122 0 209 -73q92 -78 92 -198q0 -67 -27 -136t-72 -118q-82 -89 -167 -86q-45 2 -45 61q-70 -61 -145 -61
q-62 0 -102 45t-40 108q0 99 73 182.5t171 83.5q79 0 122 -70z" />
    <glyph glyph-name="A" unicode="A" horiz-adv-x="699" 
d="M545 214h-322l-125 -214h-92l473 790l214 -790h-93zM524 292l-78 302l-177 -302h255z" />
    <glyph glyph-name="B" unicode="B" horiz-adv-x="568" 
d="M215 350l-43 -272h84q193 0 215 138q2 13 2 25q0 109 -185 109h-73zM76 0l119 754h124q224 0 224 -162q0 -17 -4 -42q-16 -98 -97 -147q55 -14 85 -57t30 -101q0 -16 -3 -35q-17 -109 -108 -163q-77 -47 -195 -47h-175zM267 676l-40 -254h32q86 0 127 20q57 28 69 108
q3 20 3 33q0 58 -44 78q-33 15 -114 15h-33z" />
    <glyph glyph-name="C" unicode="C" horiz-adv-x="717" 
d="M761 693l-17 -104q-81 100 -214 100q-139 0 -248 -110t-109 -249q0 -113 74 -189t186 -76q128 0 244 100l-16 -104q-114 -74 -237 -74q-143 0 -239.5 93t-96.5 235q0 195 164 337q133 115 295 115q126 0 214 -74z" />
    <glyph glyph-name="D" unicode="D" horiz-adv-x="678" 
d="M76 0l119 754h142q92 0 150 -16q76 -21 130 -75q85 -84 85 -217q0 -38 -5 -70q-27 -171 -168 -281q-73 -57 -151 -78q-62 -17 -162 -17h-140zM172 78h61q155 0 251 78q133 109 133 272q0 126 -83 190q-75 58 -206 58h-61z" />
    <glyph glyph-name="E" unicode="E" horiz-adv-x="534" 
d="M76 0l119 754h391l-12 -78h-307l-35 -224h298l-13 -78h-298l-47 -296h307l-12 -78h-391z" />
    <glyph glyph-name="F" unicode="F" horiz-adv-x="478" 
d="M526 676h-259l-35 -224h251l-13 -78h-251l-59 -374h-84l119 754h343z" />
    <glyph glyph-name="G" unicode="G" horiz-adv-x="820" 
d="M523 379h314q-24 -172 -120 -266q-128 -126 -299 -126q-142 0 -236.5 93t-94.5 235q0 196 164 337q133 115 295 115q194 0 294 -163l-70 -57q-78 142 -237 142q-142 0 -252 -110t-110 -252q0 -96 58 -166q80 -96 199 -96q103 0 194 66q97 70 113 170h-224z" />
    <glyph glyph-name="H" unicode="H" horiz-adv-x="714" 
d="M235 448h386l48 306h84l-119 -754h-84l59 370h-386l-59 -370h-84l119 754h84z" />
    <glyph glyph-name="I" unicode="I" horiz-adv-x="239" 
d="M281 754l-119 -754h-84l119 754h84z" />
    <glyph glyph-name="J" unicode="J" horiz-adv-x="314" 
d="M355 754l-94 -597q-19 -122 -66 -173q-56 -62 -139 -62q-68 0 -125 56l57 65q39 -43 82 -43q54 0 81 56q15 32 26 101l94 597h84z" />
    <glyph glyph-name="K" unicode="K" horiz-adv-x="611" 
d="M228 431l372 323h113l-409 -351l302 -403h-116l-254 346l-25 -21l-51 -325h-84l119 754h84z" />
    <glyph glyph-name="L" unicode="L" horiz-adv-x="375" 
d="M279 754l-107 -676h208l-12 -78h-292l119 754h84z" />
    <glyph glyph-name="M" unicode="M" horiz-adv-x="896" 
d="M21 0l279 797l174 -633l375 633l27 -797h-86l-16 510h-2l-329 -541l-156 541h-2l-178 -510h-86z" />
    <glyph glyph-name="N" unicode="N" horiz-adv-x="834" 
d="M81 0l124 786l491 -616l92 584h84l-124 -788l-491 615l-92 -581h-84z" />
    <glyph glyph-name="O" unicode="O" horiz-adv-x="862" 
d="M552 767q144 0 240 -93t96 -237q0 -197 -163 -336q-134 -114 -296 -114q-144 0 -240 92.5t-96 235.5q0 29 5 61q25 162 157.5 276.5t296.5 114.5zM540 689q-130 0 -234 -91.5t-124 -220.5q-4 -26 -4 -49q0 -114 74.5 -188.5t188.5 -74.5q143 0 253 110t110 252
q0 114 -74.5 188t-189.5 74z" />
    <glyph glyph-name="P" unicode="P" horiz-adv-x="503" 
d="M212 330l-52 -330h-84l119 754h124q130 0 181 -40q61 -47 61 -136q0 -57 -27.5 -110.5t-73.5 -87.5q-68 -50 -187 -50h-61zM267 676l-42 -268h56q172 0 193 136q3 19 3 30q0 63 -56 86q-39 16 -123 16h-31z" />
    <glyph glyph-name="Q" unicode="Q" horiz-adv-x="862" 
d="M575 304l109 -136q120 109 120 259q0 115 -74.5 188.5t-189.5 73.5q-130 0 -234 -91.5t-124 -220.5q-4 -26 -4 -49q0 -114 74.5 -188.5t188.5 -74.5q95 0 177 56l-153 183h110zM720 -7l-52 68q-110 -74 -239 -74q-144 0 -240 92.5t-96 235.5q0 29 5 61
q25 162 157.5 276.5t296.5 114.5q145 0 240.5 -93t95.5 -238q0 -185 -156 -328l95 -115h-107z" />
    <glyph glyph-name="R" unicode="R" horiz-adv-x="542" 
d="M267 676l-43 -271h26q192 0 213 135q2 13 2 32q0 64 -52 87q-38 17 -121 17h-25zM212 331l-52 -331h-84l119 754h109q247 0 247 -165q0 -17 -4 -43q-14 -87 -73.5 -144t-147.5 -64l186 -338h-103l-176 331h-21z" />
    <glyph glyph-name="S" unicode="S" horiz-adv-x="559" 
d="M588 650l-74 -43q-34 82 -117 82q-55 0 -100 -38t-45 -93q0 -37 34 -65q20 -16 67 -39l46 -22q75 -36 106 -67q45 -45 45 -109q0 -18 -3 -36q-16 -98 -95 -165.5t-179 -67.5q-89 0 -144.5 53t-59.5 142l85 23q0 -60 35 -100t94 -40q64 0 116.5 42.5t62.5 104.5q2 12 2 23
q0 47 -37 80q-21 18 -81 47l-42 20q-66 31 -95 60q-42 42 -42 101q0 14 3 32q14 85 85 140q68 52 156 52q132 0 177 -117z" />
    <glyph glyph-name="T" unicode="T" horiz-adv-x="470" 
d="M383 676l-107 -676h-84l107 676h-182l12 78h450l-12 -78h-184z" />
    <glyph glyph-name="U" unicode="U" horiz-adv-x="685" 
d="M277 754l-71 -449q-10 -63 -10 -93q0 -90 75 -127q39 -20 82 -20q93 0 159 67q30 31 46 82q7 24 18 91l71 449h84l-74 -472q-11 -69 -29 -112q-23 -55 -70 -97q-95 -86 -217 -86q-115 0 -183 77q-48 54 -48 133q0 28 9 85l74 472h84z" />
    <glyph glyph-name="V" unicode="V" horiz-adv-x="624" 
d="M216 754l124 -575l306 575h91l-432 -799l-180 799h91z" />
    <glyph glyph-name="W" unicode="W" horiz-adv-x="1091" 
d="M223 754l109 -565l340 604l148 -604l287 565h91l-414 -793l-148 607l-340 -607l-164 793h91z" />
    <glyph glyph-name="X" unicode="X" horiz-adv-x="564" 
d="M298 390l-147 364h96l109 -284l199 284h96l-261 -364l161 -390h-96l-124 310l-222 -310h-96z" />
    <glyph glyph-name="Y" unicode="Y" horiz-adv-x="593" 
d="M306 324l-179 430h97l139 -336l245 336h97l-315 -430l-51 -324h-84z" />
    <glyph glyph-name="Z" unicode="Z" horiz-adv-x="586" 
d="M165 78h401l-12 -78h-540l518 676h-359l12 78h499z" />
    <glyph glyph-name="bracketleft" unicode="[" horiz-adv-x="315" 
d="M299 714l-139 -880h108l-12 -74h-190l163 1028h190l-12 -74h-108z" />
    <glyph glyph-name="backslash" unicode="\" horiz-adv-x="570" 
d="M144 795l71 30l337 -825l-70 -30z" />
    <glyph glyph-name="bracketright" unicode="]" horiz-adv-x="315" 
d="M103 -166l139 880h-108l12 74h190l-163 -1028h-190l12 74h108z" />
    <glyph glyph-name="asciicircum" unicode="^" 
d="M117 322l274 432h72l138 -432h-89l-101 328l-207 -328h-87z" />
    <glyph glyph-name="underscore" unicode="_" horiz-adv-x="500" 
d="M482 -113l-12 -75h-500l12 75h500z" />
    <glyph glyph-name="grave" unicode="`" horiz-adv-x="358" 
d="M190 706l90 38l93 -164l-55 -28z" />
    <glyph glyph-name="a" unicode="a" horiz-adv-x="577" 
d="M336 409q-78 0 -130.5 -62.5t-52.5 -142.5q0 -63 33.5 -103t95.5 -40q82 0 136 66q52 62 52 145q0 62 -36 99.5t-98 37.5zM579 470l-74 -470h-80l10 65h-2q-74 -78 -174 -78q-87 0 -138.5 57t-51.5 145q0 116 76 203q78 91 193 91q99 0 149 -80h2l10 67h80z" />
    <glyph glyph-name="b" unicode="b" horiz-adv-x="577" 
d="M366 409q-78 0 -130.5 -62.5t-52.5 -142.5q0 -63 33.5 -103t95.5 -40q82 0 136 66q52 62 52 145q0 62 -36 99.5t-98 37.5zM72 0l131 825h80l-67 -422h2q73 80 173 80q88 0 139.5 -56t51.5 -145q0 -116 -75 -203q-79 -92 -193 -92q-104 0 -150 78h-2l-10 -65h-80z" />
    <glyph glyph-name="c" unicode="c" horiz-adv-x="476" 
d="M494 436l-17 -106h-2q-49 79 -133 79q-81 0 -138.5 -62t-57.5 -143q0 -63 37.5 -103t99.5 -40q91 0 165 81h2l-16 -107q-79 -48 -157 -48q-94 0 -154 56.5t-60 149.5q0 129 105 218q84 72 188 72q80 0 138 -47z" />
    <glyph glyph-name="d" unicode="d" horiz-adv-x="577" 
d="M336 409q-78 0 -130.5 -62.5t-52.5 -142.5q0 -63 33.5 -103t95.5 -40q82 0 136 66q52 62 52 145q0 62 -36 99.5t-98 37.5zM425 0l10 65h-2q-72 -78 -174 -78q-87 0 -138.5 57t-51.5 145q0 116 76 203q78 91 193 91q101 0 149 -80h2l67 422h80l-131 -825h-80z" />
    <glyph glyph-name="e" unicode="e" horiz-adv-x="519" 
d="M520 218h-369q-2 -13 -2 -26q0 -59 36 -95t95 -36q89 0 158 97l62 -39q-92 -132 -238 -132q-89 0 -142 54t-53 143q0 26 3 45q17 108 87 179q75 75 181 75q89 0 139 -53.5t50 -143.5q0 -33 -7 -68zM165 286h281q0 52 -33 87.5t-85 35.5q-53 0 -100 -36t-63 -87z" />
    <glyph glyph-name="f" unicode="f" horiz-adv-x="274" 
d="M226 396l-63 -396h-80l63 396h-44l11 74h44l30 187q6 38 13 63q10 38 27 59q46 59 131 59q25 0 55 -10l-13 -81q-31 11 -52 11q-44 0 -62 -33q-10 -19 -23 -96l-26 -159h119l-11 -74h-119z" />
    <glyph glyph-name="g" unicode="g" horiz-adv-x="580" 
d="M331 409q-78 0 -130.5 -62.5t-52.5 -142.5q0 -63 33.5 -103t95.5 -40q82 0 136 66q52 62 52 145q0 62 -36 99.5t-98 37.5zM574 470l-70 -447q-11 -69 -23 -106q-18 -55 -57 -96q-78 -83 -195 -83q-88 0 -142 46q-58 48 -58 135q0 17 3 35h80q-2 -13 -2 -25
q0 -56 36 -86.5t93 -30.5q150 0 182 197l9 56h-2q-73 -78 -175 -78q-87 0 -139 58q-50 55 -50 143q0 115 77 203q80 92 193 92q101 0 148 -80h2l10 67h80z" />
    <glyph glyph-name="h" unicode="h" horiz-adv-x="528" 
d="M207 825h80l-64 -412q63 70 145 70q134 0 134 -137q0 -29 -6 -67l-44 -279h-80l42 265q6 38 6 63q0 81 -82 81q-74 0 -110 -61q-24 -40 -37 -125l-35 -223h-80z" />
    <glyph glyph-name="i" unicode="i" horiz-adv-x="262" 
d="M245 470l-74 -470h-80l74 470h80zM243 704q24 0 37 -17t10 -40q-4 -24 -22.5 -40.5t-43.5 -16.5q-23 0 -37 17t-11 40t23 40t44 17z" />
    <glyph glyph-name="j" unicode="j" horiz-adv-x="262" 
d="M245 470l-116 -734h-80l116 734h80zM243 704q24 0 37 -17t10 -40q-4 -24 -22.5 -40.5t-43.5 -16.5q-23 0 -37 17t-11 40t23 40t44 17z" />
    <glyph glyph-name="k" unicode="k" horiz-adv-x="470" 
d="M283 825l-84 -529l198 174h107l-232 -200l196 -270h-106l-155 214l-24 -21l-31 -193h-80l131 825h80z" />
    <glyph glyph-name="l" unicode="l" horiz-adv-x="227" 
d="M285 825l-131 -825h-80l131 825h80z" />
    <glyph glyph-name="m" unicode="m" horiz-adv-x="768" 
d="M230 470l-8 -51h2q52 64 123 64q91 0 118 -78q54 78 153 78q124 0 124 -137q0 -28 -5 -60l-45 -286h-80l43 273q6 38 6 58q0 78 -70 78q-103 0 -128 -160l-39 -249h-80l42 267q6 38 6 57q0 85 -67 85q-105 0 -131 -166l-38 -243h-80l74 470h80z" />
    <glyph glyph-name="n" unicode="n" horiz-adv-x="528" 
d="M230 470l-9 -57h2q63 70 145 70q134 0 134 -137q0 -29 -6 -67l-44 -279h-80l42 265q6 38 6 63q0 81 -82 81q-74 0 -110 -61q-24 -40 -37 -125l-35 -223h-80l74 470h80z" />
    <glyph glyph-name="o" unicode="o" horiz-adv-x="562" 
d="M279 -13q-91 0 -151 58t-60 149q0 128 103 217q83 72 186 72q92 0 151.5 -58.5t59.5 -150.5q0 -127 -102 -215q-84 -72 -187 -72zM346 409q-82 0 -139.5 -61.5t-57.5 -143.5q0 -64 39 -103.5t103 -39.5q81 0 139 61t58 143q0 64 -39 104t-103 40z" />
    <glyph glyph-name="p" unicode="p" horiz-adv-x="577" 
d="M366 409q-78 0 -130.5 -62.5t-52.5 -142.5q0 -63 33.5 -103t95.5 -40q82 0 136 66q52 62 52 145q0 62 -36 99.5t-98 37.5zM226 470l-10 -67h2q72 80 174 80q88 0 139 -57.5t51 -146.5q0 -116 -76 -202q-78 -90 -193 -90q-102 0 -149 79h-2l-52 -330h-80l116 734h80z" />
    <glyph glyph-name="q" unicode="q" horiz-adv-x="577" 
d="M336 409q-78 0 -130.5 -62.5t-52.5 -142.5q0 -63 33.5 -103t95.5 -40q82 0 136 66q52 62 52 145q0 62 -36 99.5t-98 37.5zM579 470l-116 -734h-80l52 330h-2q-71 -79 -173 -79q-88 0 -139.5 55t-51.5 144q0 116 75 204q79 93 193 93q102 0 150 -80h2l10 67h80z" />
    <glyph glyph-name="r" unicode="r" horiz-adv-x="335" 
d="M226 470l-8 -51h2q31 33 51 46q28 18 63 18q34 0 69 -22l-50 -73q-27 21 -44 21q-93 0 -120 -174l-37 -235h-80l74 470h80z" />
    <glyph glyph-name="s" unicode="s" horiz-adv-x="399" 
d="M396 396l-73 -35q-13 48 -56 48q-23 0 -42.5 -15t-23.5 -37q-5 -31 50 -63l84 -40q51 -34 51 -90q0 -11 -2 -24q-10 -66 -63 -109.5t-120 -43.5q-58 0 -97.5 31t-49.5 88l76 30q22 -75 84 -75q33 0 57.5 20t29.5 52q7 43 -39 68q-30 15 -90 44q-50 32 -50 84q0 15 1 21
q9 57 55.5 95t105.5 38q40 0 71 -24t41 -63z" />
    <glyph glyph-name="t" unicode="t" horiz-adv-x="240" 
d="M223 396l-63 -396h-80l63 396h-49l11 74h49l27 169h80l-27 -169h84l-11 -74h-84z" />
    <glyph glyph-name="u" unicode="u" horiz-adv-x="512" 
d="M224 470l-41 -262q-6 -38 -6 -61q0 -86 89 -86q65 0 96 44q22 31 33 103l41 262h80l-42 -271q-33 -212 -220 -212q-158 0 -158 151q0 22 6 61l42 271h80z" />
    <glyph glyph-name="v" unicode="v" horiz-adv-x="463" 
d="M166 470l90 -316l190 316h90l-309 -501l-152 501h91z" />
    <glyph glyph-name="w" unicode="w" horiz-adv-x="760" 
d="M168 470l89 -318l202 354l91 -354l190 318h91l-312 -503l-90 350l-200 -350l-152 503h91z" />
    <glyph glyph-name="x" unicode="x" horiz-adv-x="498" 
d="M241 250l-137 220h98l98 -160l148 160h100l-206 -220l155 -250h-97l-119 191l-180 -191h-100z" />
    <glyph glyph-name="y" unicode="y" horiz-adv-x="498" 
d="M221 44l-149 426h93l113 -337l205 337h91l-463 -734h-91z" />
    <glyph glyph-name="z" unicode="z" horiz-adv-x="519" 
d="M184 74h324l-12 -74h-486l402 396h-276l11 74h437z" />
    <glyph glyph-name="braceleft" unicode="{" horiz-adv-x="334" 
d="M89 242l10 64q50 15 72 55q18 32 29 105l29 187q6 41 36 84q35 51 71 51h73l-12 -74h-40q-24 0 -35 -21q-6 -13 -13 -55l-30 -189q-12 -75 -53 -128q-25 -33 -51 -47q52 -35 52 -130q0 -27 -3 -46l-30 -188q-5 -31 -5 -44q0 -32 29 -32h40l-12 -74h-73q-30 0 -50 41
q-16 33 -16 67q0 15 2 27l30 186q8 50 8 75q0 67 -58 86z" />
    <glyph glyph-name="bar" unicode="|" horiz-adv-x="570" 
d="M455 825l-131 -825h-78l131 825h78z" />
    <glyph glyph-name="braceright" unicode="}" horiz-adv-x="334" 
d="M331 306l-10 -64q-49 -15 -71 -55q-17 -31 -29 -106l-30 -186q-9 -58 -44.5 -96.5t-61.5 -38.5h-73l12 74h40q24 0 34 21q8 15 14 55l30 188q12 76 53 129q26 33 50 47q-52 35 -52 129q0 21 4 46l30 189q5 32 5 44q0 32 -29 32h-40l12 74h73q30 0 50 -41q16 -33 16 -67
q0 -8 -3 -27l-29 -187q-8 -52 -8 -74q0 -67 57 -86z" />
    <glyph glyph-name="asciitilde" unicode="~" 
d="M162 172v0l-64 28q76 147 162 147q41 0 102 -45q15 -12 45 -35q25 -19 43 -19q43 0 87 97l63 -28q-73 -147 -162 -147q-36 0 -95 44q-73 54 -96 54q-39 0 -85 -96z" />
    <glyph glyph-name="euro" horiz-adv-x="498" 
d="M522 633l-23 -156l-48 6q0 157 -94 157q-103 0 -161 -211h172l-21 -48h-164q-6 -24 -16 -73h147l-21 -47h-134q-6 -41 -6 -74q0 -56 21 -91q26 -43 78 -43q58 0 101 68q24 38 51 119l55 -10l-54 -188q-77 -53 -159 -53q-111 0 -166 84q-47 71 -47 188h-74l21 47h56
q3 25 12 73h-66l21 48h59q41 112 108 183q83 88 187 88q94 0 165 -67z" />
    <glyph glyph-name="exclamdown" unicode="&#xa1;" horiz-adv-x="338" 
d="M245 483q24 0 38 -16t10 -39q-3 -23 -22.5 -40t-42.5 -17q-24 0 -37.5 17t-9.5 40t22 39t42 16zM260 317l-95 -601h-82l95 601h82z" />
    <glyph glyph-name="cent" unicode="&#xa2;" 
d="M584 587l-17 -106h-2q-41 66 -106 76l-54 -344q71 10 132 80h2l-17 -107q-71 -43 -129 -47l-18 -112h-66l18 113q-77 9 -126 67t-49 137q0 104 75 188.5t178 96.5l16 106h66l-16 -104q64 -6 113 -44zM339 214l54 341q-66 -12 -111.5 -71.5t-45.5 -128.5q0 -52 26 -90
q28 -41 77 -51z" />
    <glyph glyph-name="sterling" unicode="&#xa3;" 
d="M250 268h-127l11 64h100l-14 37q-37 98 -37 149q0 16 3 35q14 91 88.5 152.5t167.5 61.5q85 0 136 -50.5t51 -135.5q0 -19 -3 -40l-86 -22q3 22 3 42q0 126 -111 126q-67 0 -115 -47.5t-48 -114.5q0 -41 22 -99l35 -94h142l-11 -64h-120q3 -26 0 -45q-8 -51 -50 -108
l5 -2q107 -43 138 -43q48 0 103 75l61 -41q-70 -116 -172 -116q-39 0 -114.5 29t-108.5 29q-54 0 -99 -61l-58 44q74 96 161 97q49 57 49 117q0 12 -2 25z" />
    <glyph glyph-name="currency" unicode="&#xa4;" 
d="M145 498l42 36l35 -42q89 58 173 58t155 -58l49 42l30 -36l-46 -40q31 -64 31 -118q0 -96 -82 -198l34 -40l-42 -36l-35 42q-89 -58 -173 -58t-155 58l-49 -42l-30 36l46 40q-31 64 -31 118q0 96 82 198zM385 486q-89 0 -154 -61q-68 -62 -68 -150q0 -70 46.5 -115.5
t116.5 -45.5q87 0 155.5 66t68.5 153q0 70 -47 111.5t-118 41.5z" />
    <glyph glyph-name="yen" unicode="&#xa5;" 
d="M266 0l41 256h-237l10 64h237l-39 100h-182l10 64h145l-113 270h97l140 -334l244 334h97l-197 -270h145l-10 -64h-182l-71 -100h237l-10 -64h-237l-41 -256h-84z" />
    <glyph glyph-name="brokenbar" unicode="&#xa6;" horiz-adv-x="570" 
d="M376 330l-52 -330h-78l52 330h78zM455 825l-53 -330h-78l53 330h78z" />
    <glyph glyph-name="section" unicode="&#xa7;" horiz-adv-x="592" 
d="M360 402q-51 0 -90 -38.5t-39 -89.5q0 -41 26.5 -67t67.5 -26q51 0 90.5 39t39.5 89q0 41 -27 67t-68 26zM106 4h81q-3 -16 -3 -30q0 -86 86 -86q103 0 119 100q2 12 2 19q0 39 -31 63q-15 12 -69 34q-32 13 -54 24q-33 16 -49 31q-42 38 -42 101q0 64 36.5 117.5
t96.5 76.5q-68 37 -68 113q0 85 67 144q65 56 151 56q95 0 133 -68q18 -32 18 -86q0 -21 -3 -42h-80q2 14 2 27q0 92 -83 92q-46 0 -80.5 -27.5t-41.5 -73.5q-1 -6 -1 -17q0 -46 70 -83q56 -24 112 -47q64 -39 64 -115q0 -19 -3 -38q-17 -106 -131 -160q68 -38 68 -113
q0 -14 -3 -33q-12 -79 -71.5 -125.5t-141.5 -46.5q-154 0 -154 150q0 20 3 43z" />
    <glyph glyph-name="dieresis" unicode="&#xa8;" horiz-adv-x="467" 
d="M247 705q23 0 36 -16t9 -38t-22 -38t-40 -16q-23 0 -36 15.5t-10 38.5t21.5 38.5t41.5 15.5zM444 705q23 0 36 -16t9 -38t-22 -38t-40 -16q-23 0 -36 15.5t-10 38.5t21.5 38.5t41.5 15.5z" />
    <glyph glyph-name="copyright" unicode="&#xa9;" horiz-adv-x="800" 
d="M398 -13q-145 0 -240 91.5t-95 235.5q0 32 5 63q26 164 157 277t296 113q145 0 240.5 -91.5t95.5 -235.5q0 -32 -5 -63q-26 -164 -157.5 -277t-296.5 -113zM407 47q138 0 250.5 96.5t134.5 233.5q4 25 4 51q0 121 -81 200t-203 79q-138 0 -250.5 -97t-133.5 -233
q-4 -26 -4 -51q0 -121 81 -200t202 -79zM671 457h-61q-5 88 -110 88q-79 0 -131.5 -57.5t-52.5 -137.5q0 -62 36 -98t98 -36q100 0 137 91h61q-20 -68 -78 -109.5t-129 -41.5q-83 0 -134.5 50.5t-51.5 133.5q0 21 3 40q16 100 84.5 162.5t168.5 62.5q70 0 114 -39.5
t46 -108.5z" />
    <glyph glyph-name="ordfeminine" unicode="&#xaa;" horiz-adv-x="346" 
d="M289 723q-49 0 -84 -36.5t-35 -85.5q0 -39 23 -63.5t62 -24.5q52 0 86.5 36.5t34.5 89.5q0 39 -24 61.5t-63 22.5zM446 759l-44 -282h-52l6 39h-2q-47 -47 -113 -47q-56 0 -90 33.5t-34 89.5q0 72 50.5 123.5t121.5 51.5q64 0 97 -48h2l6 40h52zM383 360h-305l8 52h305z
" />
    <glyph glyph-name="guillemotleft" unicode="&#xab;" horiz-adv-x="500" 
d="M335 240l109 -166l-60 -41l-135 207l202 213l46 -42zM165 240l109 -166l-60 -41l-135 207l202 213l46 -42z" />
    <glyph glyph-name="logicalnot" unicode="&#xac;" 
d="M488 103l31 192h-406l12 78h484l-43 -270h-78z" />
    <glyph glyph-name="sfthyphen" unicode="&#xad;" horiz-adv-x="338" 
d="M8 174l33 122h246l-33 -122h-246z" />
    <glyph glyph-name="registered" unicode="&#xae;" horiz-adv-x="800" 
d="M398 -13q-145 0 -240 91.5t-95 235.5q0 32 5 63q26 164 157 277t296 113q145 0 240.5 -91.5t95.5 -235.5q0 -32 -5 -63q-26 -164 -157.5 -277t-296.5 -113zM407 47q138 0 250.5 96.5t134.5 233.5q4 25 4 51q0 121 -81 200t-203 79q-138 0 -250.5 -97t-133.5 -233
q-4 -26 -4 -51q0 -121 81 -200t202 -79zM514 363l98 -197h-72l-97 197h-72l-31 -197h-60l68 427h186q136 0 136 -90q0 -10 -2 -23q-18 -113 -154 -117zM381 423h72q72 0 93 4q55 11 62 54q8 52 -96 52h-114z" />
    <glyph glyph-name="macron" unicode="&#xaf;" horiz-adv-x="499" 
d="M187 682h342l-11 -68h-342z" />
    <glyph glyph-name="macron" unicode="&#x2c9;" horiz-adv-x="499" 
d="M187 682h342l-11 -68h-342z" />
    <glyph glyph-name="degree" unicode="&#xb0;" horiz-adv-x="400" 
d="M274 467q-56 0 -92 35.5t-36 91.5q0 69 53 121t122 52q55 0 92 -36t37 -91q0 -69 -53.5 -121t-122.5 -52zM401 633q0 38 -25 62t-63 24q-47 0 -82.5 -35.5t-35.5 -82.5q0 -38 24.5 -62t62.5 -24q47 0 83 35.5t36 82.5z" />
    <glyph glyph-name="plusminus" unicode="&#xb1;" 
d="M348 498h78l-24 -153h203l-13 -78h-203l-24 -153h-78l24 153h-203l13 78h203zM66 0l12 78h484l-12 -78h-484z" />
    <glyph glyph-name="twosuperior" unicode="&#xb2;" horiz-adv-x="369" 
d="M203 359h197l-8 -52h-317l268 250q41 38 41 90q0 33 -23 50.5t-57 17.5q-42 0 -71 -23.5t-36 -64.5h-60q11 61 60.5 100.5t112.5 39.5q56 0 93 -28q42 -31 42 -85q0 -71 -49 -116z" />
    <glyph glyph-name="threesuperior" unicode="&#xb3;" horiz-adv-x="369" 
d="M257 519l8 52q38 0 67.5 17.5t35.5 52.5q5 32 -15.5 53t-53.5 21q-67 0 -85 -67h-60q32 119 154 119q52 0 85 -25q37 -28 37 -78q0 -39 -22.5 -71.5t-58.5 -48.5q54 -23 54 -88q0 -72 -50.5 -114.5t-124.5 -42.5q-52 0 -87 27q-39 29 -39 80q0 9 1 18h60q-5 -35 17 -54
t59 -19q43 0 73.5 28.5t30.5 71.5q0 70 -86 68z" />
    <glyph glyph-name="acute" unicode="&#xb4;" horiz-adv-x="358" 
d="M315 744l78 -38l-178 -154l-45 28z" />
    <glyph glyph-name="mu" unicode="&#xb5;" horiz-adv-x="512" 
d="M224 470l-41 -262q-6 -38 -6 -61q0 -86 89 -86q65 0 96 44q22 31 33 103l41 262h80l-42 -271q-33 -212 -220 -212q-57 0 -99 47l-47 -298h-80l116 734h80z" />
    <glyph glyph-name="mu" unicode="&#x3bc;" horiz-adv-x="512" 
d="M224 470l-41 -262q-6 -38 -6 -61q0 -86 89 -86q65 0 96 44q22 31 33 103l41 262h80l-42 -271q-33 -212 -220 -212q-57 0 -99 47l-47 -298h-80l116 734h80z" />
    <glyph glyph-name="paragraph" unicode="&#xb6;" horiz-adv-x="592" 
d="M653 754l-10 -65h-58l-133 -842h-65l133 842h-81l-133 -842h-65l69 436q-83 0 -128 51t-45 135q0 107 74 194q77 91 182 91h260z" />
    <glyph glyph-name="ch270" unicode="&#xb7;" horiz-adv-x="249" 
d="M38 348q0 34 23 57t57 23t57.5 -23t23.5 -57t-23.5 -57.5t-57.5 -23.5t-57 23.5t-23 57.5z" />
    <glyph glyph-name="ch270" unicode="&#x2219;" horiz-adv-x="249" 
d="M38 348q0 34 23 57t57 23t57.5 -23t23.5 -57t-23.5 -57.5t-57.5 -23.5t-57 23.5t-23 57.5z" />
    <glyph glyph-name="cedilla" unicode="&#xb8;" horiz-adv-x="325" 
d="M240 -53l-138 -146l-51 28l119 148z" />
    <glyph glyph-name="onesuperior" unicode="&#xb9;" horiz-adv-x="369" 
d="M307 707h-81l37 52h112l-71 -452h-60z" />
    <glyph glyph-name="ordmasculine" unicode="&#xba;" horiz-adv-x="337" 
d="M243 469q-58 0 -97 34q-42 35 -42 92q0 71 57 121.5t129 50.5q59 0 99.5 -35t40.5 -93q0 -71 -57.5 -120.5t-129.5 -49.5zM284 723q-51 0 -89 -35.5t-38 -86.5q0 -40 26.5 -64t66.5 -24q51 0 89 35.5t38 86.5q0 40 -26.5 64t-66.5 24zM379 360h-305l8 52h305z" />
    <glyph glyph-name="guillemotright" unicode="&#xbb;" horiz-adv-x="500" 
d="M80 74l161 166l-108 171l60 42l134 -213l-201 -207zM250 74l161 166l-108 171l60 42l134 -213l-201 -207z" />
    <glyph glyph-name="onequarter" unicode="&#xbc;" horiz-adv-x="924" 
d="M293 707h-81l37 52h112l-71 -452h-60zM784 125h60l-8 -52h-60l-12 -73h-60l12 73h-245l368 405h1zM724 125l30 190h-2l-172 -190h144zM769 767l41 -24l-559 -756l-40 24z" />
    <glyph glyph-name="onehalf" unicode="&#xbd;" horiz-adv-x="924" 
d="M293 707h-81l37 52h112l-71 -452h-60zM635 52h197l-8 -52h-317l269 250q41 38 41 90q0 33 -23 50.5t-57 17.5q-43 0 -72 -23t-35 -65h-60q11 61 60.5 100.5t112.5 39.5q55 0 93 -28q41 -31 41 -85q0 -72 -48 -116zM724 767l41 -24l-559 -756l-40 24z" />
    <glyph glyph-name="threequarters" unicode="&#xbe;" horiz-adv-x="924" 
d="M804 125h60l-8 -52h-60l-12 -73h-60l12 73h-245l368 405h1zM744 125l30 190h-2l-172 -190h144zM827 767l41 -24l-559 -756l-40 24zM301 519l8 52q38 0 67.5 17.5t35.5 52.5q5 32 -15.5 53t-53.5 21q-67 0 -85 -67h-60q32 119 154 119q52 0 85 -25q37 -28 37 -78
q0 -39 -22.5 -71.5t-58.5 -48.5q54 -23 54 -88q0 -72 -50.5 -114.5t-124.5 -42.5q-52 0 -87 27q-39 29 -39 80q0 9 1 18h60q-5 -35 17 -54t59 -19q43 0 73.5 28.5t30.5 71.5q0 70 -86 68z" />
    <glyph glyph-name="questiondown" unicode="&#xbf;" horiz-adv-x="488" 
d="M186 146h-81q9 73 63.5 123t127.5 50q61 0 100 -37.5t39 -98.5q0 -15 -2 -27q-18 -109 -162 -153q-73 -22 -92 -34q-45 -27 -53 -81q-1 -6 -1 -19q0 -39 24.5 -62t63.5 -23q43 0 75 28.5t38 70.5q4 26 2 48h83l-4 -53q-6 -76 -72 -125q-61 -46 -139 -46q-68 0 -111 41
t-43 109q0 103 78 165q36 28 142 57q91 25 91 96q0 30 -20.5 48.5t-50.5 18.5q-80 0 -96 -96zM322 483q24 0 38 -16.5t10 -39.5q-3 -23 -22.5 -39.5t-42.5 -16.5q-24 0 -37.5 16.5t-9.5 39.5t22.5 39.5t41.5 16.5z" />
    <glyph glyph-name="Agrave" unicode="&#xc0;" horiz-adv-x="699" 
d="M489 894l-9 -44l-161 141l71 32zM693 0h-93l-55 214h-322l-125 -214h-92l473 790zM524 292l-78 302l-177 -302h255z" />
    <glyph glyph-name="Aacute" unicode="&#xc1;" horiz-adv-x="699" 
d="M545 214h-322l-125 -214h-92l473 790l214 -790h-93zM524 292l-78 302l-177 -302h255zM570 1023l71 -32l-161 -141l-9 44z" />
    <glyph glyph-name="Acircumflex" unicode="&#xc2;" horiz-adv-x="699" 
d="M545 214h-322l-125 -214h-92l473 790l214 -790h-93zM524 292l-78 302l-177 -302h255zM347 848l145 113l112 -113l-41 -38l-84 72l-105 -72z" />
    <glyph glyph-name="Atilde" unicode="&#xc3;" horiz-adv-x="699" 
d="M545 214h-322l-125 -214h-92l473 790l214 -790h-93zM524 292l-78 302l-177 -302h255zM357 850l-22 30q65 58 115 58q21 0 55 -20q23 -14 42 -13q23 1 63 38l23 -30q-60 -62 -118 -62q-16 0 -52 17q-25 18 -46 18q-19 0 -60 -36z" />
    <glyph glyph-name="Adieresis" unicode="&#xc4;" horiz-adv-x="699" 
d="M545 214h-322l-125 -214h-92l473 790l214 -790h-93zM524 292l-78 302l-177 -302h255zM408 989q23 0 36 -16t9 -38t-22 -38t-40 -16q-23 0 -36 15.5t-10 38.5t21.5 38.5t41.5 15.5zM605 989q23 0 36 -16t9 -38t-22 -38t-40 -16q-23 0 -36 15.5t-10 38.5t21.5 38.5
t41.5 15.5z" />
    <glyph glyph-name="Aring" unicode="&#xc5;" horiz-adv-x="699" 
d="M545 214h-322l-125 -214h-92l473 790l214 -790h-93zM524 292l-78 302l-177 -302h255zM518 1056q36 0 59.5 -23t23.5 -59q0 -45 -34.5 -79t-79.5 -34q-36 0 -59.5 23.5t-23.5 59.5q0 44 35 78t79 34zM510 1006q-19 0 -35.5 -14t-19.5 -33q-3 -20 8.5 -34t31.5 -14t36 14
t19 34t-8.5 33.5t-31.5 13.5z" />
    <glyph glyph-name="AE" unicode="&#xc6;" horiz-adv-x="1000" 
d="M544 212h-322l-123 -212h-93l455 754h331l22 -78h-305l58 -225h297l23 -78h-298l76 -295h306l21 -78h-393zM522 290l-77 297l-175 -297h252z" />
    <glyph glyph-name="Ccedilla" unicode="&#xc7;" horiz-adv-x="717" 
d="M761 693l-17 -104q-81 100 -214 100q-139 0 -248 -110t-109 -249q0 -113 74 -189t186 -76q128 0 244 100l-16 -104q-114 -74 -237 -74q-143 0 -239.5 93t-96.5 235q0 195 164 337q133 115 295 115q126 0 214 -74zM436 -53l-138 -146l-51 28l119 148z" />
    <glyph glyph-name="Egrave" unicode="&#xc8;" horiz-adv-x="534" 
d="M76 0l119 754h391l-12 -78h-307l-35 -224h298l-13 -78h-298l-47 -296h307l-12 -78h-391zM397 875l-9 -44l-161 141l71 32z" />
    <glyph glyph-name="Eacute" unicode="&#xc9;" horiz-adv-x="534" 
d="M76 0l119 754h391l-12 -78h-307l-35 -224h298l-13 -78h-298l-47 -296h307l-12 -78h-391zM477 1003l71 -32l-161 -141l-9 44z" />
    <glyph glyph-name="Ecircumflex" unicode="&#xca;" horiz-adv-x="534" 
d="M76 0l119 754h391l-12 -78h-307l-35 -224h298l-13 -78h-298l-47 -296h307l-12 -78h-391zM263 829l145 113l112 -113l-41 -38l-84 72l-105 -72z" />
    <glyph glyph-name="Edieresis" unicode="&#xcb;" horiz-adv-x="534" 
d="M76 0l119 754h391l-12 -78h-307l-35 -224h298l-13 -78h-298l-47 -296h307l-12 -78h-391zM326 989q23 0 36 -16t9 -38t-22 -38t-40 -16q-23 0 -36 15.5t-10 38.5t21.5 38.5t41.5 15.5zM523 989q23 0 36 -16t9 -38t-22 -38t-40 -16q-23 0 -36 15.5t-10 38.5t21.5 38.5
t41.5 15.5z" />
    <glyph glyph-name="Igrave" unicode="&#xcc;" horiz-adv-x="239" 
d="M281 754l-119 -754h-84l119 754h84zM248 874l-9 -44l-161 141l71 32z" />
    <glyph glyph-name="Iacute" unicode="&#xcd;" horiz-adv-x="239" 
d="M281 754l-119 -754h-84l119 754h84zM329 1003l71 -32l-161 -141l-9 44z" />
    <glyph glyph-name="Icircumflex" unicode="&#xce;" horiz-adv-x="239" 
d="M281 754l-119 -754h-84l119 754h84zM104 888l177 133l137 -133l-65 -45l-87 85l-112 -85z" />
    <glyph glyph-name="Idieresis" unicode="&#xcf;" horiz-adv-x="239" 
d="M281 754l-119 -754h-84l119 754h84zM178 989q23 0 36 -16t9 -38t-22 -38t-40 -16q-23 0 -36 15.5t-10 38.5t21.5 38.5t41.5 15.5zM375 989q23 0 36 -16t9 -38t-22 -38t-40 -16q-23 0 -36 15.5t-10 38.5t21.5 38.5t41.5 15.5z" />
    <glyph glyph-name="Eth" unicode="&#xd0;" horiz-adv-x="678" 
d="M76 0l59 370h-76l12 78h76l48 306h142q92 0 150 -16q76 -21 130 -75q85 -84 85 -217q0 -38 -5 -70q-27 -171 -168 -281q-73 -57 -151 -78q-62 -17 -162 -17h-140zM172 78h61q155 0 251 78q133 109 133 272q0 126 -83 190q-75 58 -206 58h-61l-36 -228h134l-12 -78h-134z
" />
    <glyph glyph-name="Ntilde" unicode="&#xd1;" horiz-adv-x="834" 
d="M81 0l124 786l491 -616l92 584h84l-124 -788l-491 615l-92 -581h-84zM429 872v0l-43 39q58 79 115 79q28 0 76 -23t62 -23q29 0 63 48l41 -38q-46 -81 -119 -81q-23 0 -69 22.5t-69 22.5q-29 0 -57 -46z" />
    <glyph glyph-name="Ograve" unicode="&#xd2;" horiz-adv-x="862" 
d="M552 767q145 0 241 -93t96 -237q0 -30 -5 -61q-26 -163 -158 -276t-297 -113q-145 0 -240.5 92t-95.5 236q0 30 5 61q26 163 158 277t296 114zM540 689q-131 0 -234.5 -91t-123.5 -221q-4 -26 -4 -49q0 -115 74 -189t189 -74q144 0 253.5 109t109.5 253
q0 115 -74.5 188.5t-189.5 73.5zM561 874l-9 -44l-161 141l71 32z" />
    <glyph glyph-name="Oacute" unicode="&#xd3;" horiz-adv-x="862" 
d="M552 767q145 0 241 -93t96 -237q0 -30 -5 -61q-26 -163 -158 -276t-297 -113q-145 0 -240.5 92t-95.5 236q0 30 5 61q26 163 158 277t296 114zM540 689q-131 0 -234.5 -91t-123.5 -221q-4 -26 -4 -49q0 -115 74 -189t189 -74q144 0 253.5 109t109.5 253
q0 115 -74.5 188.5t-189.5 73.5zM642 1003l71 -32l-161 -141l-9 44z" />
    <glyph glyph-name="Ocircumflex" unicode="&#xd4;" horiz-adv-x="862" 
d="M552 767q145 0 241 -93t96 -237q0 -30 -5 -61q-26 -163 -158 -276t-297 -113q-145 0 -240.5 92t-95.5 236q0 30 5 61q26 163 158 277t296 114zM540 689q-131 0 -234.5 -91t-123.5 -221q-4 -26 -4 -49q0 -115 74 -189t189 -74q144 0 253.5 109t109.5 253
q0 115 -74.5 188.5t-189.5 73.5zM430 838l145 113l112 -113l-41 -38l-84 72l-105 -72z" />
    <glyph glyph-name="Otilde" unicode="&#xd5;" horiz-adv-x="862" 
d="M552 767q145 0 241 -93t96 -237q0 -30 -5 -61q-26 -163 -158 -276t-297 -113q-145 0 -240.5 92t-95.5 236q0 30 5 61q26 163 158 277t296 114zM540 689q-131 0 -234.5 -91t-123.5 -221q-4 -26 -4 -49q0 -115 74 -189t189 -74q144 0 253.5 109t109.5 253
q0 115 -74.5 188.5t-189.5 73.5zM440 840l-22 30q65 58 115 58q21 0 55 -20q23 -14 42 -13q23 1 63 38l23 -30q-60 -62 -118 -62q-16 0 -52 17q-25 18 -46 18q-19 0 -60 -36z" />
    <glyph glyph-name="Odieresis" unicode="&#xd6;" horiz-adv-x="862" 
d="M552 767q144 0 240 -93t96 -237q0 -197 -163 -336q-134 -114 -296 -114q-144 0 -240 92.5t-96 235.5q0 29 5 61q25 162 157.5 276.5t296.5 114.5zM540 689q-130 0 -234 -91.5t-124 -220.5q-4 -26 -4 -49q0 -114 74.5 -188.5t188.5 -74.5q143 0 253 110t110 252
q0 114 -74.5 188t-189.5 74zM490 989q23 0 36 -16t9 -38t-22 -38t-40 -16q-23 0 -36 15.5t-10 38.5t21.5 38.5t41.5 15.5zM687 989q23 0 36 -16t9 -38t-22 -38t-40 -16q-23 0 -36 15.5t-10 38.5t21.5 38.5t41.5 15.5z" />
    <glyph glyph-name="multiply" unicode="&#xd7;" 
d="M136 443l64 55l157 -187l216 187l47 -55l-216 -187l157 -187l-65 -55l-156 187l-217 -187l-46 55l217 187z" />
    <glyph glyph-name="Oslash" unicode="&#xd8;" horiz-adv-x="862" 
d="M890 774l47 -57l-104 -91q56 -84 56 -187q0 -30 -5 -61q-26 -161 -158 -276t-295 -115q-140 0 -238 90l-106 -91l-47 57l105 91q-52 80 -52 183q0 179 140.5 314.5t320.5 135.5q134 0 230 -84zM216 191l500 436q-72 62 -175 62q-142 0 -252.5 -107.5t-110.5 -249.5
q0 -79 38 -141zM764 570l-501 -436q76 -69 179 -69q143 0 252.5 109.5t109.5 252.5q0 80 -40 143z" />
    <glyph glyph-name="Ugrave" unicode="&#xd9;" horiz-adv-x="685" 
d="M277 754l-71 -449q-10 -63 -10 -92q0 -91 75 -128q40 -20 82 -20q92 0 159 67q32 32 47 82q5 18 17 91l71 449h84l-74 -472q-22 -139 -99 -209q-95 -86 -217 -86q-116 0 -183 77q-47 54 -47 132q0 35 8 86l74 472h84zM469 834l-9 -44l-161 141l71 32z" />
    <glyph glyph-name="Uacute" unicode="&#xda;" horiz-adv-x="685" 
d="M277 754l-71 -449q-10 -63 -10 -92q0 -91 75 -128q40 -20 82 -20q92 0 159 67q32 32 47 82q5 18 17 91l71 449h84l-74 -472q-22 -139 -99 -209q-95 -86 -217 -86q-116 0 -183 77q-47 54 -47 132q0 35 8 86l74 472h84zM548 964l71 -32l-161 -141l-9 44z" />
    <glyph glyph-name="Ucircumflex" unicode="&#xdb;" horiz-adv-x="685" 
d="M277 754l-71 -449q-10 -63 -10 -93q0 -90 75 -127q39 -20 82 -20q93 0 159 67q30 31 46 82q7 24 18 91l71 449h84l-74 -472q-11 -69 -29 -112q-23 -55 -70 -97q-95 -86 -217 -86q-115 0 -183 77q-48 54 -48 133q0 28 9 85l74 472h84zM327 888l177 133l137 -133l-65 -45
l-87 85l-112 -85z" />
    <glyph glyph-name="Udieresis" unicode="&#xdc;" horiz-adv-x="685" 
d="M277 754l-71 -449q-10 -63 -10 -93q0 -90 75 -127q39 -20 82 -20q93 0 159 67q30 31 46 82q7 24 18 91l71 449h84l-74 -472q-11 -69 -29 -112q-23 -55 -70 -97q-95 -86 -217 -86q-115 0 -183 77q-48 54 -48 133q0 28 9 85l74 472h84zM401 989q23 0 36 -16t9 -38t-22 -38
t-40 -16q-23 0 -36 15.5t-10 38.5t21.5 38.5t41.5 15.5zM598 989q23 0 36 -16t9 -38t-22 -38t-40 -16q-23 0 -36 15.5t-10 38.5t21.5 38.5t41.5 15.5z" />
    <glyph glyph-name="Yacute" unicode="&#xdd;" horiz-adv-x="593" 
d="M306 324l-179 430h97l139 -336l245 336h97l-315 -430l-51 -324h-84zM503 964l71 -32l-161 -141l-9 44z" />
    <glyph glyph-name="Thorn" unicode="&#xde;" horiz-adv-x="503" 
d="M190 190l-30 -190h-84l119 754h84l-22 -140h40q130 0 181 -40q61 -47 61 -136q0 -57 -27.5 -110.5t-73.5 -87.5q-68 -50 -187 -50h-61zM245 536l-43 -268h56q173 0 194 136q2 13 2 30q0 63 -55 86q-38 16 -123 16h-31z" />
    <glyph glyph-name="germandbls" unicode="&#xdf;" horiz-adv-x="577" 
d="M72 0l63 396h-44l11 74h44l23 144q16 103 64 154q65 70 170 70q72 0 119.5 -42.5t47.5 -113.5q0 -56 -30 -105.5t-80 -72.5q60 -22 94 -80q32 -53 32 -120q0 -129 -102 -222t-232 -95l12 74q95 6 165 72q74 69 74 162q0 149 -176 163l11 74q62 -1 106.5 39t44.5 102
q0 42 -28 66.5t-71 24.5q-79 0 -113 -60q-19 -35 -34 -127l-91 -577h-80z" />
    <glyph glyph-name="agrave" unicode="&#xe0;" horiz-adv-x="577" 
d="M336 409q-79 0 -131 -62.5t-52 -142.5q0 -63 33.5 -103t95.5 -40q84 0 137 65q51 61 51 146q0 62 -36 99.5t-98 37.5zM579 470l-74 -470h-80l10 65h-2q-73 -78 -174 -78q-87 0 -138.5 57t-51.5 145q0 116 75 203q79 91 194 91q99 0 149 -80h2l10 67h80zM345 608l-8 -42
l-153 134l67 30z" />
    <glyph glyph-name="aacute" unicode="&#xe1;" horiz-adv-x="577" 
d="M336 409q-79 0 -131 -62.5t-52 -142.5q0 -63 33.5 -103t95.5 -40q84 0 137 65q51 61 51 146q0 62 -36 99.5t-98 37.5zM579 470l-74 -470h-80l10 65h-2q-73 -78 -174 -78q-87 0 -138.5 57t-51.5 145q0 116 75 203q79 91 194 91q99 0 149 -80h2l10 67h80zM424 730l67 -30
l-153 -134l-8 42z" />
    <glyph glyph-name="acircumflex" unicode="&#xe2;" horiz-adv-x="577" 
d="M336 409q-79 0 -131 -62.5t-52 -142.5q0 -63 33.5 -103t95.5 -40q84 0 137 65q51 61 51 146q0 62 -36 99.5t-98 37.5zM579 470l-74 -470h-80l10 65h-2q-73 -78 -174 -78q-87 0 -138.5 57t-51.5 145q0 116 75 203q79 91 194 91q99 0 149 -80h2l10 67h80zM216 564l138 107
l106 -107l-39 -36l-79 68l-100 -68z" />
    <glyph glyph-name="atilde" unicode="&#xe3;" horiz-adv-x="577" 
d="M336 409q-79 0 -131 -62.5t-52 -142.5q0 -63 33.5 -103t95.5 -40q84 0 137 65q51 61 51 146q0 62 -36 99.5t-98 37.5zM579 470l-74 -470h-80l10 65h-2q-73 -78 -174 -78q-87 0 -138.5 57t-51.5 145q0 116 75 203q79 91 194 91q99 0 149 -80h2l10 67h80zM226 567l-21 28
q63 56 110 56q18 0 52 -19q24 -13 40 -13q21 1 59 36l22 -28q-55 -59 -112 -59q-17 0 -49 16q-22 17 -44 17q-18 0 -57 -34z" />
    <glyph glyph-name="adieresis" unicode="&#xe4;" horiz-adv-x="577" 
d="M336 409q-78 0 -130.5 -62.5t-52.5 -142.5q0 -63 33.5 -103t95.5 -40q82 0 136 66q52 62 52 145q0 62 -36 99.5t-98 37.5zM579 470l-74 -470h-80l10 65h-2q-74 -78 -174 -78q-87 0 -138.5 57t-51.5 145q0 116 76 203q78 91 193 91q99 0 149 -80h2l10 67h80zM302 705
q23 0 36 -16t9 -38t-22 -38t-40 -16q-23 0 -36 15.5t-10 38.5t21.5 38.5t41.5 15.5zM499 705q23 0 36 -16t9 -38t-22 -38t-40 -16q-23 0 -36 15.5t-10 38.5t21.5 38.5t41.5 15.5z" />
    <glyph glyph-name="aring" unicode="&#xe5;" horiz-adv-x="577" 
d="M336 409q-78 0 -130.5 -62.5t-52.5 -142.5q0 -63 33.5 -103t95.5 -40q82 0 136 66q52 62 52 145q0 62 -36 99.5t-98 37.5zM579 470l-74 -470h-80l10 65h-2q-74 -78 -174 -78q-87 0 -138.5 57t-51.5 145q0 116 76 203q78 91 193 91q99 0 149 -80h2l10 67h80zM412 772
q36 0 59.5 -23t23.5 -59q0 -45 -34.5 -79t-79.5 -34q-36 0 -59.5 23.5t-23.5 59.5q0 44 35 78t79 34zM404 722q-19 0 -35.5 -14t-19.5 -33q-3 -20 8.5 -34t31.5 -14t36 14t19 34t-8.5 33.5t-31.5 13.5z" />
    <glyph glyph-name="ae" unicode="&#xe6;" horiz-adv-x="843" 
d="M492 286h281q0 52 -33 87.5t-85 35.5q-53 0 -100 -36t-63 -87zM263 223q-45 0 -82 -19q-44 -23 -50 -64q-7 -42 31 -63q30 -16 75 -16q50 0 87 17q46 22 53 66q6 41 -36 62q-33 17 -78 17zM844 218h-370q-2 -13 -2 -26q0 -59 36 -95t95 -36q89 0 158 97l62 -39
q-92 -132 -238 -132q-117 0 -165 93q-68 -93 -191 -93q-72 0 -120 27q-60 34 -60 100q0 92 83 143q60 37 140 37q74 0 127 -40q4 25 4 45q0 110 -114 110q-56 0 -149 -30l12 76q98 28 153 28q131 0 159 -97q34 45 87.5 71t109.5 26q89 0 139 -54.5t50 -144.5q0 -32 -6 -66z
" />
    <glyph glyph-name="ccedilla" unicode="&#xe7;" horiz-adv-x="476" 
d="M494 436l-17 -106h-2q-49 79 -133 79q-81 0 -138.5 -62t-57.5 -143q0 -63 37.5 -103t99.5 -40q91 0 165 81h2l-16 -107q-79 -48 -157 -48q-94 0 -154 56.5t-60 149.5q0 129 105 218q84 72 188 72q80 0 138 -47zM316 -53l-138 -146l-51 28l119 148z" />
    <glyph glyph-name="egrave" unicode="&#xe8;" horiz-adv-x="519" 
d="M520 218h-369q-2 -13 -2 -26q0 -59 36 -95t95 -36q89 0 158 97l62 -39q-91 -132 -238 -132q-89 0 -142.5 54t-53.5 143q0 19 4 45q17 109 87 179q74 75 181 75q89 0 139 -53.5t50 -143.5q0 -33 -7 -68zM165 286h281q0 52 -33 87.5t-85 35.5q-53 0 -100 -36t-63 -87z
M346 608l-8 -42l-153 134l67 30z" />
    <glyph glyph-name="eacute" unicode="&#xe9;" horiz-adv-x="519" 
d="M520 218h-369q-2 -13 -2 -26q0 -59 36 -95t95 -36q89 0 158 97l62 -39q-91 -132 -238 -132q-89 0 -142.5 54t-53.5 143q0 19 4 45q17 109 87 179q74 75 181 75q89 0 139 -53.5t50 -143.5q0 -33 -7 -68zM165 286h281q0 52 -33 87.5t-85 35.5q-53 0 -100 -36t-63 -87z
M424 731l67 -30l-153 -134l-8 42z" />
    <glyph glyph-name="ecircumflex" unicode="&#xea;" horiz-adv-x="519" 
d="M520 218h-369q-2 -13 -2 -26q0 -59 36 -95t95 -36q89 0 158 97l62 -39q-91 -132 -238 -132q-89 0 -142.5 54t-53.5 143q0 19 4 45q17 109 87 179q74 75 181 75q89 0 139 -53.5t50 -143.5q0 -33 -7 -68zM165 286h281q0 52 -33 87.5t-85 35.5q-53 0 -100 -36t-63 -87z
M220 564l138 107l106 -107l-39 -36l-79 68l-100 -68z" />
    <glyph glyph-name="edieresis" unicode="&#xeb;" horiz-adv-x="519" 
d="M520 218h-369q-2 -13 -2 -26q0 -59 36 -95t95 -36q89 0 158 97l62 -39q-92 -132 -238 -132q-89 0 -142 54t-53 143q0 26 3 45q17 108 87 179q75 75 181 75q89 0 139 -53.5t50 -143.5q0 -33 -7 -68zM165 286h281q0 52 -33 87.5t-85 35.5q-53 0 -100 -36t-63 -87zM273 705
q23 0 36 -16t9 -38t-22 -38t-40 -16q-23 0 -36 15.5t-10 38.5t21.5 38.5t41.5 15.5zM470 705q23 0 36 -16t9 -38t-22 -38t-40 -16q-23 0 -36 15.5t-10 38.5t21.5 38.5t41.5 15.5z" />
    <glyph glyph-name="igrave" unicode="&#xec;" horiz-adv-x="262" 
d="M245 470l-74 -470h-80l74 470h80zM214 584l-8 -42l-153 134l67 30z" />
    <glyph glyph-name="iacute" unicode="&#xed;" horiz-adv-x="262" 
d="M245 470l-74 -470h-80l74 470h80zM292 706l67 -30l-153 -134l-8 42z" />
    <glyph glyph-name="icircumflex" unicode="&#xee;" horiz-adv-x="262" 
d="M245 470l-74 -470h-80l74 470h80zM70 604l177 133l137 -133l-65 -45l-87 85l-112 -85z" />
    <glyph glyph-name="idieresis" unicode="&#xef;" horiz-adv-x="262" 
d="M245 470l-74 -470h-80l74 470h80zM145 705q23 0 36 -16t9 -38t-22 -38t-40 -16q-23 0 -36 15.5t-10 38.5t21.5 38.5t41.5 15.5zM342 705q23 0 36 -16t9 -38t-22 -38t-40 -16q-23 0 -36 15.5t-10 38.5t21.5 38.5t41.5 15.5z" />
    <glyph glyph-name="eth" unicode="&#xf0;" horiz-adv-x="561" 
d="M351 409q-82 0 -139.5 -61.5t-57.5 -143.5q0 -64 39 -103.5t103 -39.5q81 0 139 61t58 143q0 64 -39 104t-103 40zM160 788l56 37l110 -103l142 103l36 -40l-140 -103q77 -69 134 -169q70 -123 70 -231q0 -116 -84 -205.5t-200 -89.5q-91 0 -151 58t-60 149
q0 128 103 217q83 72 186 72q30 0 65 -19l3 2q-15 40 -53 93q-36 50 -70 81l-135 -100l-37 41l135 99q-48 53 -110 108z" />
    <glyph glyph-name="ntilde" unicode="&#xf1;" horiz-adv-x="528" 
d="M230 470l-9 -57h2q63 70 145 70q134 0 134 -137q0 -29 -6 -67l-44 -279h-80l42 265q6 38 6 63q0 81 -82 81q-74 0 -110 -61q-24 -40 -37 -125l-35 -223h-80l74 470h80zM231 588v0l-43 39q58 79 115 79q28 0 76 -23t62 -23q29 0 63 48l41 -38q-46 -81 -119 -81
q-23 0 -69 22.5t-69 22.5q-29 0 -57 -46z" />
    <glyph glyph-name="ograve" unicode="&#xf2;" horiz-adv-x="562" 
d="M279 -13q-92 0 -151.5 58t-59.5 149q0 127 103 217q83 72 186 72q92 0 151.5 -58.5t59.5 -150.5q0 -127 -102 -215q-84 -72 -187 -72zM346 409q-82 0 -139.5 -61t-57.5 -143q0 -64 39 -104t103 -40q83 0 139.5 60.5t56.5 143.5q0 64 -38.5 104t-102.5 40zM365 608l-8 -42
l-153 134l67 30z" />
    <glyph glyph-name="oacute" unicode="&#xf3;" horiz-adv-x="562" 
d="M279 -13q-92 0 -151.5 58t-59.5 149q0 127 103 217q83 72 186 72q92 0 151.5 -58.5t59.5 -150.5q0 -127 -102 -215q-84 -72 -187 -72zM346 409q-82 0 -139.5 -61t-57.5 -143q0 -64 39 -104t103 -40q83 0 139.5 60.5t56.5 143.5q0 64 -38.5 104t-102.5 40zM443 730l67 -30
l-153 -134l-8 42z" />
    <glyph glyph-name="ocircumflex" unicode="&#xf4;" horiz-adv-x="562" 
d="M279 -13q-92 0 -151.5 58t-59.5 149q0 127 103 217q83 72 186 72q92 0 151.5 -58.5t59.5 -150.5q0 -127 -102 -215q-84 -72 -187 -72zM346 409q-82 0 -139.5 -61t-57.5 -143q0 -64 39 -104t103 -40q83 0 139.5 60.5t56.5 143.5q0 64 -38.5 104t-102.5 40zM239 564
l138 107l106 -107l-39 -36l-79 68l-100 -68z" />
    <glyph glyph-name="otilde" unicode="&#xf5;" horiz-adv-x="562" 
d="M279 -13q-92 0 -151.5 58t-59.5 149q0 127 103 217q83 72 186 72q92 0 151.5 -58.5t59.5 -150.5q0 -127 -102 -215q-84 -72 -187 -72zM346 409q-82 0 -139.5 -61t-57.5 -143q0 -64 39 -104t103 -40q83 0 139.5 60.5t56.5 143.5q0 64 -38.5 104t-102.5 40zM248 566l-21 28
q63 56 110 56q18 0 52 -19q24 -13 40 -13q21 1 59 36l22 -28q-55 -59 -112 -59q-17 0 -49 16q-22 17 -44 17q-18 0 -57 -34z" />
    <glyph glyph-name="odieresis" unicode="&#xf6;" horiz-adv-x="562" 
d="M279 -13q-91 0 -151 58t-60 149q0 128 103 217q83 72 186 72q92 0 151.5 -58.5t59.5 -150.5q0 -127 -102 -215q-84 -72 -187 -72zM346 409q-82 0 -139.5 -61.5t-57.5 -143.5q0 -64 39 -103.5t103 -39.5q81 0 139 61t58 143q0 64 -39 104t-103 40zM295 705q23 0 36 -16
t9 -38t-22 -38t-40 -16q-23 0 -36 15.5t-10 38.5t21.5 38.5t41.5 15.5zM492 705q23 0 36 -16t9 -38t-22 -38t-40 -16q-23 0 -36 15.5t-10 38.5t21.5 38.5t41.5 15.5z" />
    <glyph glyph-name="divide" unicode="&#xf7;" 
d="M100 217l13 78h484l-13 -78h-484zM328 124q23 0 37 -17t11 -40t-22.5 -40t-43.5 -17t-38 16.5t-10 40.5t23 40.5t43 16.5zM388 502q24 0 37 -17t10 -40q-4 -24 -22.5 -40.5t-43.5 -16.5q-23 0 -37 17t-11 40t23 40t44 17z" />
    <glyph glyph-name="oslash" unicode="&#xf8;" horiz-adv-x="562" 
d="M498 434l80 69l43 -50l-80 -69q27 -47 27 -108q0 -117 -86 -203t-203 -86q-85 0 -141 49l-82 -70l-43 51l81 70q-26 47 -26 108q0 115 87 201.5t202 86.5q79 0 141 -49zM160 141l274 241q-38 27 -88 27q-74 0 -128.5 -50.5t-66.5 -125.5q-8 -47 9 -92zM475 331l-274 -244
q35 -26 90 -26q74 0 128 49t66 123q9 55 -10 98z" />
    <glyph glyph-name="ugrave" unicode="&#xf9;" horiz-adv-x="512" 
d="M224 470l-41 -262q-6 -38 -6 -61q0 -86 89 -86q65 0 96 44q22 31 33 103l41 262h80l-42 -271q-33 -212 -220 -212q-157 0 -157 151q0 29 5 61l42 271h80zM345 560l-8 -42l-153 134l67 30z" />
    <glyph glyph-name="uacute" unicode="&#xfa;" horiz-adv-x="512" 
d="M224 470l-41 -262q-6 -38 -6 -61q0 -86 89 -86q65 0 96 44q22 31 33 103l41 262h80l-42 -271q-33 -212 -220 -212q-157 0 -157 151q0 29 5 61l42 271h80zM413 683l67 -30l-153 -134l-8 42z" />
    <glyph glyph-name="ucircumflex" unicode="&#xfb;" horiz-adv-x="512" 
d="M224 470l-41 -262q-6 -38 -6 -61q0 -86 89 -86q65 0 96 44q22 31 33 103l41 262h80l-42 -271q-33 -212 -220 -212q-158 0 -158 151q0 22 6 61l42 271h80zM195 604l177 133l137 -133l-65 -45l-87 85l-112 -85z" />
    <glyph glyph-name="udieresis" unicode="&#xfc;" horiz-adv-x="512" 
d="M224 470l-41 -262q-6 -38 -6 -61q0 -86 89 -86q65 0 96 44q22 31 33 103l41 262h80l-42 -271q-33 -212 -220 -212q-158 0 -158 151q0 22 6 61l42 271h80zM270 705q23 0 36 -16t9 -38t-22 -38t-40 -16q-23 0 -36 15.5t-10 38.5t21.5 38.5t41.5 15.5zM467 705q23 0 36 -16
t9 -38t-22 -38t-40 -16q-23 0 -36 15.5t-10 38.5t21.5 38.5t41.5 15.5z" />
    <glyph glyph-name="yacute" unicode="&#xfd;" horiz-adv-x="498" 
d="M221 44l-149 426h93l113 -337l205 337h91l-463 -734h-91zM408 673l67 -30l-153 -134l-8 42z" />
    <glyph glyph-name="thorn" unicode="&#xfe;" horiz-adv-x="577" 
d="M283 825l-67 -422h2q72 80 174 80q88 0 139 -57.5t51 -146.5q0 -116 -76 -202q-78 -90 -193 -90q-102 0 -149 79h-2l-52 -330h-80l173 1089h80zM366 409q-78 0 -130.5 -62.5t-52.5 -142.5q0 -63 33.5 -103t95.5 -40q82 0 136 66q52 62 52 145q0 62 -36 99.5t-98 37.5z
" />
    <glyph glyph-name="ydieresis" unicode="&#xff;" horiz-adv-x="498" 
d="M221 44l-149 426h93l113 -337l205 337h91l-463 -734h-91zM263 705q23 0 36 -16t9 -38t-22 -38t-40 -16q-23 0 -36 15.5t-10 38.5t21.5 38.5t41.5 15.5zM460 705q23 0 36 -16t9 -38t-22 -38t-40 -16q-23 0 -36 15.5t-10 38.5t21.5 38.5t41.5 15.5z" />
    <glyph glyph-name="glyph271" unicode="&#x102;" horiz-adv-x="699" 
d="M545 214h-322l-125 -214h-92l473 790l214 -790h-93zM524 292l-78 302l-177 -302h255zM365 939h55q12 -54 68 -54t84 54h55q-14 -49 -55.5 -79t-92.5 -30q-50 0 -82.5 30t-31.5 79z" />
    <glyph glyph-name="glyph272" unicode="&#x103;" horiz-adv-x="577" 
d="M336 409q-79 0 -131 -62.5t-52 -142.5q0 -63 33.5 -103t95.5 -40q84 0 137 65q51 61 51 146q0 62 -36 99.5t-98 37.5zM579 470l-74 -470h-80l10 65h-2q-73 -78 -174 -78q-87 0 -138.5 57t-51.5 145q0 116 75 203q79 91 194 91q99 0 149 -80h2l10 67h80zM229 646h53
q11 -51 64 -51t80 51h52q-13 -46 -52.5 -75t-87.5 -29q-47 0 -78.5 29t-30.5 75z" />
    <glyph glyph-name="Cacute" unicode="&#x106;" horiz-adv-x="711" 
d="M761 693l-17 -104q-81 100 -214 100q-139 0 -248 -110t-109 -249q0 -113 74 -189t186 -76q128 0 244 100l-16 -104q-114 -74 -237 -74q-143 0 -239.5 93t-96.5 235q0 195 164 337q133 115 295 115q126 0 214 -74zM492 999l78 -38l-178 -154l-45 28z" />
    <glyph glyph-name="cacute" unicode="&#x107;" horiz-adv-x="441" 
d="M494 436l-17 -106h-2q-49 79 -133 79q-81 0 -138.5 -62t-57.5 -143q0 -63 37.5 -103t99.5 -40q91 0 165 81h2l-16 -107q-79 -48 -157 -48q-94 0 -154 56.5t-60 149.5q0 129 105 218q84 72 188 72q80 0 138 -47zM293 744l78 -38l-178 -154l-45 28z" />
    <glyph glyph-name="Ccaron" unicode="&#x10c;" horiz-adv-x="711" 
d="M761 693l-17 -104q-81 100 -214 100q-139 0 -248 -110t-109 -249q0 -113 74 -189t186 -76q128 0 244 100l-16 -104q-114 -74 -237 -74q-143 0 -239.5 93t-96.5 235q0 195 164 337q133 115 295 115q126 0 214 -74zM679 947l-177 -133l-137 133l65 45l86 -85l113 85z" />
    <glyph glyph-name="ccaron" unicode="&#x10d;" horiz-adv-x="441" 
d="M494 436l-17 -106h-2q-49 79 -133 79q-81 0 -138.5 -62t-57.5 -143q0 -63 37.5 -103t99.5 -40q91 0 165 81h2l-16 -107q-79 -48 -157 -48q-94 0 -154 56.5t-60 149.5q0 129 105 218q84 72 188 72q80 0 138 -47zM480 692l-177 -133l-137 133l65 45l86 -85l113 85z" />
    <glyph glyph-name="Dslash" unicode="&#x110;" horiz-adv-x="678" 
d="M76 0l59 370h-76l12 78h76l48 306h142q92 0 150 -16q75 -21 130 -75q86 -85 86 -218q0 -31 -6 -69q-27 -171 -168 -281q-73 -57 -151 -78q-63 -17 -162 -17h-140zM172 78h61q249 0 349 200q35 70 35 149q0 126 -84 191q-75 58 -205 58h-61l-36 -228h134l-12 -78h-134z
" />
    <glyph glyph-name="dcroat" unicode="&#x111;" horiz-adv-x="577" 
d="M336 409q-79 0 -131 -62.5t-52 -142.5q0 -63 33.5 -103t95.5 -40q84 0 137 65q51 61 51 146q0 62 -36 99.5t-98 37.5zM512 548h-172l11 74h173l32 203h80l-32 -203h36l-11 -74h-37l-87 -548h-80l10 65h-2q-72 -78 -174 -78q-87 0 -138.5 57t-51.5 145q0 116 75 203
q79 91 194 91q101 0 149 -80h2z" />
    <glyph glyph-name="Gbreve" unicode="&#x11e;" horiz-adv-x="767" 
d="M523 379h314q-24 -172 -120 -266q-128 -126 -299 -126q-142 0 -236.5 93t-94.5 235q0 196 164 337q133 115 295 115q194 0 294 -163l-70 -57q-78 142 -237 142q-142 0 -252 -110t-110 -252q0 -96 58 -166q80 -96 199 -96q103 0 194 66q97 70 113 170h-224zM388 971h69
q15 -68 85 -68q69 0 105 68h69q-17 -61 -69 -98.5t-116 -37.5q-62 0 -103 37.5t-40 98.5z" />
    <glyph glyph-name="gbreve" unicode="&#x11f;" horiz-adv-x="492" 
d="M331 409q-78 0 -130.5 -62.5t-52.5 -142.5q0 -63 33.5 -103t95.5 -40q82 0 136 66q52 62 52 145q0 62 -36 99.5t-98 37.5zM574 470l-70 -447q-11 -69 -23 -106q-18 -55 -57 -96q-78 -83 -195 -83q-88 0 -142 46q-58 48 -58 135q0 17 3 35h80q-2 -13 -2 -25
q0 -56 36 -86.5t93 -30.5q150 0 182 197l9 56h-2q-73 -78 -175 -78q-87 0 -139 58q-50 55 -50 143q0 115 77 203q80 92 193 92q101 0 148 -80h2l10 67h80zM188 716h69q15 -68 85 -68q69 0 105 68h69q-17 -61 -69 -98.5t-116 -37.5q-62 0 -103 37.5t-40 98.5z" />
    <glyph glyph-name="glyph273" unicode="&#x128;" horiz-adv-x="239" 
d="M281 754l-119 -754h-84l119 754h84zM132 821l-22 30q65 58 115 58q21 0 55 -20q23 -14 42 -13q23 1 63 38l23 -30q-60 -62 -118 -62q-16 0 -52 17q-25 18 -46 18q-19 0 -60 -36z" />
    <glyph glyph-name="glyph274" unicode="&#x129;" horiz-adv-x="262" 
d="M245 470l-74 -470h-80l74 470h80zM103 528l-21 28q63 56 110 56q18 0 52 -19q24 -13 40 -13q21 1 59 36l22 -28q-55 -59 -112 -59q-17 0 -49 16q-22 17 -44 17q-18 0 -57 -34z" />
    <glyph glyph-name="Idotaccent" unicode="&#x130;" horiz-adv-x="429" 
d="M281 754l-119 -754h-84l119 754h84zM319 971q23 0 36.5 -16t9.5 -38t-22 -38t-41 -16t-35.5 15.5t-9.5 38.5t21 38.5t41 15.5z" />
    <glyph glyph-name="dotlessi" unicode="&#x131;" horiz-adv-x="262" 
d="M245 470l-74 -470h-80l74 470h80z" />
    <glyph glyph-name="Lslash" unicode="&#x141;" horiz-adv-x="375" 
d="M232 453l144 90l-14 -87l-144 -90l-46 -288h208l-12 -78h-292l51 321l-85 -53l14 87l85 54l54 345h84z" />
    <glyph glyph-name="lslash" unicode="&#x142;" horiz-adv-x="258" 
d="M240 464l83 54l-14 -88l-82 -54l-60 -376h-80l53 332l-82 -54l14 88l82 54l64 405h80z" />
    <glyph glyph-name="OE" unicode="&#x152;" horiz-adv-x="1190" 
d="M729 0l23 145h-2q-59 -73 -144 -115.5t-177 -42.5q-144 0 -240 92.5t-96 235.5q0 29 5 61q25 162 157.5 276.5t296.5 114.5q89 0 160.5 -41.5t110.5 -119.5h2l23 148h394l-12 -78h-310l-35 -224h301l-13 -78h-301l-47 -296h310l-12 -78h-394zM540 689q-130 0 -234 -91.5
t-124 -220.5q-4 -26 -4 -49q0 -114 74.5 -188.5t188.5 -74.5q143 0 253 110t110 252q0 114 -74.5 188t-189.5 74z" />
    <glyph glyph-name="oe" unicode="&#x153;" horiz-adv-x="940" 
d="M941 218h-371q-2 -13 -2 -26q0 -59 36 -95t95 -36q89 0 158 97l62 -39q-92 -132 -238 -132q-58 0 -106 29q-53 31 -70 83q-38 -52 -99.5 -82t-126.5 -30q-91 0 -151 58t-60 149q0 126 103 217q83 73 186 72q63 -1 113 -28q57 -31 77 -86q76 113 210 114q89 1 140 -53.5
t51 -144.5q0 -33 -7 -67zM587 286h281q0 52 -33 87.5t-85 35.5q-53 0 -100 -36t-63 -87zM348 409q-82 0 -139.5 -61.5t-57.5 -143.5q0 -64 39 -103.5t103 -39.5q81 0 139 61t58 143q0 64 -39 104t-103 40z" />
    <glyph glyph-name="Scedilla" unicode="&#x15e;" horiz-adv-x="656" 
d="M588 650l-74 -43q-34 82 -117 82q-55 0 -100 -38t-45 -93q0 -37 34 -65q20 -16 67 -39l46 -22q75 -36 106 -67q45 -45 45 -109q0 -18 -3 -36q-16 -98 -95 -165.5t-179 -67.5q-89 0 -144.5 53t-59.5 142l85 23q0 -60 35 -100t94 -40q64 0 116.5 42.5t62.5 104.5q2 12 2 23
q0 47 -37 80q-21 18 -81 47l-42 20q-66 31 -95 60q-42 42 -42 101q0 14 3 32q14 85 85 140q68 52 156 52q132 0 177 -117zM279 -53l-138 -146l-51 28l119 148z" />
    <glyph glyph-name="scedilla" unicode="&#x15f;" horiz-adv-x="383" 
d="M396 396l-73 -35q-13 48 -56 48q-23 0 -42.5 -15t-23.5 -37q-5 -31 50 -63l84 -40q51 -34 51 -90q0 -11 -2 -24q-10 -66 -63 -109.5t-120 -43.5q-58 0 -97.5 31t-49.5 88l76 30q22 -75 84 -75q33 0 57.5 20t29.5 52q7 43 -39 68q-30 15 -90 44q-50 32 -50 84q0 15 1 21
q9 57 55.5 95t105.5 38q40 0 71 -24t41 -63zM182 -53l-138 -146l-51 28l119 148z" />
    <glyph glyph-name="Scaron" unicode="&#x160;" horiz-adv-x="559" 
d="M588 650l-74 -43q-34 82 -117 82q-55 0 -100 -38t-45 -93q0 -37 34 -65q20 -16 67 -39l46 -22q75 -36 106 -67q45 -45 45 -109q0 -18 -3 -36q-16 -98 -95 -165.5t-179 -67.5q-89 0 -144.5 53t-59.5 142l85 23q0 -60 35 -100t94 -40q64 0 116.5 42.5t62.5 104.5q2 12 2 23
q0 47 -37 80q-21 18 -81 47l-42 20q-66 31 -95 60q-42 42 -42 101q0 14 3 32q14 85 85 140q68 52 156 52q132 0 177 -117zM592 976l-177 -133l-137 133l65 45l86 -85l113 85z" />
    <glyph glyph-name="scaron" unicode="&#x161;" horiz-adv-x="399" 
d="M396 396l-73 -35q-13 48 -56 48q-23 0 -42.5 -15t-23.5 -37q-5 -31 50 -63l84 -40q51 -34 51 -90q0 -11 -2 -24q-10 -66 -63 -109.5t-120 -43.5q-58 0 -97.5 31t-49.5 88l76 30q22 -75 84 -75q33 0 57.5 20t29.5 52q7 43 -39 68q-30 15 -90 44q-50 32 -50 84q0 15 1 21
q9 57 55.5 95t105.5 38q40 0 71 -24t41 -63zM467 692l-177 -133l-137 133l65 45l86 -85l113 85z" />
    <glyph glyph-name="ch903" unicode="&#x168;" horiz-adv-x="685" 
d="M277 754l-71 -449q-10 -63 -10 -92q0 -91 75 -128q40 -20 82 -20q92 0 159 67q32 32 47 82q5 18 17 91l71 449h84l-74 -472q-22 -139 -99 -209q-95 -86 -217 -86q-116 0 -183 77q-47 54 -47 132q0 35 8 86l74 472h84zM337 800l-22 30q65 58 115 58q21 0 55 -20
q23 -14 42 -13q23 1 63 38l23 -30q-60 -62 -118 -62q-16 0 -52 17q-25 18 -46 18q-19 0 -60 -36z" />
    <glyph glyph-name="ch904" unicode="&#x169;" horiz-adv-x="512" 
d="M224 470l-41 -262q-6 -38 -6 -61q0 -86 89 -86q65 0 96 44q22 31 33 103l41 262h80l-42 -271q-33 -212 -220 -212q-157 0 -157 151q0 29 5 61l42 271h80zM211 528l-21 28q63 56 110 56q18 0 52 -19q24 -13 40 -13q21 1 59 36l22 -28q-55 -59 -112 -59q-17 0 -49 16
q-22 17 -44 17q-18 0 -57 -34z" />
    <glyph glyph-name="Ydieresis" unicode="&#x178;" horiz-adv-x="593" 
d="M306 324l-179 430h97l139 -336l245 336h97l-315 -430l-51 -324h-84zM355 989q23 0 36 -16t9 -38t-22 -38t-40 -16q-23 0 -36 15.5t-10 38.5t21.5 38.5t41.5 15.5zM552 989q23 0 36 -16t9 -38t-22 -38t-40 -16q-23 0 -36 15.5t-10 38.5t21.5 38.5t41.5 15.5z" />
    <glyph glyph-name="Zcaron" unicode="&#x17d;" horiz-adv-x="586" 
d="M165 78h401l-12 -78h-540l518 676h-359l12 78h499zM605 976l-177 -133l-137 133l65 45l86 -85l113 85z" />
    <glyph glyph-name="zcaron" unicode="&#x17e;" horiz-adv-x="519" 
d="M184 74h324l-12 -74h-486l402 396h-276l11 74h437zM527 692l-177 -133l-137 133l65 45l86 -85l113 85z" />
    <glyph glyph-name="florin" unicode="&#x192;" 
d="M669 825l-27 -75q-24 11 -48 11q-49 0 -75 -39q-13 -20 -35 -84l-46 -136h120l-22 -68h-121l-108 -314q-13 -39 -33 -93q-49 -116 -137 -151q-52 -20 -104 -16l-50 4l28 75l34 -1q80 -2 123 55q24 32 58 131l106 310h-82l22 68h84l53 158q29 86 66 126q48 52 128 52
q36 0 66 -13z" />
    <glyph glyph-name="glyph277" unicode="&#x1a0;" horiz-adv-x="862" 
d="M540 689q-131 0 -234.5 -91t-123.5 -221q-4 -26 -4 -49q0 -115 74 -189t189 -74q144 0 253.5 109t109.5 253q0 115 -74.5 188.5t-189.5 73.5zM674 746l90 8q53 5 53 34q0 16 -21 26q-17 8 -35 8l31 29q28 -2 49 -20t21 -45q0 -52 -106 -83q133 -95 133 -266q0 -30 -5 -61
q-26 -163 -158 -276t-297 -113q-145 0 -240.5 92t-95.5 236q0 30 5 61q26 163 158 277t296 114q67 0 122 -21z" />
    <glyph glyph-name="glyph278" unicode="&#x1a1;" horiz-adv-x="562" 
d="M346 409q-82 0 -139.5 -61t-57.5 -143q0 -64 39 -104t103 -40q83 0 139.5 60.5t56.5 143.5q0 64 -38.5 104t-102.5 40zM437 469h40q47 8 47 30q0 14 -17.5 22.5t-32.5 8.5l28 25q21 -2 34 -11q29 -16 29 -43t-31 -42q-24 -11 -55 -11q89 -59 89 -174q0 -127 -102 -215
q-84 -72 -187 -72q-92 0 -151.5 58t-59.5 149q0 127 103 217q83 72 186 72q43 0 80 -14z" />
    <glyph glyph-name="glyph279" unicode="&#x1af;" horiz-adv-x="685" 
d="M727 731l-70 -449q-22 -139 -99 -209q-95 -86 -217 -86q-116 0 -183 77q-47 54 -47 132q0 35 8 86l74 472h84l-71 -449q-10 -63 -10 -92q0 -91 75 -128q40 -20 82 -20q92 0 159 67q32 32 47 82q5 18 17 91l71 449h81q53 8 53 34q0 16 -21 26q-17 8 -35 8l31 28
q26 -2 47 -17q23 -18 23 -43q0 -59 -98 -59h-1z" />
    <glyph glyph-name="glyph280" unicode="&#x1b0;" horiz-adv-x="512" 
d="M513 448l-39 -249q-33 -212 -220 -212q-157 0 -157 151q0 29 5 61l42 271h80l-41 -262q-6 -38 -6 -61q0 -86 89 -86q65 0 96 44q22 31 33 103l41 262h80q42 8 42 30q0 13 -17.5 21.5t-32.5 8.5l28 25q21 -2 34 -11q29 -16 29 -42q0 -28 -31 -43q-23 -11 -55 -11z" />
    <glyph glyph-name="circumflex" unicode="&#x2c6;" horiz-adv-x="470" 
d="M174 604l177 133l137 -133l-65 -45l-87 85l-112 -85z" />
    <glyph glyph-name="caron" unicode="&#x2c7;" horiz-adv-x="470" 
d="M502 692l-177 -133l-137 133l65 45l86 -85l113 85z" />
    <glyph glyph-name="breve" unicode="&#x2d8;" horiz-adv-x="485" 
d="M192 716h69q15 -68 85 -68q69 0 105 68h69q-17 -61 -69 -98.5t-116 -37.5q-62 0 -103 37.5t-40 98.5z" />
    <glyph glyph-name="dotaccent" unicode="&#x2d9;" horiz-adv-x="358" 
d="M292 716q23 0 36.5 -16t9.5 -38t-22 -38t-41 -16t-35.5 15.5t-9.5 38.5t21 38.5t41 15.5z" />
    <glyph glyph-name="ring" unicode="&#x2da;" horiz-adv-x="350" 
d="M298 772q36 0 59.5 -23t23.5 -59q0 -45 -34.5 -79t-79.5 -34q-36 0 -59.5 23.5t-23.5 59.5q0 44 35 78t79 34zM290 722q-19 0 -35.5 -14t-19.5 -33q-3 -20 8.5 -34t31.5 -14t36 14t19 34t-8.5 33.5t-31.5 13.5z" />
    <glyph glyph-name="ogonek" unicode="&#x2db;" horiz-adv-x="337" 
d="M161 0h64v-2q-89 -54 -96 -100q-7 -45 48 -45q30 0 63 18l-21 -66q-32 -15 -65 -15q-39 0 -66 20q-30 22 -30 59q0 74 103 131z" />
    <glyph glyph-name="tilde" unicode="&#x2dc;" horiz-adv-x="506" 
d="M220 588v0l-43 39q58 79 115 79q28 0 76 -23t62 -23q29 0 63 48l41 -38q-46 -81 -119 -81q-23 0 -69 22.5t-69 22.5q-29 0 -57 -46z" />
    <glyph glyph-name="hungarumlaut" unicode="&#x2dd;" horiz-adv-x="467" 
d="M341 742l-121 -159l-38 11l85 162zM498 742l-121 -159l-38 11l85 162z" />
    <glyph glyph-name="glyph281" unicode="&#x1ea0;" horiz-adv-x="699" 
d="M545 214h-322l-125 -214h-92l473 790l214 -790h-93zM524 292l-78 302l-177 -302h255zM360 -31q21 0 33 -14t9 -35t-20 -36t-38 -15t-33 15t-9 36q3 20 20 34.5t38 14.5z" />
    <glyph glyph-name="glyph282" unicode="&#x1ea1;" horiz-adv-x="577" 
d="M336 409q-79 0 -131 -62.5t-52 -142.5q0 -63 33.5 -103t95.5 -40q84 0 137 65q51 61 51 146q0 62 -36 99.5t-98 37.5zM579 470l-74 -470h-80l10 65h-2q-73 -78 -174 -78q-87 0 -138.5 57t-51.5 145q0 116 75 203q79 91 194 91q99 0 149 -80h2l10 67h80zM260 -62
q20 0 31 -13.5t8 -33.5t-19 -34t-36 -14t-31 14t-8 34t19 33.5t36 13.5z" />
    <glyph glyph-name="glyph283" unicode="&#x1ea2;" horiz-adv-x="699" 
d="M545 214h-322l-125 -214h-92l473 790l214 -790h-93zM524 292l-78 302l-177 -302h255zM541 923q40 13 44 40q2 16 -7.5 26.5t-25.5 10.5q-37 0 -45 -45h-37q4 34 28.5 57.5t58.5 23.5t52.5 -21t13.5 -55q-7 -50 -77 -72q-31 -10 -42 -17q-21 -14 -24 -40q-15 23 -15 43
q0 15 9.5 22.5t66.5 26.5z" />
    <glyph glyph-name="glyph284" unicode="&#x1ea3;" horiz-adv-x="577" 
d="M336 409q-79 0 -131 -62.5t-52 -142.5q0 -63 33.5 -103t95.5 -40q84 0 137 65q51 61 51 146q0 62 -36 99.5t-98 37.5zM579 470l-74 -470h-80l10 65h-2q-73 -78 -174 -78q-87 0 -138.5 57t-51.5 145q0 116 75 203q79 91 194 91q99 0 149 -80h2l10 67h80zM398 647
q40 13 44 40q2 16 -7.5 26.5t-25.5 10.5q-37 0 -45 -45h-37q4 34 28.5 57.5t58.5 23.5t52.5 -21t13.5 -55q-7 -50 -77 -72q-31 -10 -42 -17q-21 -14 -24 -40q-15 23 -15 43q0 15 9.5 22.5t66.5 26.5z" />
    <glyph glyph-name="glyph285" unicode="&#x1ea4;" horiz-adv-x="699" 
d="M545 214h-322l-125 -214h-92l473 790l214 -790h-93zM524 292l-78 302l-177 -302h255zM347 848l145 113l112 -113l-41 -38l-84 72l-105 -72zM693 1055l71 -32l-161 -141l-9 44z" />
    <glyph glyph-name="glyph286" unicode="&#x1ea5;" horiz-adv-x="577" 
d="M336 409q-79 0 -131 -62.5t-52 -142.5q0 -63 33.5 -103t95.5 -40q84 0 137 65q51 61 51 146q0 62 -36 99.5t-98 37.5zM579 470l-74 -470h-80l10 65h-2q-73 -78 -174 -78q-87 0 -138.5 57t-51.5 145q0 116 75 203q79 91 194 91q99 0 149 -80h2l10 67h80zM216 564l138 107
l106 -107l-39 -36l-79 68l-100 -68zM545 760l67 -30l-153 -134l-8 42z" />
    <glyph glyph-name="glyph287" unicode="&#x1ea6;" horiz-adv-x="699" 
d="M545 214h-322l-125 -214h-92l473 790l214 -790h-93zM524 292l-78 302l-177 -302h255zM347 848l145 113l112 -113l-41 -38l-84 72l-105 -72zM357 926l-9 -44l-161 141l71 32z" />
    <glyph glyph-name="glyph288" unicode="&#x1ea7;" horiz-adv-x="577" 
d="M336 409q-79 0 -131 -62.5t-52 -142.5q0 -63 33.5 -103t95.5 -40q84 0 137 65q51 61 51 146q0 62 -36 99.5t-98 37.5zM579 470l-74 -470h-80l10 65h-2q-73 -78 -174 -78q-87 0 -138.5 57t-51.5 145q0 116 75 203q79 91 194 91q99 0 149 -80h2l10 67h80zM217 564l137 107
l107 -107l-39 -36l-80 68l-100 -68zM226 638l-8 -42l-153 134l67 30z" />
    <glyph glyph-name="glyph289" unicode="&#x1ea8;" horiz-adv-x="699" 
d="M545 214h-322l-125 -214h-92l473 790l214 -790h-93zM524 292l-78 302l-177 -302h255zM347 848l145 113l112 -113l-41 -38l-84 72l-105 -72zM665 974q40 13 44 40q2 16 -7.5 26.5t-25.5 10.5q-37 0 -45 -45h-37q4 34 28.5 57.5t58.5 23.5t52.5 -21t13.5 -55
q-7 -50 -77 -72q-31 -10 -42 -17q-21 -14 -24 -40q-15 23 -15 43q0 15 9.5 22.5t66.5 26.5z" />
    <glyph glyph-name="glyph290" unicode="&#x1ea9;" horiz-adv-x="577" 
d="M336 409q-79 0 -131 -62.5t-52 -142.5q0 -63 33.5 -103t95.5 -40q84 0 137 65q51 61 51 146q0 62 -36 99.5t-98 37.5zM579 470l-74 -470h-80l10 65h-2q-73 -78 -174 -78q-87 0 -138.5 57t-51.5 145q0 116 75 203q79 91 194 91q99 0 149 -80h2l10 67h80zM216 565l138 107
l107 -107l-39 -37l-80 69l-100 -69zM528 690q40 13 44 40q2 16 -7.5 26.5t-25.5 10.5q-37 0 -45 -45h-37q4 34 28.5 57.5t58.5 23.5t52.5 -21t13.5 -55q-7 -50 -77 -72q-31 -10 -42 -17q-21 -14 -24 -40q-15 23 -15 43q0 15 9.5 22.5t66.5 26.5z" />
    <glyph glyph-name="glyph291" unicode="&#x1eaa;" horiz-adv-x="699" 
d="M545 214h-322l-125 -214h-92l473 790l214 -790h-93zM524 292l-78 302l-177 -302h255zM347 848l145 113l112 -113l-41 -38l-84 72l-105 -72zM357 989l-22 30q65 58 115 58q21 0 55 -20q23 -14 42 -13q23 1 63 38l23 -30q-60 -62 -118 -62q-16 0 -52 17q-25 18 -46 18
q-19 0 -60 -36z" />
    <glyph glyph-name="glyph292" unicode="&#x1eab;" horiz-adv-x="577" 
d="M336 409q-79 0 -131 -62.5t-52 -142.5q0 -63 33.5 -103t95.5 -40q84 0 137 65q51 61 51 146q0 62 -36 99.5t-98 37.5zM579 470l-74 -470h-80l10 65h-2q-73 -78 -174 -78q-87 0 -138.5 57t-51.5 145q0 116 75 203q79 91 194 91q99 0 149 -80h2l10 67h80zM217 564l137 107
l107 -107l-39 -36l-80 68l-100 -68zM226 698l-21 28q63 56 110 56q18 0 52 -19q24 -13 40 -13q21 1 59 36l22 -28q-55 -59 -112 -59q-17 0 -49 16q-22 17 -44 17q-18 0 -57 -34z" />
    <glyph glyph-name="glyph293" unicode="&#x1eac;" horiz-adv-x="699" 
d="M545 214h-322l-125 -214h-92l473 790l214 -790h-93zM524 292l-78 302l-177 -302h255zM347 848l145 113l112 -113l-41 -38l-84 72l-105 -72zM360 -31q21 0 33 -14t9 -35t-20 -36t-38 -15t-33 15t-9 36q3 20 20 34.5t38 14.5z" />
    <glyph glyph-name="glyph294" unicode="&#x1ead;" horiz-adv-x="577" 
d="M336 409q-79 0 -131 -62.5t-52 -142.5q0 -63 33.5 -103t95.5 -40q84 0 137 65q51 61 51 146q0 62 -36 99.5t-98 37.5zM579 470l-74 -470h-80l10 65h-2q-73 -78 -174 -78q-87 0 -138.5 57t-51.5 145q0 116 75 203q79 91 194 91q99 0 149 -80h2l10 67h80zM216 564l138 107
l106 -107l-39 -36l-79 68l-100 -68zM260 -62q20 0 31 -13.5t8 -33.5t-19 -34t-36 -14t-31 14t-8 34t19 33.5t36 13.5z" />
    <glyph glyph-name="glyph295" unicode="&#x1eae;" horiz-adv-x="699" 
d="M545 214h-322l-125 -214h-92l473 790l214 -790h-93zM524 292l-78 302l-177 -302h255zM365 939h55q12 -54 68 -54t84 54h55q-14 -49 -55.5 -79t-92.5 -30q-50 0 -82.5 30t-31.5 79zM578 1113l71 -32l-161 -141l-9 44z" />
    <glyph glyph-name="glyph296" unicode="&#x1eaf;" horiz-adv-x="577" 
d="M336 409q-79 0 -131 -62.5t-52 -142.5q0 -63 33.5 -103t95.5 -40q84 0 137 65q51 61 51 146q0 62 -36 99.5t-98 37.5zM579 470l-74 -470h-80l10 65h-2q-73 -78 -174 -78q-87 0 -138.5 57t-51.5 145q0 116 75 203q79 91 194 91q99 0 149 -80h2l10 67h80zM229 646h53
q11 -51 64 -51t80 51h52q-13 -46 -52.5 -75t-87.5 -29q-47 0 -78.5 29t-30.5 75zM432 821l67 -30l-153 -134l-8 42z" />
    <glyph glyph-name="glyph297" unicode="&#x1eb0;" horiz-adv-x="699" 
d="M545 214h-322l-125 -214h-92l473 790l214 -790h-93zM524 292l-78 302l-177 -302h255zM365 939h55q12 -54 68 -54t84 54h55q-14 -49 -55.5 -79t-92.5 -30q-50 0 -82.5 30t-31.5 79zM497 984l-9 -44l-161 141l71 32z" />
    <glyph glyph-name="glyph298" unicode="&#x1eb1;" horiz-adv-x="577" 
d="M336 409q-79 0 -131 -62.5t-52 -142.5q0 -63 33.5 -103t95.5 -40q84 0 137 65q51 61 51 146q0 62 -36 99.5t-98 37.5zM579 470l-74 -470h-80l10 65h-2q-73 -78 -174 -78q-87 0 -138.5 57t-51.5 145q0 116 75 203q79 91 194 91q99 0 149 -80h2l10 67h80zM230 646h52
q12 -51 65 -51t80 51h52q-13 -47 -52.5 -75.5t-88.5 -28.5q-47 0 -78 29t-30 75zM355 698l-8 -42l-153 134l67 30z" />
    <glyph glyph-name="glyph299" unicode="&#x1eb2;" horiz-adv-x="699" 
d="M545 214h-322l-125 -214h-92l473 790l214 -790h-93zM524 292l-78 302l-177 -302h255zM365 939h55q12 -54 68 -54t84 54h55q-14 -49 -55.5 -79t-92.5 -30q-50 0 -82.5 30t-31.5 79zM549 1021q40 13 44 40q2 16 -7.5 26.5t-25.5 10.5q-37 0 -45 -45h-37q4 34 28.5 57.5
t58.5 23.5t52.5 -21t13.5 -55q-7 -50 -77 -72q-31 -10 -42 -17q-21 -14 -24 -40q-15 23 -15 43q0 15 9.5 22.5t66.5 26.5z" />
    <glyph glyph-name="glyph300" unicode="&#x1eb3;" horiz-adv-x="577" 
d="M336 409q-79 0 -131 -62.5t-52 -142.5q0 -63 33.5 -103t95.5 -40q84 0 137 65q51 61 51 146q0 62 -36 99.5t-98 37.5zM579 470l-74 -470h-80l10 65h-2q-73 -78 -174 -78q-87 0 -138.5 57t-51.5 145q0 116 75 203q79 91 194 91q99 0 149 -80h2l10 67h80zM229 646h53
q10 -52 64 -52q53 0 80 52h52q-13 -46 -52.5 -75t-87.5 -29t-79 28.5t-30 75.5zM407 739q40 13 44 40q2 16 -7.5 26.5t-25.5 10.5q-37 0 -45 -45h-37q4 34 28.5 57.5t58.5 23.5t52.5 -21t13.5 -55q-7 -50 -77 -72q-31 -10 -42 -17q-21 -14 -24 -40q-15 23 -15 43
q0 15 9.5 22.5t66.5 26.5z" />
    <glyph glyph-name="glyph301" unicode="&#x1eb4;" horiz-adv-x="699" 
d="M545 214h-322l-125 -214h-92l473 790l214 -790h-93zM524 292l-78 302l-177 -302h255zM365 939h55q12 -54 68 -54t84 54h55q-14 -49 -55.5 -79t-92.5 -30q-50 0 -82.5 30t-31.5 79zM502 969l-22 30q65 58 115 58q21 0 55 -20q23 -14 42 -13q23 1 63 38l23 -30
q-60 -62 -118 -62q-16 0 -52 17q-25 18 -46 18q-19 0 -60 -36z" />
    <glyph glyph-name="glyph302" unicode="&#x1eb5;" horiz-adv-x="577" 
d="M336 409q-79 0 -131 -62.5t-52 -142.5q0 -63 33.5 -103t95.5 -40q84 0 137 65q51 61 51 146q0 62 -36 99.5t-98 37.5zM579 470l-74 -470h-80l10 65h-2q-73 -78 -174 -78q-87 0 -138.5 57t-51.5 145q0 116 75 203q79 91 194 91q99 0 149 -80h2l10 67h80zM230 646h52
q11 -51 64 -51t80 51h52q-13 -47 -52 -75.5t-88 -28.5q-47 0 -78 29t-30 75zM360 674l-21 29q63 55 109 55q19 0 52 -19q22 -13 40 -12q25 1 60 36l22 -29q-57 -59 -112 -59q-11 0 -50 16q-22 17 -43 17q-18 0 -57 -34z" />
    <glyph glyph-name="glyph303" unicode="&#x1eb6;" horiz-adv-x="699" 
d="M545 214h-322l-125 -214h-92l473 790l214 -790h-93zM524 292l-78 302l-177 -302h255zM365 939h55q12 -54 68 -54t84 54h55q-14 -49 -55.5 -79t-92.5 -30q-50 0 -82.5 30t-31.5 79zM360 -31q21 0 33 -14t9 -35t-20 -36t-38 -15t-33 15t-9 36q3 20 20 34.5t38 14.5z" />
    <glyph glyph-name="glyph304" unicode="&#x1eb7;" horiz-adv-x="577" 
d="M336 409q-79 0 -131 -62.5t-52 -142.5q0 -63 33.5 -103t95.5 -40q84 0 137 65q51 61 51 146q0 62 -36 99.5t-98 37.5zM579 470l-74 -470h-80l10 65h-2q-73 -78 -174 -78q-87 0 -138.5 57t-51.5 145q0 116 75 203q79 91 194 91q99 0 149 -80h2l10 67h80zM260 -62
q20 0 31 -13.5t8 -33.5t-19 -34t-36 -14t-31 14t-8 34t19 33.5t36 13.5zM229 646h53q11 -51 64 -51t80 51h52q-13 -46 -52.5 -75t-87.5 -29q-47 0 -78.5 29t-30.5 75z" />
    <glyph glyph-name="glyph305" unicode="&#x1eb8;" horiz-adv-x="534" 
d="M76 0l119 754h391l-12 -78h-307l-35 -224h298l-13 -78h-298l-47 -296h307l-12 -78h-391zM283 -52q21 0 33 -14t9 -35t-20 -36t-38 -15t-33 15t-9 36q3 20 20 34.5t38 14.5z" />
    <glyph glyph-name="glyph306" unicode="&#x1eb9;" horiz-adv-x="519" 
d="M520 218h-369q-2 -13 -2 -26q0 -59 36 -95t95 -36q89 0 158 97l62 -39q-91 -132 -238 -132q-89 0 -142.5 54t-53.5 143q0 19 4 45q17 109 87 179q74 75 181 75q89 0 139 -53.5t50 -143.5q0 -33 -7 -68zM165 286h281q0 52 -33 87.5t-85 35.5q-53 0 -100 -36t-63 -87z
M262 -62q20 0 31 -13.5t8 -33.5t-19 -34t-36 -14t-31 14t-8 34t19 33.5t36 13.5z" />
    <glyph glyph-name="glyph307" unicode="&#x1eba;" horiz-adv-x="534" 
d="M76 0l119 754h391l-12 -78h-307l-35 -224h298l-13 -78h-298l-47 -296h307l-12 -78h-391zM449 902q40 13 44 40q2 16 -7.5 26.5t-25.5 10.5q-37 0 -45 -45h-37q4 34 28.5 57.5t58.5 23.5t52.5 -21t13.5 -55q-7 -50 -77 -72q-31 -10 -42 -17q-21 -14 -24 -40q-15 23 -15 43
q0 15 9.5 22.5t66.5 26.5z" />
    <glyph glyph-name="glyph308" unicode="&#x1ebb;" horiz-adv-x="519" 
d="M520 218h-369q-2 -13 -2 -26q0 -59 36 -95t95 -36q89 0 158 97l62 -39q-91 -132 -238 -132q-89 0 -142.5 54t-53.5 143q0 19 4 45q17 109 87 179q74 75 181 75q89 0 139 -53.5t50 -143.5q0 -33 -7 -68zM165 286h281q0 52 -33 87.5t-85 35.5q-53 0 -100 -36t-63 -87z
M399 648q40 13 44 40q2 16 -7.5 26.5t-25.5 10.5q-37 0 -45 -45h-37q4 34 28.5 57.5t58.5 23.5t52.5 -21t13.5 -55q-7 -50 -77 -72q-31 -10 -42 -17q-21 -14 -24 -40q-15 23 -15 43q0 15 9.5 22.5t66.5 26.5z" />
    <glyph glyph-name="glyph309" unicode="&#x1ebc;" horiz-adv-x="534" 
d="M76 0l119 754h391l-12 -78h-307l-35 -224h298l-13 -78h-298l-47 -296h307l-12 -78h-391zM266 830l-22 30q65 58 115 58q21 0 55 -20q23 -14 42 -13q23 1 63 38l23 -30q-60 -62 -118 -62q-16 0 -52 17q-25 18 -46 18q-19 0 -60 -36z" />
    <glyph glyph-name="glyph310" unicode="&#x1ebd;" horiz-adv-x="519" 
d="M520 218h-369q-2 -13 -2 -26q0 -59 36 -95t95 -36q89 0 158 97l62 -39q-91 -132 -238 -132q-89 0 -142.5 54t-53.5 143q0 19 4 45q17 109 87 179q74 75 181 75q89 0 139 -53.5t50 -143.5q0 -33 -7 -68zM165 286h281q0 52 -33 87.5t-85 35.5q-53 0 -100 -36t-63 -87z
M229 567l-21 28q63 56 110 56q18 0 52 -19q24 -13 40 -13q21 1 59 36l22 -28q-55 -59 -112 -59q-17 0 -49 16q-22 17 -44 17q-18 0 -57 -34z" />
    <glyph glyph-name="glyph311" unicode="&#x1ebe;" horiz-adv-x="534" 
d="M76 0l119 754h391l-12 -78h-307l-35 -224h298l-13 -78h-298l-47 -296h307l-12 -78h-391zM263 829l145 113l112 -113l-41 -38l-84 72l-105 -72zM609 1036l71 -32l-161 -141l-9 44z" />
    <glyph glyph-name="glyph312" unicode="&#x1ebf;" horiz-adv-x="519" 
d="M520 218h-369q-2 -13 -2 -26q0 -59 36 -95t95 -36q89 0 158 97l62 -39q-91 -132 -238 -132q-89 0 -142.5 54t-53.5 143q0 19 4 45q17 109 87 179q74 75 181 75q89 0 139 -53.5t50 -143.5q0 -33 -7 -68zM165 286h281q0 52 -33 87.5t-85 35.5q-53 0 -100 -36t-63 -87z
M220 564l138 107l106 -107l-39 -36l-79 68l-100 -68zM549 760l67 -30l-153 -134l-8 42z" />
    <glyph glyph-name="glyph313" unicode="&#x1ec0;" horiz-adv-x="534" 
d="M76 0l119 754h391l-12 -78h-307l-35 -224h298l-13 -78h-298l-47 -296h307l-12 -78h-391zM255 828l145 113l112 -113l-41 -38l-84 72l-105 -72zM265 906l-9 -44l-161 141l71 32z" />
    <glyph glyph-name="glyph314" unicode="&#x1ec1;" horiz-adv-x="519" 
d="M520 218h-369q-2 -13 -2 -26q0 -59 36 -95t95 -36q89 0 158 97l62 -39q-91 -132 -238 -132q-89 0 -142.5 54t-53.5 143q0 19 4 45q17 109 87 179q74 75 181 75q89 0 139 -53.5t50 -143.5q0 -33 -7 -68zM165 286h281q0 52 -33 87.5t-85 35.5q-53 0 -100 -36t-63 -87z
M220 564l137 107l107 -107l-39 -36l-80 68l-100 -68zM229 638l-8 -42l-153 134l67 30z" />
    <glyph glyph-name="glyph315" unicode="&#x1ec2;" horiz-adv-x="534" 
d="M76 0l119 754h391l-12 -78h-307l-35 -224h298l-13 -78h-298l-47 -296h307l-12 -78h-391zM256 829l145 113l112 -113l-41 -38l-84 72l-105 -72zM574 955q40 13 44 40q2 16 -7.5 26.5t-25.5 10.5q-37 0 -45 -45h-37q4 34 28.5 57.5t58.5 23.5t52.5 -21t13.5 -55
q-7 -50 -77 -72q-31 -10 -42 -17q-21 -14 -24 -40q-15 23 -15 43q0 15 9.5 22.5t66.5 26.5z" />
    <glyph glyph-name="glyph316" unicode="&#x1ec3;" horiz-adv-x="519" 
d="M520 218h-369q-2 -13 -2 -26q0 -59 36 -95t95 -36q89 0 158 97l62 -39q-91 -132 -238 -132q-89 0 -142.5 54t-53.5 143q0 19 4 45q17 109 87 179q74 75 181 75q89 0 139 -53.5t50 -143.5q0 -33 -7 -68zM165 286h281q0 52 -33 87.5t-85 35.5q-53 0 -100 -36t-63 -87z
M219 565l138 107l107 -107l-39 -37l-80 69l-100 -69zM531 690q40 13 44 40q2 16 -7.5 26.5t-25.5 10.5q-37 0 -45 -45h-37q4 34 28.5 57.5t58.5 23.5t52.5 -21t13.5 -55q-7 -50 -77 -72q-31 -10 -42 -17q-21 -14 -24 -40q-15 23 -15 43q0 15 9.5 22.5t66.5 26.5z" />
    <glyph glyph-name="glyph317" unicode="&#x1ec4;" horiz-adv-x="534" 
d="M76 0l119 754h391l-12 -78h-307l-35 -224h298l-13 -78h-298l-47 -296h307l-12 -78h-391zM256 829l145 113l112 -113l-41 -38l-84 72l-105 -72zM266 970l-22 30q65 58 115 58q21 0 55 -20q23 -14 42 -13q23 1 63 38l23 -30q-60 -62 -118 -62q-16 0 -52 17q-25 18 -46 18
q-19 0 -60 -36z" />
    <glyph glyph-name="glyph318" unicode="&#x1ec5;" horiz-adv-x="519" 
d="M520 218h-369q-2 -13 -2 -26q0 -59 36 -95t95 -36q89 0 158 97l62 -39q-91 -132 -238 -132q-89 0 -142.5 54t-53.5 143q0 19 4 45q17 109 87 179q74 75 181 75q89 0 139 -53.5t50 -143.5q0 -33 -7 -68zM165 286h281q0 52 -33 87.5t-85 35.5q-53 0 -100 -36t-63 -87z
M220 564l137 107l107 -107l-39 -36l-80 68l-100 -68zM229 698l-21 28q63 56 110 56q18 0 52 -19q24 -13 40 -13q21 1 59 36l22 -28q-55 -59 -112 -59q-17 0 -49 16q-22 17 -44 17q-18 0 -57 -34z" />
    <glyph glyph-name="glyph319" unicode="&#x1ec6;" horiz-adv-x="534" 
d="M76 0l119 754h391l-12 -78h-307l-35 -224h298l-13 -78h-298l-47 -296h307l-12 -78h-391zM263 828l145 113l112 -113l-41 -38l-84 72l-105 -72zM283 -52q21 0 33 -14t9 -35t-20 -36t-38 -15t-33 15t-9 36q3 20 20 34.5t38 14.5z" />
    <glyph glyph-name="glyph320" unicode="&#x1ec7;" horiz-adv-x="519" 
d="M520 218h-369q-2 -13 -2 -26q0 -59 36 -95t95 -36q89 0 158 97l62 -39q-91 -132 -238 -132q-89 0 -142.5 54t-53.5 143q0 19 4 45q17 109 87 179q74 75 181 75q89 0 139 -53.5t50 -143.5q0 -33 -7 -68zM165 286h281q0 52 -33 87.5t-85 35.5q-53 0 -100 -36t-63 -87z
M220 564l138 107l106 -107l-39 -36l-79 68l-100 -68zM262 -62q20 0 31 -13.5t8 -33.5t-19 -34t-36 -14t-31 14t-8 34t19 33.5t36 13.5z" />
    <glyph glyph-name="glyph321" unicode="&#x1ec8;" horiz-adv-x="239" 
d="M281 754l-119 -754h-84l119 754h84zM301 902q40 13 44 40q2 16 -7.5 26.5t-25.5 10.5q-37 0 -45 -45h-37q4 34 28.5 57.5t58.5 23.5t52.5 -21t13.5 -55q-7 -50 -77 -72q-31 -10 -42 -17q-21 -14 -24 -40q-15 23 -15 43q0 15 9.5 22.5t66.5 26.5z" />
    <glyph glyph-name="glyph322" unicode="&#x1ec9;" horiz-adv-x="262" 
d="M245 470l-74 -470h-80l74 470h80zM267 625q40 13 44 40q2 16 -7.5 26.5t-25.5 10.5q-37 0 -45 -45h-37q4 34 28.5 57.5t58.5 23.5t52.5 -21t13.5 -55q-7 -50 -77 -72q-31 -10 -42 -17q-21 -14 -24 -40q-15 23 -15 43q0 15 9.5 22.5t66.5 26.5z" />
    <glyph glyph-name="glyph323" unicode="&#x1eca;" horiz-adv-x="239" 
d="M281 754l-119 -754h-84l119 754h84zM110 -52q21 0 33 -14t9 -35t-20 -36t-38 -15t-33 15t-9 36q3 20 20 34.5t38 14.5z" />
    <glyph glyph-name="glyph324" unicode="&#x1ecb;" horiz-adv-x="262" 
d="M245 470l-74 -470h-80l74 470h80zM123 -52q20 0 31 -13.5t8 -33.5t-19 -34t-36 -14t-31 14t-8 34t19 33.5t36 13.5zM232 638q20 0 31.5 -14t8.5 -34q-3 -21 -19 -34.5t-37 -13.5t-32 13.5t-8 34.5q3 20 19.5 34t36.5 14z" />
    <glyph glyph-name="glyph325" unicode="&#x1ecc;" horiz-adv-x="862" 
d="M552 767q145 0 241 -93t96 -237q0 -30 -5 -61q-26 -163 -158 -276t-297 -113q-145 0 -240.5 92t-95.5 236q0 30 5 61q26 163 158 277t296 114zM540 689q-131 0 -234.5 -91t-123.5 -221q-4 -26 -4 -49q0 -115 74 -189t189 -74q144 0 253.5 109t109.5 253
q0 115 -74.5 188.5t-189.5 73.5zM429 -72q21 0 33 -14t9 -35t-20 -36t-38 -15t-33 15t-9 36q3 20 20 34.5t38 14.5z" />
    <glyph glyph-name="glyph326" unicode="&#x1ecd;" horiz-adv-x="562" 
d="M279 -13q-92 0 -151.5 58t-59.5 149q0 127 103 217q83 72 186 72q92 0 151.5 -58.5t59.5 -150.5q0 -127 -102 -215q-84 -72 -187 -72zM346 409q-82 0 -139.5 -61t-57.5 -143q0 -64 39 -104t103 -40q83 0 139.5 60.5t56.5 143.5q0 64 -38.5 104t-102.5 40zM279 -62
q20 0 31 -13.5t8 -33.5t-19 -34t-36 -14t-31 14t-8 34t19 33.5t36 13.5z" />
    <glyph glyph-name="glyph327" unicode="&#x1ece;" horiz-adv-x="862" 
d="M552 767q145 0 241 -93t96 -237q0 -30 -5 -61q-26 -163 -158 -276t-297 -113q-145 0 -240.5 92t-95.5 236q0 30 5 61q26 163 158 277t296 114zM540 689q-131 0 -234.5 -91t-123.5 -221q-4 -26 -4 -49q0 -115 74 -189t189 -74q144 0 253.5 109t109.5 253
q0 115 -74.5 188.5t-189.5 73.5zM613 913q40 13 44 40q2 16 -7.5 26.5t-25.5 10.5q-37 0 -45 -45h-37q4 34 28.5 57.5t58.5 23.5t52.5 -21t13.5 -55q-7 -50 -77 -72q-31 -10 -42 -17q-21 -14 -24 -40q-15 23 -15 43q0 15 9.5 22.5t66.5 26.5z" />
    <glyph glyph-name="glyph328" unicode="&#x1ecf;" horiz-adv-x="562" 
d="M279 -13q-92 0 -151.5 58t-59.5 149q0 127 103 217q83 72 186 72q92 0 151.5 -58.5t59.5 -150.5q0 -127 -102 -215q-84 -72 -187 -72zM346 409q-82 0 -139.5 -61t-57.5 -143q0 -64 39 -104t103 -40q83 0 139.5 60.5t56.5 143.5q0 64 -38.5 104t-102.5 40zM418 648
q40 13 44 40q2 16 -7.5 26.5t-25.5 10.5q-37 0 -45 -45h-37q4 34 28.5 57.5t58.5 23.5t52.5 -21t13.5 -55q-7 -50 -77 -72q-31 -10 -42 -17q-21 -14 -24 -40q-15 23 -15 43q0 15 9.5 22.5t66.5 26.5z" />
    <glyph glyph-name="glyph329" unicode="&#x1ed0;" horiz-adv-x="862" 
d="M552 767q145 0 241 -93t96 -237q0 -30 -5 -61q-26 -163 -158 -276t-297 -113q-145 0 -240.5 92t-95.5 236q0 30 5 61q26 163 158 277t296 114zM540 689q-131 0 -234.5 -91t-123.5 -221q-4 -26 -4 -49q0 -115 74 -189t189 -74q144 0 253.5 109t109.5 253
q0 115 -74.5 188.5t-189.5 73.5zM430 838l145 113l112 -113l-41 -38l-84 72l-105 -72zM776 1045l71 -32l-161 -141l-9 44z" />
    <glyph glyph-name="glyph330" unicode="&#x1ed1;" horiz-adv-x="562" 
d="M279 -13q-92 0 -151.5 58t-59.5 149q0 127 103 217q83 72 186 72q92 0 151.5 -58.5t59.5 -150.5q0 -127 -102 -215q-84 -72 -187 -72zM346 409q-82 0 -139.5 -61t-57.5 -143q0 -64 39 -104t103 -40q83 0 139.5 60.5t56.5 143.5q0 64 -38.5 104t-102.5 40zM239 564
l138 107l106 -107l-39 -36l-79 68l-100 -68zM568 760l67 -30l-153 -134l-8 42z" />
    <glyph glyph-name="glyph331" unicode="&#x1ed2;" horiz-adv-x="862" 
d="M552 767q145 0 241 -93t96 -237q0 -30 -5 -61q-26 -163 -158 -276t-297 -113q-145 0 -240.5 92t-95.5 236q0 30 5 61q26 163 158 277t296 114zM540 689q-131 0 -234.5 -91t-123.5 -221q-4 -26 -4 -49q0 -115 74 -189t189 -74q144 0 253.5 109t109.5 253
q0 115 -74.5 188.5t-189.5 73.5zM430 838l145 113l112 -113l-41 -38l-84 72l-105 -72zM440 916l-9 -44l-161 141l71 32z" />
    <glyph glyph-name="glyph332" unicode="&#x1ed3;" horiz-adv-x="562" 
d="M279 -13q-92 0 -151.5 58t-59.5 149q0 127 103 217q83 72 186 72q92 0 151.5 -58.5t59.5 -150.5q0 -127 -102 -215q-84 -72 -187 -72zM346 409q-82 0 -139.5 -61t-57.5 -143q0 -64 39 -104t103 -40q83 0 139.5 60.5t56.5 143.5q0 64 -38.5 104t-102.5 40zM239 564
l137 107l107 -107l-39 -36l-80 68l-100 -68zM248 638l-8 -42l-153 134l67 30z" />
    <glyph glyph-name="glyph333" unicode="&#x1ed4;" horiz-adv-x="862" 
d="M552 767q145 0 241 -93t96 -237q0 -30 -5 -61q-26 -163 -158 -276t-297 -113q-145 0 -240.5 92t-95.5 236q0 30 5 61q26 163 158 277t296 114zM540 689q-131 0 -234.5 -91t-123.5 -221q-4 -26 -4 -49q0 -115 74 -189t189 -74q144 0 253.5 109t109.5 253
q0 115 -74.5 188.5t-189.5 73.5zM429 838l145 113l112 -113l-41 -38l-84 72l-105 -72zM747 964q40 13 44 40q2 16 -7.5 26.5t-25.5 10.5q-37 0 -45 -45h-37q4 34 28.5 57.5t58.5 23.5t52.5 -21t13.5 -55q-7 -50 -77 -72q-31 -10 -42 -17q-21 -14 -24 -40q-15 23 -15 43
q0 15 9.5 22.5t66.5 26.5z" />
    <glyph glyph-name="glyph334" unicode="&#x1ed5;" horiz-adv-x="562" 
d="M279 -13q-92 0 -151.5 58t-59.5 149q0 127 103 217q83 72 186 72q92 0 151.5 -58.5t59.5 -150.5q0 -127 -102 -215q-84 -72 -187 -72zM346 409q-82 0 -139.5 -61t-57.5 -143q0 -64 39 -104t103 -40q83 0 139.5 60.5t56.5 143.5q0 64 -38.5 104t-102.5 40zM238 565
l138 107l107 -107l-39 -37l-80 69l-100 -69zM550 690q40 13 44 40q2 16 -7.5 26.5t-25.5 10.5q-37 0 -45 -45h-37q4 34 28.5 57.5t58.5 23.5t52.5 -21t13.5 -55q-7 -50 -77 -72q-31 -10 -42 -17q-21 -14 -24 -40q-15 23 -15 43q0 15 9.5 22.5t66.5 26.5z" />
    <glyph glyph-name="glyph335" unicode="&#x1ed6;" horiz-adv-x="862" 
d="M552 767q145 0 241 -93t96 -237q0 -30 -5 -61q-26 -163 -158 -276t-297 -113q-145 0 -240.5 92t-95.5 236q0 30 5 61q26 163 158 277t296 114zM540 689q-131 0 -234.5 -91t-123.5 -221q-4 -26 -4 -49q0 -115 74 -189t189 -74q144 0 253.5 109t109.5 253
q0 115 -74.5 188.5t-189.5 73.5zM430 838l145 113l112 -113l-41 -38l-84 72l-105 -72zM440 979l-22 30q65 58 115 58q21 0 55 -20q23 -14 42 -13q23 1 63 38l23 -30q-60 -62 -118 -62q-16 0 -52 17q-25 18 -46 18q-19 0 -60 -36z" />
    <glyph glyph-name="glyph336" unicode="&#x1ed7;" horiz-adv-x="562" 
d="M279 -13q-92 0 -151.5 58t-59.5 149q0 127 103 217q83 72 186 72q92 0 151.5 -58.5t59.5 -150.5q0 -127 -102 -215q-84 -72 -187 -72zM346 409q-82 0 -139.5 -61t-57.5 -143q0 -64 39 -104t103 -40q83 0 139.5 60.5t56.5 143.5q0 64 -38.5 104t-102.5 40zM239 564
l137 107l107 -107l-39 -36l-80 68l-100 -68zM248 698l-21 28q63 56 110 56q18 0 52 -19q24 -13 40 -13q21 1 59 36l22 -28q-55 -59 -112 -59q-17 0 -49 16q-22 17 -44 17q-18 0 -57 -34z" />
    <glyph glyph-name="glyph337" unicode="&#x1ed8;" horiz-adv-x="862" 
d="M552 767q145 0 241 -93t96 -237q0 -30 -5 -61q-26 -163 -158 -276t-297 -113q-145 0 -240.5 92t-95.5 236q0 30 5 61q26 163 158 277t296 114zM540 689q-131 0 -234.5 -91t-123.5 -221q-4 -26 -4 -49q0 -115 74 -189t189 -74q144 0 253.5 109t109.5 253
q0 115 -74.5 188.5t-189.5 73.5zM430 838l145 113l112 -113l-41 -38l-84 72l-105 -72zM429 -72q21 0 33 -14t9 -35t-20 -36t-38 -15t-33 15t-9 36q3 20 20 34.5t38 14.5z" />
    <glyph glyph-name="glyph338" unicode="&#x1ed9;" horiz-adv-x="562" 
d="M279 -13q-92 0 -151.5 58t-59.5 149q0 127 103 217q83 72 186 72q92 0 151.5 -58.5t59.5 -150.5q0 -127 -102 -215q-84 -72 -187 -72zM346 409q-82 0 -139.5 -61t-57.5 -143q0 -64 39 -104t103 -40q83 0 139.5 60.5t56.5 143.5q0 64 -38.5 104t-102.5 40zM239 564
l138 107l106 -107l-39 -36l-79 68l-100 -68zM279 -62q20 0 31 -13.5t8 -33.5t-19 -34t-36 -14t-31 14t-8 34t19 33.5t36 13.5z" />
    <glyph glyph-name="glyph339" unicode="&#x1eda;" horiz-adv-x="862" 
d="M540 689q-131 0 -234.5 -91t-123.5 -221q-4 -26 -4 -49q0 -115 74 -189t189 -74q144 0 253.5 109t109.5 253q0 115 -74.5 188.5t-189.5 73.5zM674 746l90 8q53 5 53 34q0 16 -21 26q-17 8 -35 8l31 29q28 -2 49 -20t21 -45q0 -52 -106 -83q133 -95 133 -266q0 -30 -5 -61
q-26 -163 -158 -276t-297 -113q-145 0 -240.5 92t-95.5 236q0 30 5 61q26 163 158 277t296 114q67 0 122 -21zM642 1003l71 -32l-161 -141l-9 44z" />
    <glyph glyph-name="glyph340" unicode="&#x1edb;" horiz-adv-x="562" 
d="M346 409q-82 0 -139.5 -61t-57.5 -143q0 -64 39 -104t103 -40q83 0 139.5 60.5t56.5 143.5q0 64 -38.5 104t-102.5 40zM437 469h40q47 8 47 30q0 14 -17.5 22.5t-32.5 8.5l28 25q21 -2 34 -11q29 -16 29 -43t-31 -42q-24 -11 -55 -11q89 -59 89 -174q0 -127 -102 -215
q-84 -72 -187 -72q-92 0 -151.5 58t-59.5 149q0 127 103 217q83 72 186 72q43 0 80 -14zM443 730l67 -30l-153 -134l-8 42z" />
    <glyph glyph-name="glyph341" unicode="&#x1edc;" horiz-adv-x="862" 
d="M540 689q-131 0 -234.5 -91t-123.5 -221q-4 -26 -4 -49q0 -115 74 -189t189 -74q144 0 253.5 109t109.5 253q0 115 -74.5 188.5t-189.5 73.5zM674 746l90 8q53 5 53 34q0 16 -21 26q-17 8 -35 8l31 29q28 -2 49 -20t21 -45q0 -52 -106 -83q133 -95 133 -266q0 -30 -5 -61
q-26 -163 -158 -276t-297 -113q-145 0 -240.5 92t-95.5 236q0 30 5 61q26 163 158 277t296 114q67 0 122 -21zM561 874l-9 -44l-161 141l71 32z" />
    <glyph glyph-name="glyph342" unicode="&#x1edd;" horiz-adv-x="562" 
d="M346 409q-82 0 -139.5 -61t-57.5 -143q0 -64 39 -104t103 -40q83 0 139.5 60.5t56.5 143.5q0 64 -38.5 104t-102.5 40zM437 469h40q47 8 47 30q0 14 -17.5 22.5t-32.5 8.5l28 25q21 -2 34 -11q29 -16 29 -43t-31 -42q-24 -11 -55 -11q89 -59 89 -174q0 -127 -102 -215
q-84 -72 -187 -72q-92 0 -151.5 58t-59.5 149q0 127 103 217q83 72 186 72q43 0 80 -14zM365 608l-8 -42l-153 134l67 30z" />
    <glyph glyph-name="glyph343" unicode="&#x1ede;" horiz-adv-x="862" 
d="M540 689q-131 0 -234.5 -91t-123.5 -221q-4 -26 -4 -49q0 -115 74 -189t189 -74q144 0 253.5 109t109.5 253q0 115 -74.5 188.5t-189.5 73.5zM674 746l90 8q53 5 53 34q0 16 -21 26q-17 8 -35 8l31 29q28 -2 49 -20t21 -45q0 -52 -106 -83q133 -95 133 -266q0 -30 -5 -61
q-26 -163 -158 -276t-297 -113q-145 0 -240.5 92t-95.5 236q0 30 5 61q26 163 158 277t296 114q67 0 122 -21zM613 913q40 13 44 40q2 16 -7.5 26.5t-25.5 10.5q-37 0 -45 -45h-37q4 34 28.5 57.5t58.5 23.5t52.5 -21t13.5 -55q-7 -50 -77 -72q-31 -10 -42 -17
q-21 -14 -24 -40q-15 23 -15 43q0 15 9.5 22.5t66.5 26.5z" />
    <glyph glyph-name="glyph344" unicode="&#x1edf;" horiz-adv-x="562" 
d="M346 409q-82 0 -139.5 -61t-57.5 -143q0 -64 39 -104t103 -40q83 0 139.5 60.5t56.5 143.5q0 64 -38.5 104t-102.5 40zM437 469h40q47 8 47 30q0 14 -17.5 22.5t-32.5 8.5l28 25q21 -2 34 -11q29 -16 29 -43t-31 -42q-24 -11 -55 -11q89 -59 89 -174q0 -127 -102 -215
q-84 -72 -187 -72q-92 0 -151.5 58t-59.5 149q0 127 103 217q83 72 186 72q43 0 80 -14zM418 648q40 13 44 40q2 16 -7.5 26.5t-25.5 10.5q-37 0 -45 -45h-37q4 34 28.5 57.5t58.5 23.5t52.5 -21t13.5 -55q-7 -50 -77 -72q-31 -10 -42 -17q-21 -14 -24 -40q-15 23 -15 43
q0 15 9.5 22.5t66.5 26.5z" />
    <glyph glyph-name="glyph345" unicode="&#x1ee0;" horiz-adv-x="862" 
d="M540 689q-131 0 -234.5 -91t-123.5 -221q-4 -26 -4 -49q0 -115 74 -189t189 -74q144 0 253.5 109t109.5 253q0 115 -74.5 188.5t-189.5 73.5zM674 746l90 8q53 5 53 34q0 16 -21 26q-17 8 -35 8l31 29q28 -2 49 -20t21 -45q0 -52 -106 -83q133 -95 133 -266q0 -30 -5 -61
q-26 -163 -158 -276t-297 -113q-145 0 -240.5 92t-95.5 236q0 30 5 61q26 163 158 277t296 114q67 0 122 -21zM440 840l-22 30q65 58 115 58q21 0 55 -20q23 -14 42 -13q23 1 63 38l23 -30q-60 -62 -118 -62q-16 0 -52 17q-25 18 -46 18q-19 0 -60 -36z" />
    <glyph glyph-name="glyph346" unicode="&#x1ee1;" horiz-adv-x="562" 
d="M346 409q-82 0 -139.5 -61t-57.5 -143q0 -64 39 -104t103 -40q83 0 139.5 60.5t56.5 143.5q0 64 -38.5 104t-102.5 40zM437 469h40q47 8 47 30q0 14 -17.5 22.5t-32.5 8.5l28 25q21 -2 34 -11q29 -16 29 -43t-31 -42q-24 -11 -55 -11q89 -59 89 -174q0 -127 -102 -215
q-84 -72 -187 -72q-92 0 -151.5 58t-59.5 149q0 127 103 217q83 72 186 72q43 0 80 -14zM248 566l-21 28q63 56 110 56q18 0 52 -19q24 -13 40 -13q21 1 59 36l22 -28q-55 -59 -112 -59q-17 0 -49 16q-22 17 -44 17q-18 0 -57 -34z" />
    <glyph glyph-name="glyph347" unicode="&#x1ee2;" horiz-adv-x="862" 
d="M540 689q-131 0 -234.5 -91t-123.5 -221q-4 -26 -4 -49q0 -115 74 -189t189 -74q144 0 253.5 109t109.5 253q0 115 -74.5 188.5t-189.5 73.5zM674 746l90 8q53 5 53 34q0 16 -21 26q-17 8 -35 8l31 29q28 -2 49 -20t21 -45q0 -52 -106 -83q133 -95 133 -266q0 -30 -5 -61
q-26 -163 -158 -276t-297 -113q-145 0 -240.5 92t-95.5 236q0 30 5 61q26 163 158 277t296 114q67 0 122 -21zM429 -72q21 0 33 -14t9 -35t-20 -36t-38 -15t-33 15t-9 36q3 20 20 34.5t38 14.5z" />
    <glyph glyph-name="glyph348" unicode="&#x1ee3;" horiz-adv-x="562" 
d="M346 409q-82 0 -139.5 -61t-57.5 -143q0 -64 39 -104t103 -40q83 0 139.5 60.5t56.5 143.5q0 64 -38.5 104t-102.5 40zM437 469h40q47 8 47 30q0 14 -17.5 22.5t-32.5 8.5l28 25q21 -2 34 -11q29 -16 29 -43t-31 -42q-24 -11 -55 -11q89 -59 89 -174q0 -127 -102 -215
q-84 -72 -187 -72q-92 0 -151.5 58t-59.5 149q0 127 103 217q83 72 186 72q43 0 80 -14zM279 -62q20 0 31 -13.5t8 -33.5t-19 -34t-36 -14t-31 14t-8 34t19 33.5t36 13.5z" />
    <glyph glyph-name="glyph349" unicode="&#x1ee4;" horiz-adv-x="685" 
d="M277 754l-71 -449q-10 -63 -10 -92q0 -91 75 -128q40 -20 82 -20q92 0 159 67q32 32 47 82q5 18 17 91l71 449h84l-74 -472q-22 -139 -99 -209q-95 -86 -217 -86q-116 0 -183 77q-47 54 -47 132q0 35 8 86l74 472h84zM341 -72q21 0 33 -14t9 -35t-20 -36t-38 -15t-33 15
t-9 36q3 20 20 34.5t38 14.5z" />
    <glyph glyph-name="glyph350" unicode="&#x1ee5;" horiz-adv-x="512" 
d="M224 470l-41 -262q-6 -38 -6 -61q0 -86 89 -86q65 0 96 44q22 31 33 103l41 262h80l-42 -271q-33 -212 -220 -212q-157 0 -157 151q0 29 5 61l42 271h80zM253 -62q20 0 31 -13.5t8 -33.5t-19 -34t-36 -14t-31 14t-8 34t19 33.5t36 13.5z" />
    <glyph glyph-name="glyph351" unicode="&#x1ee6;" horiz-adv-x="685" 
d="M277 754l-71 -449q-10 -63 -10 -92q0 -91 75 -128q40 -20 82 -20q92 0 159 67q32 32 47 82q5 18 17 91l71 449h84l-74 -472q-22 -139 -99 -209q-95 -86 -217 -86q-116 0 -183 77q-47 54 -47 132q0 35 8 86l74 472h84zM520 873q40 13 44 40q2 16 -7.5 26.5t-25.5 10.5
q-37 0 -45 -45h-37q4 34 28.5 57.5t58.5 23.5t52.5 -21t13.5 -55q-7 -50 -77 -72q-31 -10 -42 -17q-21 -14 -24 -40q-15 23 -15 43q0 15 9.5 22.5t66.5 26.5z" />
    <glyph glyph-name="glyph352" unicode="&#x1ee7;" horiz-adv-x="512" 
d="M224 470l-41 -262q-6 -38 -6 -61q0 -86 89 -86q65 0 96 44q22 31 33 103l41 262h80l-42 -271q-33 -212 -220 -212q-157 0 -157 151q0 29 5 61l42 271h80zM391 600q40 13 44 40q2 16 -7.5 26.5t-25.5 10.5q-37 0 -45 -45h-37q4 34 28.5 57.5t58.5 23.5t52.5 -21t13.5 -55
q-7 -50 -77 -72q-31 -10 -42 -17q-21 -14 -24 -40q-15 23 -15 43q0 15 9.5 22.5t66.5 26.5z" />
    <glyph glyph-name="glyph353" unicode="&#x1ee8;" horiz-adv-x="685" 
d="M727 731l-70 -449q-22 -139 -99 -209q-95 -86 -217 -86q-116 0 -183 77q-47 54 -47 132q0 35 8 86l74 472h84l-71 -449q-10 -63 -10 -92q0 -91 75 -128q40 -20 82 -20q92 0 159 67q32 32 47 82q5 18 17 91l71 449h81q53 8 53 34q0 16 -21 26q-17 8 -35 8l31 28
q26 -2 47 -17q23 -18 23 -43q0 -59 -98 -59h-1zM548 964l71 -32l-161 -141l-9 44z" />
    <glyph glyph-name="glyph354" unicode="&#x1ee9;" horiz-adv-x="512" 
d="M513 448l-39 -249q-33 -212 -220 -212q-157 0 -157 151q0 29 5 61l42 271h80l-41 -262q-6 -38 -6 -61q0 -86 89 -86q65 0 96 44q22 31 33 103l41 262h80q42 8 42 30q0 13 -17.5 21.5t-32.5 8.5l28 25q21 -2 34 -11q29 -16 29 -42q0 -28 -31 -43q-23 -11 -55 -11zM413 683
l67 -30l-153 -134l-8 42z" />
    <glyph glyph-name="glyph355" unicode="&#x1eea;" horiz-adv-x="685" 
d="M727 731l-70 -449q-22 -139 -99 -209q-95 -86 -217 -86q-116 0 -183 77q-47 54 -47 132q0 35 8 86l74 472h84l-71 -449q-10 -63 -10 -92q0 -91 75 -128q40 -20 82 -20q92 0 159 67q32 32 47 82q5 18 17 91l71 449h81q53 8 53 34q0 16 -21 26q-17 8 -35 8l31 28
q26 -2 47 -17q23 -18 23 -43q0 -59 -98 -59h-1zM469 834l-9 -44l-161 141l71 32z" />
    <glyph glyph-name="glyph356" unicode="&#x1eeb;" horiz-adv-x="512" 
d="M513 448l-39 -249q-33 -212 -220 -212q-157 0 -157 151q0 29 5 61l42 271h80l-41 -262q-6 -38 -6 -61q0 -86 89 -86q65 0 96 44q22 31 33 103l41 262h80q42 8 42 30q0 13 -17.5 21.5t-32.5 8.5l28 25q21 -2 34 -11q29 -16 29 -42q0 -28 -31 -43q-23 -11 -55 -11zM345 560
l-8 -42l-153 134l67 30z" />
    <glyph glyph-name="glyph357" unicode="&#x1eec;" horiz-adv-x="685" 
d="M727 731l-70 -449q-22 -139 -99 -209q-95 -86 -217 -86q-116 0 -183 77q-47 54 -47 132q0 35 8 86l74 472h84l-71 -449q-10 -63 -10 -92q0 -91 75 -128q40 -20 82 -20q92 0 159 67q32 32 47 82q5 18 17 91l71 449h81q53 8 53 34q0 16 -21 26q-17 8 -35 8l31 28
q26 -2 47 -17q23 -18 23 -43q0 -59 -98 -59h-1zM520 873q40 13 44 40q2 16 -7.5 26.5t-25.5 10.5q-37 0 -45 -45h-37q4 34 28.5 57.5t58.5 23.5t52.5 -21t13.5 -55q-7 -50 -77 -72q-31 -10 -42 -17q-21 -14 -24 -40q-15 23 -15 43q0 15 9.5 22.5t66.5 26.5z" />
    <glyph glyph-name="glyph358" unicode="&#x1eed;" horiz-adv-x="512" 
d="M513 448l-39 -249q-33 -212 -220 -212q-157 0 -157 151q0 29 5 61l42 271h80l-41 -262q-6 -38 -6 -61q0 -86 89 -86q65 0 96 44q22 31 33 103l41 262h80q42 8 42 30q0 13 -17.5 21.5t-32.5 8.5l28 25q21 -2 34 -11q29 -16 29 -42q0 -28 -31 -43q-23 -11 -55 -11zM391 600
q40 13 44 40q2 16 -7.5 26.5t-25.5 10.5q-37 0 -45 -45h-37q4 34 28.5 57.5t58.5 23.5t52.5 -21t13.5 -55q-7 -50 -77 -72q-31 -10 -42 -17q-21 -14 -24 -40q-15 23 -15 43q0 15 9.5 22.5t66.5 26.5z" />
    <glyph glyph-name="glyph359" unicode="&#x1eee;" horiz-adv-x="685" 
d="M727 731l-70 -449q-22 -139 -99 -209q-95 -86 -217 -86q-116 0 -183 77q-47 54 -47 132q0 35 8 86l74 472h84l-71 -449q-10 -63 -10 -92q0 -91 75 -128q40 -20 82 -20q92 0 159 67q32 32 47 82q5 18 17 91l71 449h81q53 8 53 34q0 16 -21 26q-17 8 -35 8l31 28
q26 -2 47 -17q23 -18 23 -43q0 -59 -98 -59h-1zM337 800l-22 30q65 58 115 58q21 0 55 -20q23 -14 42 -13q23 1 63 38l23 -30q-60 -62 -118 -62q-16 0 -52 17q-25 18 -46 18q-19 0 -60 -36z" />
    <glyph glyph-name="glyph360" unicode="&#x1eef;" horiz-adv-x="512" 
d="M513 448l-39 -249q-33 -212 -220 -212q-157 0 -157 151q0 29 5 61l42 271h80l-41 -262q-6 -38 -6 -61q0 -86 89 -86q65 0 96 44q22 31 33 103l41 262h80q42 8 42 30q0 13 -17.5 21.5t-32.5 8.5l28 25q21 -2 34 -11q29 -16 29 -42q0 -28 -31 -43q-23 -11 -55 -11zM211 528
l-21 28q63 56 110 56q18 0 52 -19q24 -13 40 -13q21 1 59 36l22 -28q-55 -59 -112 -59q-17 0 -49 16q-22 17 -44 17q-18 0 -57 -34z" />
    <glyph glyph-name="glyph361" unicode="&#x1ef0;" horiz-adv-x="685" 
d="M727 731l-70 -449q-22 -139 -99 -209q-95 -86 -217 -86q-116 0 -183 77q-47 54 -47 132q0 35 8 86l74 472h84l-71 -449q-10 -63 -10 -92q0 -91 75 -128q40 -20 82 -20q92 0 159 67q32 32 47 82q5 18 17 91l71 449h81q53 8 53 34q0 16 -21 26q-17 8 -35 8l31 28
q26 -2 47 -17q23 -18 23 -43q0 -59 -98 -59h-1zM341 -72q21 0 33 -14t9 -35t-20 -36t-38 -15t-33 15t-9 36q3 20 20 34.5t38 14.5z" />
    <glyph glyph-name="glyph362" unicode="&#x1ef1;" horiz-adv-x="512" 
d="M513 448l-39 -249q-33 -212 -220 -212q-157 0 -157 151q0 29 5 61l42 271h80l-41 -262q-6 -38 -6 -61q0 -86 89 -86q65 0 96 44q22 31 33 103l41 262h80q42 8 42 30q0 13 -17.5 21.5t-32.5 8.5l28 25q21 -2 34 -11q29 -16 29 -42q0 -28 -31 -43q-23 -11 -55 -11zM253 -62
q20 0 31 -13.5t8 -33.5t-19 -34t-36 -14t-31 14t-8 34t19 33.5t36 13.5z" />
    <glyph glyph-name="glyph363" unicode="&#x1ef2;" horiz-adv-x="593" 
d="M306 324l-179 430h97l139 -336l245 336h97l-315 -430l-51 -324h-84zM422 834l-9 -44l-161 141l71 32z" />
    <glyph glyph-name="glyph364" unicode="&#x1ef3;" horiz-adv-x="498" 
d="M221 44l-149 426h93l113 -337l205 337h91l-463 -734h-91zM340 550l-8 -42l-153 134l67 30z" />
    <glyph glyph-name="glyph365" unicode="&#x1ef4;" horiz-adv-x="593" 
d="M306 324l-179 430h97l139 -336l245 336h97l-315 -430l-51 -324h-84zM292 -52q21 0 33 -14t9 -35t-20 -36t-38 -15t-33 15t-9 36q3 20 20 34.5t38 14.5z" />
    <glyph glyph-name="glyph366" unicode="&#x1ef5;" horiz-adv-x="498" 
d="M221 44l-149 426h93l113 -337l205 337h91l-463 -734h-91zM311 -62q20 0 31 -13.5t8 -33.5t-19 -34t-36 -14t-31 14t-8 34t19 33.5t36 13.5z" />
    <glyph glyph-name="glyph367" unicode="&#x1ef6;" horiz-adv-x="593" 
d="M306 324l-179 430h97l139 -336l245 336h97l-315 -430l-51 -324h-84zM474 872q40 13 44 40q2 16 -7.5 26.5t-25.5 10.5q-37 0 -45 -45h-37q4 34 28.5 57.5t58.5 23.5t52.5 -21t13.5 -55q-7 -50 -77 -72q-31 -10 -42 -17q-21 -14 -24 -40q-15 23 -15 43q0 15 9.5 22.5
t66.5 26.5z" />
    <glyph glyph-name="glyph368" unicode="&#x1ef7;" horiz-adv-x="498" 
d="M221 44l-149 426h93l113 -337l205 337h91l-463 -734h-91zM386 590q40 13 44 40q2 16 -7.5 26.5t-25.5 10.5q-37 0 -45 -45h-37q4 34 28.5 57.5t58.5 23.5t52.5 -21t13.5 -55q-7 -50 -77 -72q-31 -10 -42 -17q-21 -14 -24 -40q-15 23 -15 43q0 15 9.5 22.5t66.5 26.5z" />
    <glyph glyph-name="glyph369" unicode="&#x1ef8;" horiz-adv-x="593" 
d="M306 324l-179 430h97l139 -336l245 336h97l-315 -430l-51 -324h-84zM291 800l-22 30q65 58 115 58q21 0 55 -20q23 -14 42 -13q23 1 63 38l23 -30q-60 -62 -118 -62q-16 0 -52 17q-25 18 -46 18q-19 0 -60 -36z" />
    <glyph glyph-name="glyph370" unicode="&#x1ef9;" horiz-adv-x="498" 
d="M221 44l-149 426h93l113 -337l205 337h91l-463 -734h-91zM205 518l-21 28q63 56 110 56q18 0 52 -19q24 -13 40 -13q21 1 59 36l22 -28q-55 -59 -112 -59q-17 0 -49 16q-22 17 -44 17q-18 0 -57 -34z" />
    <glyph glyph-name="endash" unicode="&#x2013;" horiz-adv-x="500" 
d="M44 278h500l-12 -74h-500z" />
    <glyph glyph-name="emdash" unicode="&#x2014;" horiz-adv-x="1000" 
d="M44 278h1000l-12 -74h-1000z" />
    <glyph glyph-name="quoteleft" unicode="&#x2018;" horiz-adv-x="289" 
d="M212 485l-70 27l154 255l51 -21z" />
    <glyph glyph-name="quoteright" unicode="&#x2019;" horiz-adv-x="289" 
d="M275 767l70 -27l-154 -255l-51 21z" />
    <glyph glyph-name="quotesinglbase" unicode="&#x201a;" horiz-adv-x="289" 
d="M172 110l70 -26l-154 -256l-51 22z" />
    <glyph glyph-name="quotedblleft" unicode="&#x201c;" horiz-adv-x="457" 
d="M380 485l-70 27l154 255l51 -21zM212 485l-70 27l154 255l51 -21z" />
    <glyph glyph-name="quotedblright" unicode="&#x201d;" horiz-adv-x="457" 
d="M276 767l70 -27l-154 -255l-51 21zM444 767l70 -27l-154 -255l-51 21z" />
    <glyph glyph-name="quotedblbase" unicode="&#x201e;" horiz-adv-x="464" 
d="M172 110l70 -26l-154 -256l-51 22zM347 110l70 -26l-154 -256l-51 22z" />
    <glyph glyph-name="dagger" unicode="&#x2020;" horiz-adv-x="592" 
d="M374 754h82l-29 -185h167l-12 -78h-167l-104 -654h-82l104 654h-167l12 78h167z" />
    <glyph glyph-name="daggerdbl" unicode="&#x2021;" horiz-adv-x="592" 
d="M374 754h82l-29 -185h167l-12 -78h-167l-58 -363h167l-12 -78h-167l-34 -213h-82l34 213h-167l12 78h167l58 363h-167l12 78h167z" />
    <glyph glyph-name="bullet" unicode="&#x2022;" horiz-adv-x="592" 
d="M326 189q-70 0 -115.5 44.5t-45.5 114.5q0 87 67 152.5t154 65.5q70 0 115.5 -44.5t45.5 -114.5q0 -87 -67 -152.5t-154 -65.5z" />
    <glyph glyph-name="ellipsis" unicode="&#x2026;" horiz-adv-x="1000" 
d="M184 99q23 0 37 -16t10 -39t-23 -40t-42 -17t-37 17t-10 40t23 39t42 16zM516 99q23 0 37 -16t10 -39t-23 -40t-42 -17t-37 17t-10 40t23 39t42 16zM848 99q23 0 37 -16t10 -39t-23 -40t-42 -17t-37 17t-10 40t23 39t42 16z" />
    <glyph glyph-name="perthousand" unicode="&#x2030;" horiz-adv-x="1212" 
d="M323 767q62 0 103 -38.5t41 -100.5q0 -77 -59.5 -133.5t-136.5 -56.5q-62 0 -103 38.5t-41 99.5q0 77 59.5 134t136.5 57zM313 703q-47 0 -84 -35t-37 -81q0 -37 26 -61t64 -24q47 0 84 34.5t37 80.5q0 38 -26 62t-64 24zM720 767l37 -24l-556 -756l-39 26zM650 316
q61 0 102.5 -39t41.5 -100q0 -76 -59.5 -133t-136.5 -57q-62 0 -103 38.5t-41 99.5q0 77 59 134t137 57zM640 252q-47 0 -84 -35t-37 -81q0 -37 26 -61t63 -24q47 0 84 34.5t37 80.5q0 38 -25.5 62t-63.5 24zM1060 316q61 0 102.5 -39t41.5 -100q0 -76 -59.5 -133
t-136.5 -57q-62 0 -103 38.5t-41 99.5q0 77 59 134t137 57zM1050 252q-47 0 -84 -35t-37 -81q0 -37 26 -61t63 -24q47 0 84 34.5t37 80.5q0 38 -25.5 62t-63.5 24z" />
    <glyph glyph-name="guilsinglleft" unicode="&#x2039;" horiz-adv-x="330" 
d="M165 240l109 -166l-60 -41l-135 207l202 213l46 -42z" />
    <glyph glyph-name="guilsinglright" unicode="&#x203a;" horiz-adv-x="330" 
d="M80 74l161 166l-108 171l60 42l134 -213l-201 -207z" />
    <glyph glyph-name="fraction" unicode="&#x2044;" horiz-adv-x="161" 
d="M399 767l41 -24l-559 -756l-40 24z" />
    <glyph glyph-name="franc" unicode="&#x20a3;" horiz-adv-x="1035" 
d="M526 676h-259l-35 -224h251l-13 -78h-251l-59 -374h-84l119 754h343zM878 470l-8 -51h2q31 33 51 46q28 18 63 18q34 0 69 -22l-50 -73q-27 21 -44 21q-93 0 -120 -174l-37 -235h-80l74 470h80z" />
    <glyph glyph-name="u20AB" unicode="&#x20ab;" horiz-adv-x="393" 
d="M197 501q-48 0 -84 -88q-20 -49 -20 -90q0 -51 39 -51q41 0 74 71q28 60 28 107q0 51 -37 51zM200 267q-53 -62 -106 -62q-91 0 -91 102q0 81 54 153q59 78 137 78q34 0 61 -24l20 75h-100l10 36h100l2 16q0 31 -48 32l7 33q67 2 128 14l15 3q6 0 6 -9q-1 -2 -3 -12
l-19 -77h65l-10 -36h-65l-69 -280q-5 -20 -5 -27q0 -15 12 -15q6 0 49 42l20 -18q-70 -86 -117 -86q-43 0 -53 62zM9 160h221v-56h-221v56z" />
    <glyph glyph-name="trademark" unicode="&#x2122;" horiz-adv-x="940" 
d="M1024 754l-66 -421h-60l57 361h-2l-201 -361h-39l-83 361h-2l-57 -361h-60l66 421h101l73 -303l173 303h100zM496 754l-9 -60h-140l-57 -361h-60l57 361h-141l9 60h341z" />
    <glyph glyph-name="minus" unicode="&#x2212;" 
d="M100 217l13 78h484l-13 -78h-484z" />
    <glyph glyph-name="SF370000" unicode="&#x255f;" horiz-adv-x="718" 
d="M545 214h-322l-125 -214h-92l473 790l214 -790h-93zM524 292l-78 302l-177 -302h255z" />
    <glyph glyph-name="SF420000" unicode="&#x2560;" horiz-adv-x="681" 
d="M76 0l119 754h391l-12 -78h-307l-35 -224h298l-13 -78h-298l-47 -296h307l-12 -78h-391z" />
    <glyph glyph-name="SF190000" unicode="&#x2561;" horiz-adv-x="429" 
d="M281 754l-119 -754h-84l119 754h84z" />
    <glyph glyph-name="SF200000" unicode="&#x2562;" horiz-adv-x="773" 
d="M552 767q144 0 240 -93t96 -237q0 -197 -163 -336q-134 -114 -296 -114q-144 0 -240 92.5t-96 235.5q0 29 5 61q25 162 157.5 276.5t296.5 114.5zM540 689q-130 0 -234 -91.5t-124 -220.5q-4 -26 -4 -49q0 -114 74.5 -188.5t188.5 -74.5q143 0 253 110t110 252
q0 114 -74.5 188t-189.5 74z" />
    <glyph glyph-name="SF230000" unicode="&#x2563;" horiz-adv-x="811" 
d="M277 754l-71 -449q-10 -63 -10 -93q0 -90 75 -127q39 -20 82 -20q93 0 159 67q30 31 46 82q7 24 18 91l71 449h84l-74 -472q-11 -69 -29 -112q-23 -55 -70 -97q-95 -86 -217 -86q-115 0 -183 77q-48 54 -48 133q0 28 9 85l74 472h84z" />
    <glyph glyph-name="SF470000" unicode="&#x2564;" horiz-adv-x="699" 
d="M306 324l-179 430h97l139 -336l245 336h97l-315 -430l-51 -324h-84z" />
    <glyph glyph-name="SF480000" unicode="&#x2565;" horiz-adv-x="541" 
d="M336 409q-78 0 -130.5 -62.5t-52.5 -142.5q0 -63 33.5 -103t95.5 -40q82 0 136 66q52 62 52 145q0 62 -36 99.5t-98 37.5zM579 470l-74 -470h-80l10 65h-2q-74 -78 -174 -78q-87 0 -138.5 57t-51.5 145q0 116 76 203q78 91 193 91q99 0 149 -80h2l10 67h80z" />
    <glyph glyph-name="SF410000" unicode="&#x2566;" horiz-adv-x="431" 
d="M520 218h-369q-2 -13 -2 -26q0 -59 36 -95t95 -36q89 0 158 97l62 -39q-92 -132 -238 -132q-89 0 -142 54t-53 143q0 26 3 45q17 108 87 179q75 75 181 75q89 0 139 -53.5t50 -143.5q0 -33 -7 -68zM165 286h281q0 52 -33 87.5t-85 35.5q-53 0 -100 -36t-63 -87z" />
    <glyph glyph-name="SF450000" unicode="&#x2567;" horiz-adv-x="314" 
d="M245 470l-74 -470h-80l74 470h80zM243 704q24 0 37 -17t10 -40q-4 -24 -22.5 -40.5t-43.5 -16.5q-23 0 -37 17t-11 40t23 40t44 17z" />
    <glyph glyph-name="SF460000" unicode="&#x2568;" horiz-adv-x="314" 
d="M245 470l-74 -470h-80l74 470h80z" />
    <glyph glyph-name="SF400000" unicode="&#x2569;" horiz-adv-x="498" 
d="M279 -13q-91 0 -151 58t-60 149q0 128 103 217q83 72 186 72q92 0 151.5 -58.5t59.5 -150.5q0 -127 -102 -215q-84 -72 -187 -72zM346 409q-82 0 -139.5 -61.5t-57.5 -143.5q0 -64 39 -103.5t103 -39.5q81 0 139 61t58 143q0 64 -39 104t-103 40z" />
    <glyph glyph-name="SF540000" unicode="&#x256a;" horiz-adv-x="557" 
d="M224 470l-41 -262q-6 -38 -6 -61q0 -86 89 -86q65 0 96 44q22 31 33 103l41 262h80l-42 -271q-33 -212 -220 -212q-158 0 -158 151q0 22 6 61l42 271h80z" />
    <glyph glyph-name="SF530000" unicode="&#x256b;" horiz-adv-x="497" 
d="M221 44l-149 426h93l113 -337l205 337h91l-463 -734h-91z" />
    <glyph glyph-name="circle" unicode="&#x25cb;" horiz-adv-x="718" 
d="M402 836l177 133l137 -133l-65 -45l-87 85l-112 -85zM517 1164l78 -38l-178 -154l-45 28z" />
    <glyph glyph-name="H18533" unicode="&#x25cf;" horiz-adv-x="718" 
d="M402 836l177 133l137 -133l-65 -45l-87 85l-112 -85zM501 1127l90 38l93 -164l-55 -28z" />
    <glyph glyph-name="invbullet" unicode="&#x25d8;" horiz-adv-x="718" 
d="M402 836l177 133l137 -133l-65 -45l-87 85l-112 -85zM614 903q9 28 11 64q1 11 8 13q2 0 8 1q67 11 67 54q0 35 -28 35q-5 0 -14 -1t-14 -1q-21 0 -21 18q0 28 32 28q46 0 75 -24q31 -27 27 -72q-6 -59 -87 -81q-25 -7 -31 -34h-33z" />
    <glyph glyph-name="invcircle" unicode="&#x25d9;" horiz-adv-x="718" 
d="M402 836l177 133l137 -133l-65 -45l-87 85l-112 -85zM495 1008v0l-43 39q58 79 115 79q28 0 76 -23t62 -23q29 0 63 48l41 -38q-46 -81 -119 -81q-23 0 -69 22.5t-69 22.5q-29 0 -57 -46z" />
    <glyph glyph-name="fi" unicode="&#xf001;" horiz-adv-x="519" 
d="M214 396l-63 -396h-80l63 396h-44l11 74h44l30 187q6 38 13 63q10 38 27 59q46 59 131 59q25 0 55 -10l-13 -81q-31 11 -52 11q-44 0 -62 -33q-10 -19 -23 -96l-26 -159h119l-11 -74h-119zM502 470l-74 -470h-80l74 470h80zM500 704q24 0 37 -17t10 -40
q-4 -24 -22.5 -40.5t-43.5 -16.5q-23 0 -37 17t-11 40t23 40t44 17z" />
    <glyph glyph-name="fl" unicode="&#xf002;" horiz-adv-x="501" 
d="M559 825l-131 -825h-80l131 825h80zM214 396l-63 -396h-80l63 396h-44l11 74h44l30 187q6 38 13 63q10 38 27 59q46 59 131 59q25 0 55 -10l-13 -81q-31 11 -52 11q-44 0 -62 -33q-10 -19 -23 -96l-26 -159h119l-11 -74h-119z" />
    <glyph glyph-name="periodcentered" horiz-adv-x="308" 
d="M203 311q23 0 37 -16t11 -39t-22.5 -40t-42.5 -17q-24 0 -37.5 16.5t-9.5 40.5q4 23 22 39t42 16z" />
    <glyph glyph-name="glyph231" horiz-adv-x="308" 
 />
    <glyph glyph-name="glyph232" horiz-adv-x="308" 
 />
    <glyph glyph-name="glyph258" horiz-adv-x="278" 
 />
    <glyph glyph-name="glyph259" horiz-adv-x="278" 
 />
    <glyph glyph-name="glyph275" horiz-adv-x="249" 
 />
    <glyph glyph-name="glyph276" horiz-adv-x="249" 
 />
    <glyph glyph-name="glyph261" horiz-adv-x="500" 
d="M253 522q9 28 11 64q1 11 8 13q2 0 8 1q67 11 67 54q0 35 -28 35q-5 0 -14 -1t-14 -1q-21 0 -21 18q0 28 32 28q46 0 75 -24q31 -27 27 -72q-6 -59 -87 -81q-25 -7 -31 -34h-33z" />
    <glyph glyph-name="glyph262" horiz-adv-x="541" 
d="M199 604l177 133l137 -133l-65 -45l-87 85l-112 -85zM313 933l78 -38l-178 -154l-45 28z" />
    <glyph glyph-name="glyph263" horiz-adv-x="541" 
d="M199 604l177 133l137 -133l-65 -45l-87 85l-112 -85zM298 895l90 38l93 -164l-55 -28z" />
    <glyph glyph-name="glyph264" horiz-adv-x="541" 
d="M199 604l177 133l137 -133l-65 -45l-87 85l-112 -85zM411 671q9 28 11 64q1 11 8 13q2 0 8 1q67 11 67 54q0 35 -28 35q-5 0 -14 -1t-14 -1q-21 0 -21 18q0 28 32 28q46 0 75 -24q31 -27 27 -72q-6 -59 -87 -81q-25 -7 -31 -34h-33z" />
    <glyph glyph-name="glyph265" horiz-adv-x="541" 
d="M199 604l177 133l137 -133l-65 -45l-87 85l-112 -85zM292 776v0l-43 39q58 79 115 79q28 0 76 -23t62 -23q29 0 63 48l41 -38q-46 -81 -119 -81q-23 0 -69 22.5t-69 22.5q-29 0 -57 -46z" />
    <glyph glyph-name="glyph266" horiz-adv-x="541" 
d="M222 715h69q15 -68 85 -68q69 0 105 68h69q-17 -61 -69 -98.5t-116 -37.5q-62 0 -103 37.5t-40 98.5zM392 933l78 -38l-178 -154l-45 28z" />
    <glyph glyph-name="glyph267" horiz-adv-x="541" 
d="M222 715h69q15 -68 85 -68q69 0 105 68h69q-17 -61 -69 -98.5t-116 -37.5q-62 0 -103 37.5t-40 98.5zM245 895l90 38l93 -164l-55 -28z" />
    <glyph glyph-name="glyph268" horiz-adv-x="541" 
d="M222 715h69q15 -68 85 -68q69 0 105 68h69q-17 -61 -69 -98.5t-116 -37.5q-62 0 -103 37.5t-40 98.5zM306 671q9 28 11 64q1 11 8 13q2 0 8 1q67 11 67 54q0 35 -28 35q-5 0 -14 -1t-14 -1q-21 0 -21 18q0 28 32 28q46 0 75 -24q31 -27 27 -72q-6 -59 -87 -81
q-25 -7 -31 -34h-33z" />
    <glyph glyph-name="glyph269" horiz-adv-x="541" 
d="M222 715h69q15 -68 85 -68q69 0 105 68h69q-17 -61 -69 -98.5t-116 -37.5q-62 0 -103 37.5t-40 98.5zM292 776v0l-43 39q58 79 115 79q28 0 76 -23t62 -23q29 0 63 48l41 -38q-46 -81 -119 -81q-23 0 -69 22.5t-69 22.5q-29 0 -57 -46z" />
    <glyph glyph-name="glyph270" horiz-adv-x="249" 
 />
  </font>
</defs>
</svg>
